<mxfile host="www.draw.io" modified="2019-10-18T14:58:48.534Z" agent="Mozilla/5.0 (Windows NT 10.0; Win64; x64) AppleWebKit/537.36 (KHTML, like Gecko) Chrome/77.0.3865.120 Safari/537.36" etag="eHy9WzQcxxovq45m5_NF" version="12.1.3" type="github" pages="4">
  <diagram id="NsywbuacqG4cY86PHsI0" name="ArcBoutement">
    <mxGraphModel dx="981" dy="548" grid="1" gridSize="10" guides="1" tooltips="1" connect="1" arrows="1" fold="1" page="1" pageScale="1" pageWidth="827" pageHeight="1169" math="0" shadow="0">
      <root>
        <mxCell id="0"/>
        <mxCell id="1" parent="0"/>
        <mxCell id="HnaEo07ceMGqRIuc90NU-1" value="" style="shape=image;verticalLabelPosition=bottom;labelBackgroundColor=#ffffff;verticalAlign=top;aspect=fixed;imageAspect=0;image=data:image/png,iVBORw0KGgoAAAANSUhEUgAAArAAAADQCAYAAAD/L1LFAAAgAElEQVR4Ae2dCbxM9f//PyhbRIkk2oRIpZBIC6KyJEsR2hVapM1SadEi9a1vu0hSyVbJlmRPqSgqQmlRUoiyFEp0/o/n5/f/3O/cMWfu3Lkz956ZeX0eD+bOOZ/zOZ/zPHPvvM77814KeZ7nGTUREAEREAEREAEREAERSBEChVNknpqmCIiACIiACIiACIiACFgCErD6IIiACIiACIiACIiACKQUAQnYlLpdmqwIiIAIiIAIiIAIiIAErD4DIiACIiACIiACIiACKUVAAjalbpcmKwIiIAIiIAIiIAIiIAGrz4AIiIAIiIAIiIAIiEBKEZCATanbpcmKgAiIgAiIgAiIgAhIwOozIAIiIAIiIAIiIAIikFIEJGBT6nZpsiIgAiIgAiIgAiIgAhKw+gyIgAiIgAiIgAiIgAikFAEJ2JS6XZqsCIiACIiACIiACIiABKw+AyIgAiIgAiIgAiIgAilFQAI2pW6XJisCIiACIiACIiACIiABq8+ACIiACIiACIiACIhAShGQgE2p26XJioAIiIAIiIAIiIAISMDqMyACIiACIiACIiACIpBSBCRgU+p2abIiIAIiIAIiIAIiIAISsPoMiIAIiIAIiIAIiIAIpBQBCdiUul2arAiIgAiIgAiIgAiIwH5CIAIiIAIiIAIiIAJBILBnzx6zc+fObP927dpltmzZYrZt22YqV65sSpYsuc+/okWLmkKFCgXhEjSHfCIgAZtPoHUaERABERABEchUAgjT9evXm59++smsXbvWvob+/NVXX5m///7b7N27NwtR4cKFs4QqP+/evdsUK1YsS9z+888/WX0Rr/vtt5+pWrWqOeKII0yVKlX2eWVbiRIlso7RD6lNoJDneV5qX4JmLwIiIAIiIAIiEBQCWEyXLVtmli5dapYsWWJfeY84rVixYjZx6YRmuXLlzOGHH25KlSplRSZW1pysqohizuUstr/88ovZunVrNpHsxPK6desMgrdSpUqmYcOGpm7duuaUU06x/8qXLx8UdJpHLghIwOYClrqKgAiIgAiIgAj8j8C///5rRerYsWPN77//bn9etWqVKVOmTJZARCjWrFnT1KhRw1pQ/3d0/v3EPH/44QezevVq89lnn2UJ6zVr1lhBzRyPOuoo06BBA9O2bVtr+c2/2elM8RCQgI2Hmo4RAREQAREQgQwkwKLtihUrzNy5c828efPMe++9Z5f+sWx26tQpy7LJMn4q+KTiW4ugxVo8efJkgysDvrYI2SZNmth/WGyLFy+egXc72JcsARvs+6PZiYAIiIAIiECBEvj2228NFtbly5eb+fPnmz/++MM0btw4S+DVq1fP7L///gU6x0SdHIHO9SLO3T/cEho1amRdD3ht2bJlSojzRDEJ6jgSsEG9M5qXCIiACIiACBQQgU2bNpk33njDCteFCxfa5fXLLrvMilaskwRTZUJD0GKVxeI8YcIEs2jRIpsJoXPnzoZ/tWvXzgQMgbxGCdhA3hZNSgREQAREQATyl8D27dvNW2+9ZcaNG2dmz55tsKwi0i6++GJz2GGH5e9kAno2gsamT59uhf20adNMtWrVzCWXXGI5HXPMMQGddXpOSwI2Pe+rrkoEREAEREAEciRAcBO+nw888ID1ba1evXqWIDv66KNzPD6TOyD4J02aZAX/rFmzzLHHHmvatWtn7rrrLgWB5cMHQwI2HyDrFCIgAiIgAiIQJAJkDHjppZfM0KFDbdDS6aefbh588EFz/PHHF8g0SbFVpEiRAjl3Ik66efNm8+ijj1oLNj/36NHDXH/99dbdIBHja4x9CaiU7L5MtEUEREAEREAE0pIAeVmvuuoqm3N14sSJZtCgQYYcqVgSC0q8ApqsBaFFDFIN/iGHHGKGDBlivv76a+s7TKYGiirgXoDfrFriCUjAJp6pRhQBERABERCBwBBAGN5///3m1FNPNWeeeaatWPXRRx8ZgrO6dOkSiICsjRs3mnSoq0TqsKZNm5opU6aYL7/80lAkoVmzZjaDwbBhw1JapAfmA/3/JyIXgqDdEc1HBERABERABBJAAP9WrKx33323oUrVbbfdZm644QZTtmzZBIye2CEoA/vXX39ZcZ3YkQt+NNJwjRw50tx7773m0EMPtQ8TBMZRHlctfgISsPGz05EiIAIiIAIiEDgCWDJnzJhhg4kQrgQVde/ePRCWVj9Y6Sxg3TXv3r3b+h0TMEelsvvuu88GfUnIOkK5e5X8zx0v9RYBERABERCBwBJYsGCBdRPo1q2brYz13Xff2WCiTMnbGtgbY4wpWrSoDe765ptv7CvW8Lp165qpU6emhftEfrOXgM1v4jqfCIiACIiACCSYAFWjTjrpJNOqVSvrg/n999+bvn37Kp1TgjknYjjK0t54442Ge3TppZeaq6++2gpZ3AzUYicgARs7K/UUAREQAREQgUARWLx4sRWtCNfKlStbUcTSNEvUasEmUKJECXPLLbfYe0Zp3uuuu85azXH7UMuZgARszozUQwREQAREQAQCQwAf1/nz51vh2qRJE1OzZk2zZs0a8/bbb9uo98BMVBOJiUCpUqXMU089ZYUsWQyOO+448+STT5o9e/bEdHymdlIQV6beeV23CIiACIhAyhDYuXOnmTt3rhWpCNX169fbZeh+/frZyPaUuRCfiWZCEJfPpe+zeebMmdZvuXTp0rbQRIMGDfbpow3GSMDqUyACIiACIiACASJA+iuCrz7//HP7b+zYsebnn382hx12mLW6tmzZ0mB5LVmyZIBmnbepSMBm50dKsYcfftg88sgj5rLLLjMPPfSQOfjgg7N3yvB3ErAZ/gHQ5YuACIiACOQvgT/++MPmZcXXkX9YU3n96aefzIcffmi2b99u/v77b1sZq06dOoYlZkqTUimLJeZ0bBKwke8qGQvIKEFRhGnTptkHl8g9M2+rBGzm3XNdsQiIgAiIQBII7NixI0uYOlHqRGqoUP3zzz9tSqVKlSpZqyqv7mcsb+3bt7d+raRdypQmAet/p/F5fu6558ztt99u/1GYokiRIv4HZMgeCdgMudG6TBEQAREQgfgI4H/qBKl7jSRMsZzuv//+VpSy3O+EqXsN3cZycLpaU+OhLAGbMzVcSjp16mQqVqxoxowZYw4//PCcD0rjHhKwaXxzdWkiIAIiIAL+BLB2IkgjidJQiymlQLF4IRycGHWvoaKUbeXKlUvLEqHLli0zJ5xwQtJEtwSs/+c0dA/We9JtTZ8+3bz88svWJzp0fyb9LAGbSXdb1yoCIiACGUCAkp1+wjRUrP7+++9WbFKf3glS9xouTA855JCMXrYlT+lpp51mHn300aSIWAnY3P1ivvLKKzZTwTXXXGMGDx4c6DLBubuy2HtLwMbOSj1FQAREQAQKkMA///xjNmzYENFiGipMN2/ebEVWhQoVchSm9JE/Yc43FbF/zjnn2CpfyRCxErA534PwHl9//bW9H6TbooQwn+VMahKwmXS3da0iIAIiEEACJGzfuHFjjsJ006ZNtmZ8+fLlswnTcGspVlS+zPFHVUscgWSKWAnY+O4TgYNXXnmlWbRokZk8ebIha0WmNAnYTLnTuk4REAERyGcCe/fuNYjO0ICnUN9Stx3xSqQ1/qNuCZ/XSMKU5f5Mis7P51uW4+mSJWIvuOACM2nSpLT0H84Rah478Ltz//3325yxuBaQxSITmgRsJtxlXaMIiIAIJJAAifZZpncC1L2GLuOzDWGKiD3ooIOyhGkkUYpYJUCqWLFiCZylhkoWgUSJWITXtm3b7Odo5cqVtoQqnwMyNBQurEr3ub1/b775prn88ssN1dnuuuuupPgq53ZOyewvAZtMuhpbBERABFKIAILit99+yyZMw0UpwhQ/VJb9y5QpE1WYIlb5V6JEiRSioKnGQiAeEUvWh/nz59tiDe+++65ZunSp/Rzx+SClGJ+/Xbt2WfF69NFHG6yyZ5xxhjnzzDOtdT6WeWV6H1Jtwa1hw4bmpZdeSqtqbeH3VgI2nIjei4AIiECaEUAYbNmyJSZhSgQ/QSFuKT+SxdQJ0wMOOCDNSOlyckMgVhGLn+YLL7xgHnzwQVthrHXr1uass86yablq1aplH4S+//57U7VqVUOaqNWrV5tVq1bZwKQpU6YY0pj179/f3HTTTaZs2bK5mWJG9mXlA8aUH6aCV7qWoJWAzciPty5aBEQgHQiELsH6LeOzHSsqpUlLlixpk59HEqXO55R9CFg1EYiFQDQRy+eT6lHDhg0z1atXNwMGDDDt2rWLmPWBzyaFIAjmCm2MgdX2nnvuMUuWLDFXXXWVefLJJ+ViEAopws88CLRt29aK/1mzZqWliJWAjXDjtUkEREAECpIAX9p//PFHlsU00jK+28aSa/HixX2FaahYRZiq+lNB3tn0PHckEYubCdHxX3zxhaH0aY8ePbJ99vCNfvvtt62PNML1iiuuMCNGjLD+0rinsAzO59o1fidGjRplBg4caH1lSeKf6ZWoHBu/V1ZTOnbsaC2x6ShiJWD97ry2i4AIiEASCGAZyclayn6WXQlqChWgblnfWUvde3xRJUyTcLM0ZMwEELFYV7G2rl271lr/sAAOHTrUilI30MSJE83MmTNtxgFcA4499lhrHXz//fetvyu/H+Q3xRJLNP15551ny6e64wn6uuGGG8zrr79uy6lmSsS9u/7cvqaziJWAze2nQf1FQAREIAKBnTt3WmHqLKNOpLpXtx3LKvlJIwnT8G1E70uYRoCtTYEl8PHHH5sWLVqYa6+9NlvVrm+++cZGx0+bNs1ceOGFdv/ZZ5+d5TLA7wSrCQhXrK1YDCmZim8sqdPIbxrqy8kDHkJ43Lhx1lobWCABmFi6ilgJ2AB8uDQFERCB4BLgSxXx6QSoE6S8hm7DMsSXL2mAnGXUvYYLU6UJCu791sziJ0DA1SWXXGJLmzZp0sTUrl3bkHKtd+/e1jKLSwH5SvkdCW8LFy40p59+etZmXA8oXUvmgkiN7ASMe+mll5o77rjDuhZE6qdt/0cgHUWsBKw+3SIgAhlJgKCmWIQp0fuUGsUK5ASpew0XpocccoiCSzLy06SLZmWBjAKUmyV9U+PGje17MgqsW7fOPPXUU6Zly5Yxg0LAkj6L8sEIXx4kp0+fbo/HPxb3hFatWpmnn37a9O3b1/raEiim5k8AEXvuuedaFw3cNFI9WFMC1v9ea48IiEAKEuALjwCSUEtpuLWU9+Q7ZXk+XJiGi1LEKqVLEbFqIiACkQmQHYDl/jlz5tjflTVr1lj/1iOOOMKKywMPPDDygT5bQwXsd999Z11ueOjs2rWreeedd8y3335rt3E46bU++ugjgxVX5YN9gP7/zbheIGJJgTd16tSUrmonARv9XmuvCIhAQAgQmUx+w5yEKaVLaRUqVMhmMY0kTOkTnrYnIJeraYhAyhB47rnnzC233GLztyJY8WHt1KmTLSNMoBY/k8c1Wrv++uutNdVV4AoVsFSWIlCRxtivvvqq/b394IMPrADDOov1ldyyo0ePjnYa7TPGVj9zeXjJ5uCYpxocCdhUu2OarwikGQHS6fz66685ClP68OXFMr3fEj7bEar42MkSk2YfFF1OIAnwO3nqqada14HBgwfbOZLv9fnnnzdfffWVFZhYY0855ZSo8+dBEn9X90DpBCyuCZwjvLnArhkzZthdY8aMMTfffLP56aefUtqqGH6dyXqP+xTVuni4GDJkSLJOk9Rxs2cMTuqpNLgIiEAmESB4A2toqMU0NOjJbceqSl8Cm8KF6YknnphtG8KU1FJqIiACwSAwb948u5w/d+5cOyGCGYcPH24GDRpk3XPYSDYNGkI0t1k1yAWLD2y4v2a9evVMly5dbKUpgsUQYuSIJU1X586d7fn0nz8BHvQp50vgHD/36dPHv3NA98gCG9Abo2mJQFAJIDbxH3UClFc/YcqyP6Ufw4Wpe+8spvwBDU1aHtRr17xEQASyEzjuuONMs2bNzLPPPmt33HrrreaTTz4x77333j5iFTcDVkYefvjhffb5WWDxaXc+sNnP/H++rytXrrQpt9h35513mrFjx1pf3PC+eh+ZAGnPCLx78cUX7UNA5F7B3CoBG8z7olmJQL4TQJgSce+EaSRRyj4CpPhSISjDCdBQQep+RpTyjxKRaiIgAulHgCV//g58+umnhtUSciHznvysTZs23eeCXcUuBBPL1qHW2GgCFjGMy0BowyeWB2T+xmAFxpL4ww8/mGOOOcb+jcK/XS02AuTm7dChgxWx3bp1i+2gAPSSgA3ATdAURCC/CeCTtmjRIvPjjz+aVatWGawYy5YtM0T5Ep1KiUa+GJwYda9uG6+lSpXK72nrfCIgAgEiMH/+fJv3lQdbxCjZAXr27GmFZKg4DZ2yn4j1E7CI1PCxeNjGnYisBxRFwAeXXLA0XAuo1EVpWrXYCdx+++22VO/nn3+eMiV6JWBjv7/qKQIpSwDfM4IiSJvC0zZLfHwBNGrUyNSsWdPma6xRo4Y5+uijs/zVUvZiNXEREIF8IYBvKis1LpDqmmuusf7sLEdHa5FEbLiARZxWq1bNjhdpLPxely9fbkvVjho1yj6Q0++2224zZCdgaVwtdgJ8RyD6SU+GRbto0aKxH1xAPQsX0Hl1WhEQgXwgsHnzZluthiAKltiWLFliSzg6N4E33njDVsaheg5Rwi7YIh+mplOIgAikOAEi/nnwdQ0L7LHHHuve+r4SsDl79mz7jxRZkbIM4AqA9RVra6R/rBjRsLjyd40+NFwZENVquSOAlXvo0KGGPLE8BKRCUxaCVLhLmqMI5JIArgGPPfaY9WniD/xDDz1kI3lLlCiRy5HUXQREQAQiE8DlqG7dulk7SYlHftFYmhOx+MP6idhw14FI4x5//PHGpeJjValKlSr7uBxEOk7b9iVAvMKbb75pHwoaNGhgi0bs2ys4WyRgg3MvNBMRyDMBcqXiE0ZQBaUW8VGrX79+nsfVACIgAulBAJ938rPmpZFJgGpOLPMTXEUVLKyxBHh++eWXNpcrfqk0ChmwJO3XSN907733WgvqW2+9lZUH1q8/AhnxS6NM7YoVKwwP5iNHjsxaRSIYFestwWSI7Hgbwpi0fW3atIl3iJQ7rmrVqrZQBKnITjjhBGvRDupFSMAG9c5oXiKQCwIswVF/HEd8fMPw/8opcXguhldXERCBNCHAQy3CLi8NAUsSfIoMIPKw2iGMaYjQtWvX2sAq3hMw+sorr0Q9HX749KMAAn+/olleCSjFOkjD1xW/frKiTJo0yYpn/HARrSyFc968CNjdu3dbcZxJAhaurVu3tpXV2rdvb+MlgupapiCuqL9W2ikCwSfw9ddfmx49ephvvvnGPPPMM6Zdu3bBn7RmKAIikPIEeEgm9yopmHiIptjAhx9+GJfVrkiRIva45s2b75NiKxoofF+xkiKg8b9duHChufjii83PP/8c7TDty4EADyY8TGDthmkQm4K4gnhXNCcRiJEAdazxAWOphz/gEq8xglM3ERCBPBMgnZ4LmMJqWr58+biLCHA8laEI7vLziY00YSr54S5A6j/an3/+qRR/kUDlchsPFLNmzbLpFV2WiVwOkfTuErBJR6wTiEDiCWDtoJrNjTfeaF5//XXz9NNP2wTiiT+TRhQBERCByATwNQ0VNwQB4aIQb3OBXbkRseSzxvLrAlTJSMC81PJOoHLlytYa3qtXL+uSkfcREzuCBGxieWo0EUg6AawN/EF58skn7ZeFrK5JR64TiIAIRCBAHlhyurp23XXXmc8++8y9jes1tyKWALFOnTplnYuiLJdffnnWe/2QNwIUpsDSfvfdd+dtoCQcLR/YJEDVkCKQLAK7du2yAQwEF7DcduSRRybrVBpXBERABKISIAsBeWDJNEAFP1fKlTR+pLPKTQsvZBCp2EH4ePi/kgXhueeeMxdddJF1JeD95MmTTePGjcO7632cBMj0QDrG999/377GOUzCD5MFNuFINaAIJIcAvl2tWrUy1B/nD4nEa3I4a1QREIHYCFC5D7eB0aNH2wOOOuooW9Xv2WefjW2AKL1CLbGPPPJIxJ5kP2BF6rzzzrP7eb9z506bISHiAdoYFwHiLMhwQ4YHMj4EpUnABuVOaB4iEIUAFo4WLVrY9DJLly61wRJRumuXCIiACCSdAIFXuBG8+uqrWdW0RowYYX3yXXBXXiaBiJ0zZ46h2EF4Q0iRAYEiLfjA0saPH2+oKkgAklpiCdxxxx2GFUAK5ASlyYUgKHdC8xABHwKUgyVpOFVmKP3qghV8umuzCIiACOQbAR6uscRi/WzatKk9L0UMyBVLntZoOV1DJxnuQhC6L9LP+NuOGzfOkIWAc+HOcNxxx9niBliC1RJPgOC6888/3+bsJcCroJsEbEHfAZ1fBKIQoLIN1gf8zMaOHWuKFi0apbd2iYAIiED+EyDQh4IC+L4iRMlJTaGDBx980OaojmVG+K7+8ssvUa2nY8aMMeS9rlOnji1zStEEHu5pVOjCQrh48eJYTqc+cRLA1/jAAw+0ZcrjHCJhh0nAJgylBhKBxBKgNGOzZs1sRZtRo0blWGIxsWfXaCIgAiIQGwH88ylq0KVLF1sWlqPIDoC4HD58uLniiityHAjf/uLFi0ft99tvv9kgIip9YX1FTNGownXZZZdZ8YoVVi15BL799ltb4IBy5RQ6KMgmH9iCpK9zi4APAZbDzjjjDGtVoFgBVg01ERABEQgigVKlSllBOWTIkKwytU2aNDF9+/Y1LPXjN0nu6mgtJ/HKsWReYVWqXLlyhlgAGiVor7rqKpuJQOI1GuHE7KPaWffu3U3//v0TM2AeRpGAzQM8HSoCySDw1VdfWfF6wQUXmGHDhkVdUkvG+TWmCIiACOSWABZY8q927NjRikqOf+CBB8zcuXNtMvy6devaaoG5HZf+rEa1adPGCid8bak6iCB2qbYQVV27do1naB0TBwFywr733nv2XxyHJ+wQCdiEodRAIpB3AsuWLbNWV5bDKFRQuLB+RfNOVSOIgAjkB4GhQ4daEYvfvstCcNppp5kPP/zQBnqdfPLJ1qcfSyo5XENb9erVzd69e7M2IVCp6kWKLAQqWQfws23ZsqW1wGLdbd68uS2lnZtgsawT6Ie4CVSoUMGm1eIe5GRZj/skMRwoH9gYIKmLCOQHAXyK8Bm7+eabbXqYWKN382NuOocIiIAIxEIAYdq5c2dreZ05c6b1jXXHsdxP2i2qdeF2QDAWUe3HHHOMad26tRWouAhMmzbN8DBPhgH6vPDCC6ZmzZpuGPPFF1/YtILsGzlypD2uR48eMWc8yBpIP8RNAL9nHiwoY+58keMeLM4DJWDjBKfDRCCRBBYuXGgtCyzN3HrrrYkcWmOJgAiIQL4SwFp60003mZdeesn07t3bBnaFpv9jP64FZCnAvx9rLa5T1apVM6Rn+uOPP+zfwbZt22ZLG/j3339bt4T//Oc/5tJLL7WrVFhtzzzzTIPPLdv14J9/t/qZZ56x95aHjoKI05CAzb97rTOJQEQCJOq+8MILrZ8YAQ9qIiACIpAOBLCitm/f3mzatMkKnWuvvdaWnI10bQggMhFEEkIIXoJZWbKmaAHps/C5dW3Lli3WnYDysf/9738lYh2YJL9yv8i5+/jjj9sMFEk+3T7Dy8FuHyTaIAL5R+Dtt982BGuxDCPxmn/cdSYREIHkEzjxxBNt3laqc1Fu9vDDD7eC9p133rFW1tAZ3H///dkCVrG24tvaq1cvU6VKFUM5WeICvvvuu2zilTEOOuggQ5J9fG2x/BakX2boNaX7z2SOuOuuu6zxpSCYywKb7p8wXV9gCRBNS7AWPlydOnUK7Dw1MREQARHIKwEEDiVnKfe6cuVKQy7X8uXLm/r165tKlSpZKy3BQfi9fv7557aoAQnzyV5w+umnmwEDBkS0zobOa9u2bTaOgGMwCigINpROcn7euXOnOfLII80rr7xi/ZmTc5bIo0rARuairSKQVAJYIwg6oLIMfl5qIiACIpBJBLCkTp8+3V4yFbjwiaWa1mGHHWZLw1KOFnGbW59WRCyZCwjwevbZZyVi8+FDRbq0WbNm5XtaLQnYfLi5OoUIhBIgopZMA1hgXRnE0P36WQREQAQyjcCECRNsNHtuBWskTtu3b7fWwOOPP948//zzErGRICVwGz7IRxxxhC000ahRowSOHH0oCdjofLRXBBJKAB+ugQMH2rQvWBvUREAEREAEjHUP8AviiocPmQzIGVujRg1bzlbuBPFQjP0YsudQZnby5MmxH5THnhKweQSow0UgVgKDBw+2gQgEMJDcW00EREAEROD/CETLQhAvI3KVtmrVyuaZJZCsSJEi8Q6l43IgsG7dOlO1alWzePFic9JJJ+XQOzG7lYUgMRw1igj4EiB4AasrqUbw85J49UWlHSIgAiKQMAIUS8DP9scff7QFFEIrfSXsJBk8EJki+E4jwI5UkLt377bW7vxCIgtsfpHWeTKSAOKVpZWxY8faNC/4ZKmJgAiIgAhkJ5AMC6w7A5HypCusWLGiGTVqVI7ZDNxxes1OgO+z5cuX24AtgrYWLFhgypYta8sDt2jRwr7COL+aBGx+kdZ5Mo4AJRWvv/56Q65XihVQZUZNBERABERgXwLJFLCcbdeuXTbjS7ly5Ww6r0gFE/adlbaQIQKxyj9y7eJbTPxG8+bN7T+MMokIvIuHtARsPNR0jAjkQGDPnj3m6quvtom4WWIhT56aCIiACIhAZALJFrCcFRHbrl07U6ZMGVtYYf/99488mQzeumPHDpsOy4nWVatW2Vy8TrA2bNjQFCtWLBCEJGADcRvSfxL4ylAOMBMa14l4XbFihc02QJLunFrRokUN/9REQAREIBMJ5IeAhSuZDjp06GBKlChhiypkemAXfsFLlizJsrJSzYyKabsRCrIAACAASURBVAhW3AKaNm1qDj744EB+JCVgA3lb0mtSLJ+T71QO9NHvK39U77jjDnPyyScX2JJM9BlqrwiIgAgkh0B+CVhmj0Hl7rvvtmVQS5cunZwLCvCoa9assYJ15syZNggLdzeEqrOykk2goNwCcoNNAjY3tNQ31wQQr1SaIgK/Y8eOEY9ftGiRufTSS23CaX6J/BoWTcYgHRURj35t69at9gmbaH8qhPj9IiKoe/fubUsajhs3zhxwwAERh8Rx/b777jPz5s0zb731VtSn0alTp5rbbrvNkJQ7WioRnN+x0hJQgE8W1129enWzevVqU7lyZdOmTRvrZ9S6dWsFHES8K9ooAiKQTgTyU8CmE7dYroXvRFzZnFsAWRlwBXCCtV69eqn5PeOpiUCSCMyePds74IADvFGjRvme4YMPPvDKly/vvfvuu7592PHFF194FStW9MaPHx+13++//+7Vq1fP69Onj/fvv//69t2zZ4932WWXeWeffbb3559/+vZjjL59+3p16tTxNm/e7NuPHW+++aZ36KGHekuXLo3ab86cOd4hhxzizZ8/3/ZbsWKFV7JkSfszc2GcVq1aecWLF/fKlCnjtW/f3hs2bJi3Zs2aqONqpwiIgAikKoEiRYp4//zzT75P/9dff7V/X6N9X+T7pPJ4wr///tt77733vLvuustr0KCBV7hwYe+4447zbrzxRm/KlCne9u3b83iGYBxugjENzSLdCLzxxhtWlAVVvF566aVekyZNCly8ct9DBWzo5wCR/fHHH3uDBg3yTj/9dK9QoUJW0DZq1Mi74oorvAcffNCbMGFCjuI/dEz9LAIiIAJBJFBQAhYxd9JJJ3n9+/ePavQIIjM3J8T3ypUrvSeffNIaP0qVKmUNQ5dccok3cuRIb+3ata5rWr1KwKbV7QzOxZQrV84bMGCA74QK0vLarVs3r2nTpt6OHTt855cflld3cj8B6/a7VyzAH330kffqq696AwcO9Dp16mSfqhG2PDCoiYAIiECqEigoAQuvTZs2pZyI3bhxo/faa69ZY8bhhx/uFStWzDvnnHO8Rx55xPvss8+8vXv3pupHIeZ5S8DGjEodc0OgRo0a3owZMyIeUpDitWvXrl6zZs0CI14BFKuAjQjT87xJkyZZa/eCBQv8umi7CIiACASaQEEKWMA4ETt58uTAcnr99de9W2+91Ypt3AJwbbv99tu9mTNnejt37gzsvJM1MQnYZJHN8HH9BGxBiVd8q7p06WKfUKP9ouen5dV9RPIqYBln6NChXtmyZa0YduPqVQREQARShUBBC1g47d692/4LIrMRI0Z4++23n4dbwJgxYzwssJneJGAz/ROQpOuPJGALUrx27tzZa968edSn1IIQr+BPhIBlnDvuuMOrUqWKt27duiTdVQ0rAiIgAskhEAQBG3plBNTynRCEhnjFr9UF/gZhTkGYgwRsEO5CGs4hXMAWtHht0aJFIMUrt37RokVe0aJF8/wp4I/tBRdcYEVsngfTACIgAiKQjwSCJmA7dOjg9evXr8BFrMSr/4dQAtafjfbkgUCogC1I8XrxxRd75557rrdr1y7fqykoyysT2rZtm/VnYmkoEW3q1KletWrVEjGUxhABERCBfCNAMCpL+EFpzie2ILMTSLxG/zQUjiUJrvqIQLwEFi5caGtPjx492pal8xtn2bJltlrXk08+aS6++GK/bmbLli12nMaNG9viCH5FCijn2qVLF7N9+3YzadIkU7x48YhjUqSgf//+hooks2fPtkUFInY0xkycONFcd9115p133rHVsvz6kTC6U6dO5o033rDFCPz6bdu2zV5zzZo1TaJqclMWkYTgaiIgAiKQSgQGDRqUsL+DibjuQw45xH4n8PeeCol8V+Rne/HFF02fPn1sOfKzzjorP0+dOueKrm+1VwTiI4AF9rHHHiuQIgU8xXfs2NE7//zzA2t53bJli3fqqad6N9xwg/fll19mFTKIj/b/jpo+fbpXs2bN/23QTyIgAiIgAnETKAhL7P333+/hUjFv3ry4550JB8qFIBPucgFcI8FEVJHK7wpbiFd8l1q2bOn99ddfvldekG4DiNf69et7vXv3tv5ViQri4mIlYH1vuXaIgAiIQFwE8kvEkrv15ptvtpUa33///bjmmkkHaa0xdYzlKTXTnTt3mr59+8bkNvDEE08kzG2gc+fO5u+//7bL/cWKFYvIrCDdBpwLxOmnn27++9//Gj8XiIgT10YREAEREIF8J+DcCc455xx77oceeijhf7v/+usvc/nll5slS5aYDz/80FSrVi3frzPVTigBm2p3LEXmyy983bp1fWfrfF4Rr/iL+rWtW7fG5PO6e/dug3jds2ePefPNN00ixOtbb72VUJ/X33//3TRv3tz6xT722GMJ/wPox1DbRUAEREAE8kYgmSIWw8aFF15oMPwgXitUqJC3yWbI0QriypAbHaTLzI14RfBhrXz88cd9BR/iFRGMeH399dejitcBAwbEFLCFeO3Vq1eOAVvz5s2zwjmngC3EK0/vTZo0MRKvQfo0ai4iIAIiEBsBJ2KnT59u7rzzzoQEdv3000/mjDPOMKVKlTLz58+XeI3tVtheErC5gKWueScQj3iNttSOeCVrAW4BiMhollfE64wZM3LMNoB47dmzp+GP1Mknn+x70YhXzj1hwoSo2QZ+++0306xZMytgH330UV8h7nsi7RABERABEQgEAUTsnDlzzNtvv51nEUuGgxo1apjjjjvOTJ482RxwwAGBuMZUmYQEbKrcqTSYZzLE60UXXWQFISKyaNGiESkhbp145Q9PuXLlIvZjoxOv/GE55ZRTfPs58YrF9+yzz/btt3nzZitezz33XDNkyBCJV19S2iECIiACqUEgryJ2165dpnfv3tYA8tRTT9mVQ6U/zP29lw9s7pnpiDgIJFq8EqiFeOWXfty4cYEUr5s2bbLitXXr1ubBBx/0Fa9cy969e+OgqkNEQAREQAQKgoATsayu0aL9jQ+dH9+F5CgvWbKkWbp0qYK1QuHk8mdZYHMJTN1zTyAZ4rVDhw426fX48eMDKV5//fVX07RpU9OmTZuof9iIPL3pppus/27uyeoIERABERCBgiLgRGws7gT//vuvIWj5tNNOswFbFPlRpoG83TlZYPPGT0fnQCBZ4pXKWmPHjvWt3FKQbgNOvLZr185QXcYvVRbiFSHOk7if+0MOeLVbBERABESgAAk4ERvNEvvjjz/aDDRkGXj33Xdt0FYBTjltTi0LbNrcyuBdyPfff29LpcaSKstlG4gWsIXga9++vSlRokRgxevGjRttpgGEaSziFad9+cYG77OrGYmACIhArASciMUSO3Xq1KzDcA2jPHrt2rVN9erVzWeffSbxmkUn7z/IApt3hhohAgHEJmlGhg4dmmOe11jFKxbN0qVLm9deey2QltcNGzZYtwFSet1zzz0RqPzfJmd5RbxyLd98841vX+0QAREQAREIPgFE7Keffpo10eXLl5vu3bsbAnknTZpk4yGyduqHhBCQBTYhGDVIOIHt27fbVFQ5FSnIjXg98MADzZgxYwIpXtevX28trxRTyI143X///cPR6b0IiIAIiEAKEuDvOVbXgQMHmvr165szzzzTIGSde0EKXlKgpywBG+jbk7qTo5LIWWed5XsBVNiKRbySbqRt27ambNmy1lrpl2qkIH1ef/nlFyteu3btau6++27fa3aWV3xeo1mRfQfQDhEQAREQgUAS4DuINIyHH364mTZtmi3Aw/cVLm9qySEgF4LkcNWoUQjkVryyNPPKK6/YlFmRhi1I8frzzz9b8XrFFVeYO+64I9L07LZQ8RrNiuw7gHaIgAiIgAgEkgDlX/v162dWrlxpMGRQbXHbtm3W8koQb6wptgJ5cQGeVK4ELF/Wzz//vOGVdtJJJ9lymwUZQT169GhDHs0rr7zSFC4sg3KAP2t2arGKV6I1sbxiyX355ZcDKV7XrVtnxevVV19t+vfv74te4tUXjXaIgAiIQMoSQLBiuJg1a5a55ZZbrOW1TJky9npcYBfuA1SIjOZalrIACnriXoxtzJgxXrFixbxChQp5xhj7r3Dhwl7lypW933//PcZREtvt77//tvPYb7/9vF9++SWxg2u0PBGoUaOGN2PGjGxjbNmyxatXr5530003ef/++2+2faFvduzY4TVr1szr2rWr988//4TuyvYzY/Tr18876aSTvM2bN2fbF/5m4sSJXoUKFbwlS5aE78r2fu7cud4hhxzizZs3L9v28Ddr1671qlat6g0ZMiR8V7b3u3bt8lq2bOl17NjR2717d7Z97s2KFSu8kiVLurd5ep0+fbpXs2bNPI2hg0VABERABPwJLF++3Lv88sutJurVq1dU/bFp0ybvhRde8B9Me+ImUIgjcxLR1JvHb4+uNWvWNLVq1bLR4K+++qrd1rdvX2sid+Ps2bPH5r4sUqSI25Tt9Z9//rEWtfD8mBzHOfAbCd8XOgB9XF/8S3i6+e6778xhhx1mu+FE7cYJPU4/5x8Bnj6POuoow6trixcvtp8b6j5Hu7+kGuGzc8IJJ0TtR249VgPq1asXNY8qVl/GrFu3riEQzK/9+eefhjnWqVPHHHzwwX7dDAmpP/jgA1OlShVz9NFH+/ZjB3lw6X/iiSf6rhCw1LRo0SLTokWLqGPFspPqXz/99JMhF62aCIiACIhA4gh88sknhlSPlC5v3LixeeGFF1SMIHF4cz1STAKWIJWqVasalkLJc9ayZUt7ouuvv94899xzpnLlyvZLkzrzmNH50kagNGjQwFAp6aCDDrLuBmvWrLF9WXplP3ky77rrLsN2fAgXLFhgxyW9EM7QBPmEN/wHb731VkPKImra//7774ak9ghYRG2PHj0MdexpxxxzjE3jlAhhED4PvY9O4IgjjrDVRo4//visjmvXrrWiL5p4pTMCDEf4nFxCEGt8Vni4itZ27NhhCAYLFdOR+vP5RuxWrFgx0u6sbTwccS1HHnlk1ja/H7iWSpUqWUHu14cHOgRxkyZN/LrEvP3LL7+0eQh/+OGHmI9RRxEQAREQgcgEMIhNnjzZCldKv+KuSPXEeKpoUXzn22+/tbonp+/ByLPR1lACMQlYvmARiXxx848nD0pkYo3F3wORwpc/Qja8ET3OUwvWNPrQECZYpWgk/cXB+eOPP862DyssSeFDLWGzZ882rVq1MliEQxtWWD4UJAvesmVL6C6bcunrr7/O0VKW7SC9yTMBrKwkcD733HPzPFYmDIBw5neKP2r4dfMA4Nqll15qH9Bef/11K+zd9kivPLzxgIdvlpoIiIAIiEB8BFjFIngYIx2ao3fv3uaaa66xBrn4RjQ2J6wrMf7AAw9EXWGM9xyZdFxMUU/kNqP8GeIVsYi1aMCAAeaCCy4wffr0scIUEUrDIjZu3Dibr5P3fDG/99579kZhKRs8eLBhqZbgHNqSJUuyvmx5onFCFmvqb7/9Zvu4/x566CH7QTr//PMNorpXr17WfYD9LP1iaaM9/PDDWVZY+lHpSE0EgkwAazK/C0SzdunSxf6uuflOmTLFJsjGmqsmAiIgAiKQHALojunTp5tLLrnEGgsoxIO2YZUYV0lWk/PSWAWcO3euNdyx+oymUoufQEwCFsj48FEa9JlnnrH5zZy/6eeff26fSrgpNEQkydz5EnYN8UvDqor7ASIYK65r+CZilWX8M844w/opkoYi3ESPmwBjkKaCV4QpApWGlZcPH42IcESuayNGjHA/6lUEAksAv1+Wq1imevHFF7PN08+fPFsnvREBERABEcgVAfQNxgOMcbiuYWUlvoG/w2gOxGwiC85IxObq9kTtHJOAZUnz0EMPtT6tV111lbXAYg0aNWqUFaMsWzqXAIJkWP7kn3MpCBWTzu/DvTK74cOHW+FKmVCELCmUbrvtNmv1jTZ70neFPsG4n935+RAyppaxo1HUvqAQcL9DLFfxx9SlqwvK/DQPERABEUgHAhi+Fi5caGNviO+h6A7xNBSYIb7hkUcesW6PybpWidjEkI1JwBKEgg8sy5xE3f3xxx/WDYBgLT4IuAYQuU3jw7B69WrrFkB+VhoBNH4NFwMsrbgZ8IEiWhxLKmJ05syZ2Q7Dx5V9zIEveay+LoCnevXq9ikJ6y4R3USoN2zY0M5VS6/ZMOpNgAnwYMdnmt+Zbt26ZXtAC/C0NTUREAERCCwB9ARxAcRlEGtAbA0ukASUX3vttTbeBn/Xc845J2rAbSIvUCI27zRjKmSA0zFBWJjZyTzAP2ft5JVE7vijvvHGG1aAInZZ4seiFO4uED5lgsBq1KhhCLQiGMxZZlkyPfvss7N1v/fee61/yvvvv5/l+0oHzuE+eHzx496AyR9xjZUWa66aCKQCAT7/rEiw0oE/OKnq1ERABERABGIjgCbBirp8+XJDVpaJEydag9b27dvtSi9a4b777rNGt5wy3cR2xvh7ORGLxqIpsCt3LGOywPKliptAp06drCh0N52ALapQPProozYjwX/+85+ss2MpZQmfmsC8Iiax3JYqVcr24cbRyFLAU5FrfPgQn/ja8qQU2urXr2/zr3Fe1xC6jM02UnzhMkBjG+4MzIkobjURSBUC+JDzB43PMA+LbiUjVeaveYqACIhAsgmQ1eirr76yGgOXKyyprLpiFCOFJoYrjG4Y31i1JUMRq7oEY51yyik5pmlM9vzd+E7EkpFJgV2OSmyvMaXRCh0KqyrBVhQP8MvViasBQtRlGuB45xbgnKHZzxc07xHIjMsXNX5/JIePFrRCX6ICydfJPGhYfF3DCksKLnxhndh2+/SaPwSURit3nL/55htrEeCPMoFc/A4de+yx1lWHzzurGvPmzTOnnXZa1IGVRisqHu0UARGIgwDf1whAluGxbpKDPdFt/fr1dlzcA9EG7pWfyUXP30QyGPHdjwahPyus5ONmfu3atbNiFVdDUnzyNzOV2ubNm63hAsOdLLGx3bn/qb7Y+ltByBdrtFa+fPl9docKTHYiWvnwuYbQxBUgp7HpT198bf0a41AFSk0EUpUAv0MvvfSSzbjBg13470+qXpfmLQIikDoEKIhCFh9WSRGPrKDio5/XdFKRCCBIEaMYtfiHPnCvLP/zvU6WIgocYWHF0IW7YLoYqZwlVu4EkT4dkbflWsBGHkZbRUAE8koAy2toa9++vTnvvPOsawxWWDUREAERyA8CWDRvv/128/jjj1tXPkQswjG0sFB+zCPTziERm7s7LgGbO17qLQJJIUCaOlK5hFs2yAd7+eWX26wEsZSuTcrkNKgIiEDGEMCNqXXr1jaw+qOPPrLpMzPm4gNwoRKxsd+EuAUsFYPw22vbtq0NxHKnJB0WPiqY+qMt89MfHxfKY/JUF5or1o2lVxHIFAIEHLqCH6HXzO8Gzv1qIiACIpAfBLC8Er1PkSLiTNTyn4BEbGzMY8pCEGmo7t2721Q/oblayanGMsOVV15pc7pGOi5026pVq2wi4Q4dOoRuTrmfWW6hTjLRj+HLwCl3MZqwCIiACIhARhJ4+umnre/9ggULJF4L+BPgRCwGjEGDBhXwbIJ5+rgFLD554c7Tzz77rI0ebNasWcypq3DSRgCmcsP5fNiwYQZH81S/llS+D5q7CIiACIhAfAT47iLt5HXXXWcoDKRW8ASciKWYlNq+BGIWsKSw6Nq1q43up+rWjh07so02btw4m4+N9BpU16JKFm369OmmZcuWpkWLFjZFBtkBsFbiZxPevv32W1t3mAhD+pEyiGTuNPfLRXoM9uGiQMUtGiXgbrjhBpvBgH0kgSfnLCIb/8EmTZrYcd2Y48ePt5Zf3hPxN2XKlKxzPP/88zadEfs4DjcJ2pgxY6ybAzk6KbzAfizNRGaS8gIxT2YFUnmQ4iO3DRE8duxYw5OvmgiIgAiIgAjkJwEsfXxvkuRfLTgEELHXXHNNcCYUpJl4MbS//vrLq1q1qleoUCFMpVn/9t9/f2/8+PHegAEDsra5/UWKFPGmTp3q9e7de5999Gnfvr33+eefeyVKlPCKFy/ubd++PWK/kiVLemvXrvWGDBmSbT9z4bhvv/3WK1asWLZ9bg6//fZbxO1uf+jrli1bvC5duuzTv2jRonaeHTp02Gcfc+jVq5dXoUIFr3Dhwln733333Rypbty40ZswYYJ3xRVXeJUqVbLXwHWcf/75OR6bCh1q1KjhzZgxIxWmmlZznD59ulezZs20uiZdjAiIQPIJnHPOOd65556b/BPpDHET+Pjjj72ePXt6e/bsiXuMdDowJgvs6NGjzXfffWcTA7/11lu24gUinCICFCjAaklr0KCBYT9VLrB+9uzZM5tWHzlypA3aYiPl3bC4usZxrlEylnKxNKyaixcvNv369bO5MLHefvbZZ4ZE+VhxsQq7SkUcRzUuqnKRN5MynFhGKYqA5RaLLXNmW+XKlc3SpUvtOUh4PGvWLFsKlw1EYPI0ipWVQDOqjbnG8R988IG14HKOoUOHmjlz5thxmSuVQShVF95+++03e808SVFggepklOAdNWqUTdLMNbjrCD9W70VABERABEQgmQT4PrvggguSeQqNnUcCJ510klm9erXVVnJXNCamLASffPKJxY4rwIUXXmj/zZgxw1bCINExIpaGQGQJ3TWqarn8lSy9s+ROo4LXr7/+alasWOG62l+cG2+80eBEjhDlH42bxA0jShsf04cfftgmNCZie/bs2WbSpElZY7hj3AbmSCP5MuOeeuqpWeOQnujkk082JIxnXMQ04hTBSvlb/rmGG4QLNMM94fTTTzcI0jfffNMGbYXmxiPzQqhv8Msvv2yXZMjMwDxwOXCNc4U3RLU7V/i+vLzfsGGDvdZ4KqjwQPDf//43qzrazTffbJm5+XTs2DEriwQPHohyXCLIIThhwgTXLdevPBAMHDjQJrfm4Oeee86WBnQDnXjiieamm26yb6nUcs8992R93lyfeF+7dOli8OWm8SA0f/78rKFy4pHVMY4fKJfsHvz4fRo+fHjWKDnxoONPP/1kH4h4OMpNIwCR+0XDXYiShu73mm2hPPi9w90lnsaD8OTJk23AYzzH6xgREIHkEOC7R2XXk8M2UaNibOPvJ0YySuXis8z3Qqa2mASsE1qhFbaoioG4dALVD6CDS/UO18h1iaAKbQgfRGZ440uUyH53HkQmjVeEMOXX/FqosHTzcH3DKxtxDkrW5dTI15mbhuWXzAxYeMnSgBBHxLrrCR8LNgjkRDdK61Lat2zZsrkeGuEdyq9Ro0bZBCyWate4J+zHEl6rVi1DWb94Gw8CofNlLHf/GRNfaddKly5tz+vH1fWL9RUruWv4PLvfAbblxMMdF89raPAEVWZg6VpOPOi3fPlymwIn9Dh3fLRXPpeuIdA5PlTAhvLg59yO78bm2NC/BW67XkVABAqWAN/nuf1+K9gZZ+bZ+f7BqHbZZZeZbdu2ZfuOzDgisfhDDB482Pp4Hnnkkd7OnTvtv1KlSlkf1Keeesq+4g+7aNEiD39ZfF+df6nzga1Vq5b377//ehs2bPDwK8Xf8/nnn8/yge3WrZs9Bl/STz75xFu/fr2HH+0BBxzgPfPMMx6+sIyJjx+tc+fO9v1RRx1lX5nbjh07vF27dnktWrSw21588UU77zJlynhz5syxx5UvX96eO/w914E/7n777Wf9arkOjuecBx98sOd8YO+99147zuTJk73SpUvb8X/++Wd7LHPHl9evbd261c7/1ltv9WrXru3B7MADD7TndLzkA+tHT9tjISAf2FgoqY8IiEA4gSpVqngLFiwI36z3IhBYAjH5wF500UXW8oUFkSVoLChuKZwnNvwysF7iA0vEHEvKWOxYDnVt5cqVdmkd31WsWVjMyGbgGhZdGha0xo0b2xrHWEXxc+Xf8ccfb/fjxsAyPVkPaNdee60d98cff7S+r6SbcBkQqlWrZvvE8h99uS6sTscee6xhHJZyuY6crE3MfdeuXbYvliyql0RqLNNSsAGzP5Yynp7IgMByLe4N1H6Gi5oIiIAIiIAIiIAI5EQAzYRbVyb6xMYkYBGMb7zxhiFnK0LNNYKOCJB64okn3CYrbBGzHEOgVngjxRYi+J133rGCEzHLcv6AAQOyurpgJgQlIvaLL74wr732mnUZoBNpqjgvfnkcF+rvt2XLFiskSQVCGi5u6s6dO+05OBaRyPycC4F7z7nwdXSN1FycG18T/Fi5dsQs56Xx6q6fZf8zzzzT9mdfqG+vGy/SK8KX8qH4buLvSGqy0DlEOkbbREAEREAEREAERAACaJxbbrnFxotkmoiNyQcWSFg+CRAhoAoxh6UVP1YyDuCXyFMAVlasilgR8VcM9ZvEXwOLJn58WF7dMVgr6X/00UdbyyyO5AhH/P+w7lLODoso/pucnwwEWGQpced8IAl0QUQjdLmBrj/zZhsCtm7duvbTTjAOAViR3iNqOTfWUcQkwhQfVtqTTz5pCDJzlmDy2lI211lMGZe5c81YpONpTlTHc2wqHsNnhvvFZyL0s8K1RNuXiteqOYuACIiACIhAoglgTCMTkgs6vv/++/f5Pk30OYMyXswClgkjWvnnGqLTNQSIE3duW+gr4qxhw4ahm6xwCXUzQBjjhhDaQpfvOQeCOVLDgho+Pv1OOOGEbN0Rt/xzLfw9YiqSAEVA88815oqF1zXm5kSx26ZXfwJkDSCghweGbt26ZbM8Y+UnzRgPGvXq1TMuC4b/aNojAiIgAiIgAplJgAD7TBSxMbkQ5OUjgQDBvzRcmOZlTB2b+gSwcDu/Z9xTQl1TcC9xPtakdFITAREQAREQARHwJ+BELHE1pJ/MBHeCpAtY8srhdkCwlZoIhBLATYCGTzJ5fV0bMWKE9S8Odytw+/UqAiIgAiIgAiKQnUCmidi4Bawr1IGoggAAErtJREFURBCaKzI7yvjfkfR/2bJl2QbA//Xrr7+O+FRB/eYvv/zS+q1mO0hvUoIAbgRUaaNheXViVgI2JW6fJikCIiACIhAQApkkYuMWsOeee671L6XkaiIbUfgEZ+GHSuYB1/CvJTE+Ija89e3b11CV6YEHHgjfpfcpQAC/Ywo94EZABTRnmU2BqWuKIiACIiACIhAoApkiYuMWsIgNot9Y/k1UI+OAKzfLmJdffnmWJZZ0W2QuiHQ+0lnh7+HSbyVqPhon+QQQr2Sc4P5ieX3hhRfsSXOTwzf5s9QZREAEREAERCB1CGSCiI05CwHi8Nlnn7UR4dTjRXC4Rr379evXm+7du9vcrhQVIDCHDAPkRw1vn376qRk2bJhdLqZgADnMKEG6fft2a3lFjLJ8zDkZF+sqje3UYH/ooYdsLfXrrrsua1/oOcgTS9or3Bwoi4kQPuOMM0K76OcAEbjiiivMgw8+aJ566ikzb948O7MOHTqYRx55JECz1FREQAREQAREIHUIOBGbrim2YhKwLOmSMgoLaWhzeUuvueYa639KpgH64VZw++23W9FIrtTQhpXtggsuyCaACdrBh5Wk/uGN/LHObYD8r4MHD87qgrtB+JzwlaWIQmijEAHnQMiqBY9A165d7UOJE69NmzbN7PrOwbtFmpEIiIAIiEAKEkhnERuTC8Hbb79tk/vjMoCV1aU/whLrGnlRQxsW1PA0Dgjhzp0723KtWGdfeuklm1cWy+sNN9yQdTi5Xx9//HH7nnRLrjSrC+pp166doSQtBQqw1IW2/v37Z73lHJRuJdCsR48etgBC1k79EBgCFIsgJ6xryljhSOhVBERABERABPJGwInYdEuxFZOAnTt3rk04T+AWPopEilPQINSNIBa8ZBdwvqwEaLF0jBUVCxzW0YsvvtgWGSD355133mmHRPQSpU5DODMXStQ+9thjhuIFVP9yjb64MzihSwJ8corScEf4+OOPXVe9BoBA6OcH32fK+vJQ1Lp166zZuXuZtUE/iIAIiIAIiIAI5IpAOorYmFwIKA9Lc4E1BN6UK1fObN26NSLASIFWdET4YpVlv6uG1bx5c+sri68rrgehCe05BlHqGse6SmDOTSDUysvP9MdSHCm9F9vVgkHgqKOOMk8//bQ58MAD7YRuvvlme2+xrOO3zMMMDyzVq1cPxoQ1CxEQAREQARFIYQJOxKaLT2xMApYAKyxhCxYssAIUkUiZT4RsaKM8KG3+/PnZhKfrU7Zs2aztWE5JjfXEE0+Y2267zYoXxCtjEiyGQG3btm2WNdWNQQAY5WGxrmKZLVWqlNtl++LKwBgDBgwwWIwRzVh62V6jRo2svvqhYAlwP3r27Jk1CYTs9ddfn/WeMsW9e/fOeq8fREAEREAEREAE8kbAiVhWvTFOostStWVXoD5XceGFF1qr5vLly82pp55qCN7avHmzfeUQgBBghT8qde3xs4jUjjzySCtasY7Wrl3b+r3efffdtquzrCKOR48ebVq0aGGtsQhnZ2VF4F511VXW/xWfViy5iFTXEK742NLv/vvvN+edd57p06eP2bBhgyG4K1TsumP0KgIiIAIiIAIiIAKZQgDNNn369JQWr9yrQp5ThzncuSFDhhjEZqjfIoJx/PjxVrxSMja8EU0+Z86cbJs/++wzc8opp1hrKadmDPweJ02aZEVrts7//w0idPjw4TZoy+1H2LLcvHDhQtOvXz+bZQBLLtkPKlSo4LrZV3wrx40bZwj+UssfAgcffLB9sClTpkyeT8iDE9Zz7mOkxkPPunXrDCnZXGaMSP3YtnHjRus7Xbp0ab8udjtPpnzW+UWP1rDw869ixYrRutmHLVYoeIiL1riWn3/+2Rx66KG+18vx/O4wHpxdUCXbebDkYe3kk0+OdhrtEwEREIFsBKh+SfrL0BiEbB30Ji0J8J1DBiD0WqrFnMQsYLlz77//vlm6dKn9YqVSFhkCGjdubL9A+fDjOkCxgSZNmpgffvjB+syyFBze+MIn2IoSsAiEjh072jERIQhZXAOoxsXYuApgrcWKiqjgH3lmsdi2b9/enhv/WUROnTp1rHjFMku6ru+++84KGn4hcxIO4XPU+7wRwMeV4DzuSV5bly5dDA9QVapU2Wco7jUZK/Bvxo82mp8zf5w/+OADc++990Z98iQ12zPPPGOo8BbNB3f16tU2Vy0ZNKJdJ77igwYNMmTX4LPu11iZIH8x18TDmJ8Y5w8OaeHWrl1r7rrrLvsA6MbExWbUqFF2/m6bXkVABEQgJwJ8j7KyyXe4WuYQQG9h8GCl/b777kstEYsFVk0EEk2gRo0a3owZMxIybPHixb1Vq1btM9Zff/3ltWnTxmvXrp23e/fuffaHbrjnnnu8WrVqeRs2bAjdvM/P06dP98qXL+99+OGH++wL3fDRRx/ZfvSP1jgf5+X80Rrzb9++vde6dWuP6/Jre/fu9Xr06OE1atTI2759+z7dmE/NmjX32a4NIiACIiACIhCJwMaNG73atWt7AwcO9P79999IXQK5LSYf2Mx5FtGVpgoB0qJddNFF1kqJG0t4HmJ3HSy133PPPXZpjBRsLM37NXyCcGyfPHmyadiwoV83m46NYhwUyCDPsF/DXYFlGeaJ1dev4arQqVMna3nFSuxnAcHySvU5VhtmzJhhcnKD8DuftouACIiACIiAI4DbJe6eb731lnXXdNuD/hpTFoKgX4Tml1kEciNe8dvGLQXxGu4bHUqNYh3koiUAkWpyfo1cwskQr4jT119/XeLVD7y2i4AIiIAIJI0A34+4ieLimSpNAjZV7pTmaQnkRrziH0puYcRrtGCsadOm2ewW9KUcsl9Lhngl3y0N8RotSC1Wy+vs2bOtv7jfNWi7CIiACIiACEQiQEotl1aL71q+k4Ic2CUXgkh3UdsCSSA34vWOO+4wCNOcxCui9eqrr7Z981u84lrAHwcCGhMhXnFpIIDroIMOCuT906REQAREQARSgwCpSAmgjlQUKihXIAEblDuheUQlgJ9orD6v/fv3tz6iiFeXXzjS4Pi6du/e3YpX8hv7tURbXhHiZCMgY0IixSuiffDgwb5uCH7Xp+0iIAIiIAIiEErgzjvvtAWrcK0jU0EQmwRsEO+K5pSNAIFYN910U0wBW6S+mjVrlmEpnXLHfg3xeu211xp8X+vXr+/XLeEBW4hXCn4QdBYt+Cw3AVtYXhGvOOFHSjXme3HaIQIiIAIiIAIRCJBfnPgR8pJj6OE7KWhNAjZod0Tz2YcAeVHJiRpN8CFyyZ1KQuacxCuRlohXsg7Uq1dvn/O5DcmwvCJeKdxBYQ2/zAnxilcKe6iJgAiIgAiIQCIIlCxZ0saRfP/99zZHcNBErARsIu6yxkgqAcQrxQr8BB/ilSIGCxYssNZXqlP5tYkTJ5qePXuad955x9StW9evW8Itr5RapvAGfxDGjh3rey0Sr763RDtEQAREQATymcABBxxgVypXrVplrr/+elsFMp+n4Hs6CVhfNNoRFAKUG44mXnEv+PDDD614jRbA9Oabb5pevXpZ8Uo5Y7+WaMsr4pUyxvwheO2113yvReLV745ouwiIgAiIQEERKFWqlF2xpEpl7969AyNiJWAL6hOh8+aZAJbXG2+80SxevNiKV5f+I9LAFAjg6ZECAAUhXsuUKWPGjBkj8Rrp5mibCIiACIhAoAkceOCB9vtz0aJF5pZbbgmEiJWADfRHRpPzI4C1EkG6ZMkS8+677xoEol8jx+oNN9xgf/mo+ezXEm153bVrl2nbtq3Nqzd69Gjrxxvp3LK8RqKibSIgAiIgAkEiwPfszJkzrbseAdMYkQqyScAWJH2dOy4CTryynJGTeCVNFUse9KtTp47v+ZIlXsmE8Oqrr0q8+pLXDhEQAREQgVQhwEqny/RD9puCFLGqxJUqnxrN0xJAvOLHumLFCitKS5cu7UuGrAV9+vSx/U488UTffrGK119//dU0bdrU5qO99957fcdzlleqf5HiiiC0SM0J8eXLl1vrcLRrCU2VFS3bAMs7zFNNBERABERABJJBgEBpRGyjRo3Mli1bzPPPP5+M0+Q4ZuRv1hwPUwcRyH8CCL4ePXqYr776ygZiRRN8pKkiMwHLHSeccILvZJ14pYLV+eef79sPUdikSZMcxevOnTut28Chhx5qxSvFCiI1J16XLVuW47XEKl6nTJlinnjiCVXiigRc20RABERABBJGgCJBBV26XC4ECbudGiiZBBB811xzjfn6669zFHwES+FkzhNirOK1ZcuWvtPPjXht06aNOeyww3IlXnGO92uvvPJKVpGCaJZXxCt87rvvPkMCajUREAEREAERSCaBI444wkSrYpnMczO2LLDJJqzx80wAHxvK2rFUQfEBUnr4NdJU3X777dbyWrt2bb9uWXlesbwmUrxWrlzZjBw50paJjXTycMtrTuJ1wIABtsJWLOKVqmKbNm2KdFptEwEREAEREIG0IiALbFrdzvS8mD179thydgi0aOKVSH/EK5bX/BSvO3bsMK1bt7ZlXAtSvEarKpaenwxdlQiIgAiIQKYSkIDN1Duf5OveunWrWbduXULOQiEDnMQpBODXiPTv16+f9ck5/vjj/bol3PLqxOuRRx5pXnzxxQKzvEq8+t5y7RABERABEUhDAhKwaXhTg3BJBDwNGjTIrF+/Ps/TIRCKEqx+DT/R/v37W/Faq1Ytv25JEa+tWrUyRx99tMSrL3XtEAEREAEREIHEE5CATTxTjWiMLZl6xhlnGATeH3/8kTQmROg7P9GaNWv6nic020AifF7//PNP6zt77LHHmhEjRhisxJFaMnxep06dagO2cKmQ5TUSdW0TAREQARFIdwKRv3XT/ap1fUkngKDDH/Sggw4yHTt2NLt37074OV966SUb3DVnzhwTLcgpWeK1evXqZvjw4fkuXrt3726mTZsm8ZrwT5QGFAEREAERSBUCErCpcqdScJ5FixY1EydONBs2bDDt27c3X3zxhSEgKxENcTxw4MAcI/QTLV6xJpMvFsE8bNiwAhOv9evXj4iRB4VkPCxEPJk2ioAIiIAIiEABEVAarQICnymnpXbyO++8Y04++WRzyimnWMFXo0YNg68qS/68HnXUUTaXXKFChWLCQrAUlbDmzp1rsIL6tWSJV4LEhg4dGjjxSgWwRx55xHdefpy0XQREQAREQARSjYAEbKrdsRScb6VKlczGjRut9XXNmjVm5cqVZtWqVfYVf05KqVJ29bzzzrPWzebNmxvqLUdq+JuSrB/xWq1atUhd7LZEi9ft27fbuVGS9tlnn/UVicnyeXVuA36WV1e+lvN/+umnvly0QwREQAREQATSgoCnJgIFTOCvv/7yZs2a5d1yyy3ecccd5xUqVMirU6eON3LkSG/r1q1e8eLFvVWrVnnDhw/3Kleu7K1evTrqjD/66COvfPny3ttvvx2138aNG71atWp599xzT9R+27Zt8xo2bOj16tXL27t3r29f9vXs2dNr1KiRxzHR2ssvv+xVqlTJXle0flOmTPEqVKjgLV682Lfbzp07vebNm3unnXZajuf1HUQ7REAEREAERCCFCBRirmmhxHURaUPg888/txW3JkyYYL788kvDR/Scc84xixYtMtdee62hBrNf+/nnn21Kq4svvjhqYBcWy+eee85gUcXi69f++ecfG6iFFfnCCy800dwcJk+ebAsuXHXVVaZ48eJ+QxqujyAsrqVChQq+/SibO378eHPllVfaIgmROsKGAg4UeHj33XdNtMpekY7XNhEQAREQARFIRQISsKl41zJozvPnzzfdunUzhx56qKlYsWLUSlxgoZQqy+j0j9YQsOSoPeaYY6J1swFRP/74oyFdVjTxyiCrV6+2OWH333//qGOuXbvWukjkJDZ/+eUXU6JECZvJwW/AvXv32oIRM2fOlHj1g6TtIiACIiACaUdAAjbtbqkuSAREQAREQAREQATSm4DSaKX3/dXViYAIiIAIiIAIiEDaEZCATbtbqgsSAREQAREQAREQgfQmIAGb3vdXVycCIiACIiACIiACaUdAAjbtbqkuSAREQAREQAREQATSm4AEbHrfX12dCIiACIiACIiACKQdAQnYtLuluiAREAEREAEREAERSG8CErDpfX91dSIgAiIgAiIgAiKQdgQkYNPuluqCREAEREAEREAERCC9CUjApvf91dWJgAiIgAiIgAiIQNoRkIBNu1uqCxIBERABERABERCB9CYgAZve91dXJwIiIAIiIAIiIAJpR0ACNu1uqS5IBERABERABERABNKbgARset9fXZ0IiIAIiIAIiIAIpB0BCdi0u6W6IBEQAREQAREQARFIbwISsOl9f3V1IiACIiACIiACIpB2BP4f548QhDJkoVkAAAAASUVORK5CYII=;" parent="1" vertex="1">
          <mxGeometry x="69" y="680" width="688" height="208" as="geometry"/>
        </mxCell>
        <mxCell id="HnaEo07ceMGqRIuc90NU-2" value="" style="line;strokeWidth=4;direction=south;html=1;strokeColor=#FF0000;rotation=356;" parent="1" vertex="1">
          <mxGeometry x="276" y="340" width="10" height="468" as="geometry"/>
        </mxCell>
        <mxCell id="HnaEo07ceMGqRIuc90NU-3" value="" style="line;strokeWidth=4;html=1;perimeter=backbonePerimeter;points=[];outlineConnect=0;strokeColor=#6600CC;rotation=45;" parent="1" vertex="1">
          <mxGeometry x="160" y="582" width="593" height="10" as="geometry"/>
        </mxCell>
        <mxCell id="HnaEo07ceMGqRIuc90NU-5" value="" style="line;strokeWidth=4;direction=south;html=1;perimeter=backbonePerimeter;points=[];outlineConnect=0;strokeColor=#0000FF;rotation=4;" parent="1" vertex="1">
          <mxGeometry x="249" y="340" width="10" height="560" as="geometry"/>
        </mxCell>
        <mxCell id="HnaEo07ceMGqRIuc90NU-6" value="&lt;font face=&quot;Comic Sans MS&quot; style=&quot;font-size: 14px&quot;&gt;&lt;font color=&quot;#0000ff&quot;&gt;Il faut une inclinaison minimale de 4° en M et en N par rapport à la verticale ; &lt;br&gt;Soit un coefficient d&#39;adhérence mini de 0,07 &amp;lt; à 0,1&amp;nbsp;&lt;/font&gt;&amp;nbsp;&lt;/font&gt;" style="text;html=1;strokeColor=none;fillColor=none;align=center;verticalAlign=middle;whiteSpace=wrap;rounded=0;direction=south;" parent="1" vertex="1">
          <mxGeometry x="300" y="582" width="170" height="150" as="geometry"/>
        </mxCell>
        <mxCell id="IdqW67m8lTazOLtuF9G8-1" value="Si on augmente (MN), la longueur de guidage de la douille, on risque de ne plus avoir l&#39;adhérence suffisante pour l&#39;arc-boutement" style="text;html=1;strokeColor=none;fillColor=none;align=center;verticalAlign=middle;whiteSpace=wrap;rounded=0;fontFamily=Comic Sans MS;fontSize=15;fontColor=#FF8000;" parent="1" vertex="1">
          <mxGeometry x="310" y="863.5" width="360" height="73" as="geometry"/>
        </mxCell>
      </root>
    </mxGraphModel>
  </diagram>
  <diagram id="fjT39ClODnkdb-wRsp2v" name="Page-2">
    <mxGraphModel dx="813" dy="454" grid="1" gridSize="10" guides="1" tooltips="1" connect="1" arrows="1" fold="1" page="1" pageScale="1" pageWidth="827" pageHeight="1169" math="1" shadow="0">
      <root>
        <mxCell id="f83U8uQOPlh2mUSy-AxR-0"/>
        <mxCell id="f83U8uQOPlh2mUSy-AxR-1" parent="f83U8uQOPlh2mUSy-AxR-0"/>
        <mxCell id="f83U8uQOPlh2mUSy-AxR-2" value="" style="shape=image;verticalLabelPosition=bottom;labelBackgroundColor=#ffffff;verticalAlign=top;aspect=fixed;imageAspect=0;image=data:image/png,iVBORw0KGgoAAAANSUhEUgAAAWwAAAHfCAYAAAB0weJiAAAgAElEQVR4AezdB7gtRbE24DFeRBBUBBSQpEgSrqgEJYNkkBwlKEjOQVRAcgbJgoBkAUFAQJLkKEiQIEgOCgKSRPCK17D+561rbRfnP4dzzj47rLV29fPMmlkzPT091T3f1HxdVf2uVqvVaiqVBEoCJYGSQMdL4N0dX8OqYEmgJFASKAmEBAqwqyOUBEoCJYEukUABdpc0VFWzJFASKAkUYFcfKAmUBEoCXSKBAuwuaaiqZkmgJFASKMCuPlASKAmUBLpEAgXYXdJQVc2SQEmgJPDeEkFJoCRQEigJDK4E/vnPfzbvete7mn/96199F+ICY7800UQT9e1/p43SsN9JOnWsJFASKAkMgATSP/Hd73538573vCfA2z4g/vTTT4/zFQqwx1lUlbEkUBIoCfRPAkBaeuutt0Kr/utf/9rceeedzVZbbdUstthi41xoUSLjLKrKWBIoCZQERi+B1KAdTc05c/qPCqFd//3vf2+uvfba5rTTTmuuvvrqAO8ZZ5wxs451XYA9VhFVhpJASaAkMHYJ/OMf/whQBtC23/ve9wZAv+9972v+/Oc/N5dccklzzjnnNHfccUdQIfPMM0+z0UYbNSuuuOLYC/93jgLscRZVZSwJlARKAmOWAA26XdPGT7/22mvNz372s9CoH3nkkeCvF1lkkeYb3/hGs+CCCzaTTTZZgPeYS337kQLst8uj/pUESgIlgX5LAPUBtP/4xz82Z555ZnP66ac3zz33XFiB0KQ333zzZs4552ze//739+sa76rwqv2SW51UEigJjDAJMMGjRUtAmQZtH+rDGlg/8cQToU2jPl544YXmwx/+cLPGGms0m2yySTPrrLPGOQYgk9NWRi7jIs4C7HGRUuUpCZQERrwEDBgm5QGk//a3vwXFAawfe+yx5oQTTmguvvji5uWXX26mnnrq4KeB9Wc+85mQHS57QlMB9oRKsM4vCZQERoQEUotO7fh///d/m3vuuac56KCDmhtvvDHAfPrpp2/WXnvtZosttmg+8pGPxOAjjTptrydUUAXYEyrBOr8kUBIYERIA0OyopWuuuSb46SuuuKL5wAc+EFr0lltu2Sy//PJBgwB39AlNnMWIVBp2iKF+SgIlgZLAhEsA3QFopbT4sM6BxFdeeaW56qqrmpNPPrm56667Is+XvvSl5pvf/Gbzla98pfnQhz4UfHRq4Fkj/9NxJvf1d10adn8lV+eVBEoCPSUBwAqwc0ARZ01DZuXBNO/UU09tHn300QDmL3/5ywHUTPT+67/+q28wcbAFUoA92BKu8ksCJYGukEBy1LRqYP3MM8+ExcdFF13UPPXUU80UU0wRTi7rrrtu87nPfa4PqOVn6WE92KkAe7AlXOWXBEoCXSEBmjWgfvDBB5szzjgjtOo//OEPzcc//vFmrbXWCvM8NtRpHUKzdg4tXCrA7opmrkqWBEoC3SKBpD0SZNOd3Pruu+9ujjvuuIj1ga+eZZZZAqTXW2+9ZoYZZngbDw2oAXT7mpY92Kk07MGWcJVfEigJdIwEALZFsgbUN998c9hQM80TRY/d9MYbb9ysvvrqYZqXji5Afii06HcSVrmmv5N06lhJoCTQUxJI5xfa8AUXXBCmebfeemsAt2BM2267bbPssss2k0wySZ/FCGAH1EOhQY9N2AXYY5NQHS8JlAS6RgIoindKf/rTn8Ib8ZBDDml+97vfNR/84Acbpnk77LBDs/jii8ep7KXZXKdGPbYy3+l6A32sKJGBlmiVVxIoCQybBIArjZjFB8BNu2pxPc4///ygPlh/cHZZZZVVmg022CCi5qUGPdyUx9gEV4A9NgnV8ZJASaBrJJCmeQncTz75ZJjm/fSnP21YfHAXX3XVVSPOxxxzzBGgnk4tgD4HIzv1hguwO7Vlql4lgZLAeEsAYP/lL39pfvvb3zannHJKTBogJjUrj5VXXjnifBhUBNJAPddpR10a9niLvE4oCZQESgL/kUByyNaA1Rqw5n45acd459tvv7058cQTY/qt//mf/2lo0WuuuWbD2YU9NauQdo3auVmWdQH2f+ReWyWBkkBJYLwlkLbSTgTYwBlYJ3C/8cYbzfXXXx/UB9M8ji2f//zng59ebrnlAqjldW6C9XhXokNOKEqkQxqiqlESKAmMXgLAFtVB+7UGvECZRn3hhRdGMCYUiEh6Cy+8cLP99ts38847b8T8ANAAvl17dn63pjLr69aWq3qXBEaQBFJDdssvvvhiADWO+uGHH47pt5ZZZpm+eRLTHA9IOy8HEoF9adgjqNPUrZYESgKDJ4HUol2hfRvoSkzzzjrrrOaHP/xh8/zzz4cNNW9E4U1nn332CMaUwJ7USXLStGz7chm8uxjckosSGVz5VuklgZLAWCQATJO2kBXdQSsGvjwTf//73zfHHHNMaNWvvvpq89GPfjRifGy11VbNzDPP3PVa81jE87bDBdhvE0f9KQmUBIZaAsBaAtAJ1gYa77///r55EvHT5kk0mS1nF9upRfd3BvKhvs+BuF4B9kBIscooCQyQBAykSSMJhBKwgTRTvFtuuaU588wzG9Nv0bDnmmuuZv311w+t2qwumbiQA+1u56XzfsZlXYOO4yKlylMSGCIJAKo999yz2WWXXYKbnXjiiYfoygN7mQTh9oG+5JeTn04+Wd7XX389TPOOP/745le/+lVUBlCLmvfVr361b57EpEpyQHFga935pZWG3fltVDUcYRIQl3n//fdvbrvttmbHHXeMGbgnnXTSrpICbdnXAmBNq40EccBtoRlzF//FL37R/OhHP2p+/etfN5NPPnkEY9pwww2bBRZYIEzznD+StOh3augC7HeSTh0rCQyjBH7zm980BxxwQHjtbbPNNo3lwx/+8DDWaNwvDbAtCbS0aeBNuwbcAjCZeuvHP/5x88gjjwQwL7300s1mm23W/Pd//3eY6gF15+Qy7lfv3ZwF2L3btnVnPSIBE78eeOCBERcDoAkF+rGPfayj785EAMzwLOY/BNyA1/RbTPNEzhPelMUH13EDiXPPPXef3XTSJ9Y0bIBfqWne9fe///2dA8iWlEoCJYGOkMDTTz/dHHrooc15550X0eZ23nnnZpppphmWuqUGbXDUNlCVaM+PP/54DBr+5Cc/Cdvom266qXniiSdi1vHLLrssQHzaaacNkDb91vTTT98YQGxPqV1bSwXY/yedd73nPe8pwG7vKbVdEuhwCQAxwDjZZJM1AvIPR3J99WCGZzJaZneojaOOOiooHPVi4UGzpjkLc8oCZMYZZ4yXzTrrrBOzkCdVkoA/HPfSTdcsSqSbWqvqOqIl8OyzzzYHHXRQc84554Q9Mg17uKgRgI2Ppl3fcccdzQ9+8IPmmmuuad58880+++jUkjXabLPNFlTOCiusEHy1Y6k1p3neiG7ccbz5MusbR0FVtpLAcElgVKAWP2OogRrAZrLNDO/KK68M644bbrghNOk04QPiwFg++2zj4BdddNHQxlM7p1XbtuTgZF6j1qOXQAH26OVSe0sCwy6BTgDqdiGgOAC1AUPxPHgiZgLKADhpkARqoG3/JZdc0iyxxBKR3T40imQgstK4S6AAe9xlVTlLAkMigU4DajcNZIEyqw+0jPge7QlAA1+aMo3ZNqA2acAaa6wRnorKkAqk2yU3ftsF2OMnr8pdEhhUCbAA2WKLLYKjHg7qY0w3B6wBrWBLJgcA3LTpTI4DamuctGm4APVaa63VfPKTnwzAtz817zyv1uMngRp0HD95Ve6SwKBK4OWXX47yp5hiikG9zugKTw3YsdSocxvQmn6Lo8vPfvazsE4B2KlNy5+meUsuuWRz0kknNVNOOWVcBohnSsDOF0Ce73jma792npd1k6f9eO7PfO3l5HbmzxdKXqf9nG7ZLg27W1qq6jkiJDAcQJ2CTfBjqpfUhn3sqFmBiPHBXE/saVozV3IgLc9EE00UFiK2zfqCCmkHRmDJ9K99oDGpEcBvv+R8/3HceX47qBvQzHzWWYa88jk/6xQZ/20bLl+Wl/u7cV2Mfze2WtW5JDBIEgB6wNrM45deemnDDG+11VZrrr322jDNozlffvnlzX777RdxPwRmOvfcc5uZZpopagQUmfCNmgApJxsmieKjmMk8wZb342OPPRZ0yVVXXRWmggnAGb0w6Rf78zzrY489tjn99NMDqF0zgd+2a1oSqN1bt6eiRLq9Bav+JYEBkgBwA6R49FNPPTXcyIGc6bfM6iIYE+3VgtrgWj7ddNOFQ4w1UBWkij32PPPM0weUqgd42WgvtdRSYV1y2mmnhUs6bf6LX/xis8cee4RTjeh8wquKUgiQk0IBxOlRqZ55LO26UTX2OZagbVv56Y2p3sA7AXyAxDakxZSGPaTirouVBIZOAgBr1AVw2geILbaBonkSWX8A5e2226657777mlVXXTXA8+yzzw6gBcaoD8AIFHkt0sYBtzKU94lPfCJAfFRQdB1mgK6z+OKLh6aNIgHczt93331j8lzWJwZd0S28IT/1qU81X/va1/pMCAXD+sIXvtCsuOKKUTfXV+58883XfPnLX44Ih4D94IMPjpeGgFLsxdVXHbo9FWB3ewtW/UsC4yiBBCyABly5inMn/853vhOWH3vvvXdQIbRcgH3yySfH5AGpsQJHi/8W28AbpaFM26IJAva8VlZNfpr7rLPOGtq08gHtQgstFOfQlAWBog2zLhEzRdprr70aZo6oD/U54YQTglKZYYYZgpb585//HPfiC8DkBieeeGJz4403hos8oFf+TjvtFPeZ9ErWqRvXNejYja1WdS4J9EMCQJrmC6jF9gB+F198cVAVgkgBasGYmO5JCbqAmAYNoNuT/dJDDz0U5fqPv5bPue1a9iuvvBLOMzRmwIsjd+199tkn8os34lxa/oILLhhR/ASPMuDpXGDLBX7ZZZcNQEetPPfccwH+Iv6Zkcb18e4oFde+5557YqDTQCmOnKlht6cC7G5vwap/SWAcJQD0mOYZpAOWOGcASsM2sDjVVFMF6AF2AJ2A7H9q2XkpgGi/BWBLQJqNdp6Xea0NVNLCabzKYkkCXE2kqywgj292zAvFrDsf+MAHol4i/eVLgPWIbSDO4/KNN94IcLc/64irZlK40korxYuB1i8ioPJROu0vkvY6dsN2AXY3tFLVsSQwBgkA1gRPQAk07QNewFQCamgCQG12F/kBqwltaawAzb4EMusEv7xsatvt/wGwvHfddVfsBqQ47Pa8ttWDtsw+e/fddw9A5xS03HLLNeKQfPCDH2wuuOCCCA4FVM0+wwWe5QlN3NeALwC8NdrGl4FrGiB1zayv+rh3L4Ujjzyy+e1vf9uIy01LF0e83VQw76Pb1gXY3dZiVd+SQJsEgHQ7aDuUmu8f//jHsNhg8XHnnXcGYAnABLysWWIAvPYE/CyjptHtc+1XX321wSNLpveisUvt+YG2WWRWWWWV2O88+UQblI+G//Of/zzOVzcvmG9961uhlbP9/u53vxvAvfzyy4eWbqYaA57A/7rrrgurFWCN8gDqrE6YHbJWoVEL+frZz362z747KtilP2XW16UNV9UuCZAAMLSktmsfEDXAZ2YX04wZyANk5kk0+0sCNeC0tKd2oG3fP+p2XhdgKtv1OdPce++9fSZ5ypLPCyW1/jzPddv3Kx9lA2C9cOTzH70h5UtJmV4y/suXXwL25/VQPblfHmWon32uK1+3ptKwu7Xlqt4lgX8DGUEAsaeeeirM5WjUJrc1wcE3vvGNGEicY445AgwBHSAE4glq/RUkUH3ggQeCGwaEQr6OiXZIgE6N3rlZb9tAFLDmNqBVxwRX5zmWYK48yT3YlyBtWx2s3Wfeo/x5zTixS38KsLu04araI0MCCVDuth1wABnwBUQsII4//vgYxGMCN/XUU4fpG8uJT3/6032g5XzAB9AmNLm+hQ21tXrOP//8fdpvAqXruGa7W7p9zpHcg3qlJq0cxxJg/bed+bJc/5XruG33ZJ0AbtugpbXylZFl4rWzHOdL/ssnvxdF1i3PS23f/+FMw3v14bzzunZJoAskALwACWBJQPF5L9Fuv/71r4cZHJdxAMZhhPnb9773vRi0S2CSP4HQekzL+IjEACGrE8l1cMgATT0y5XXSOsN9APnDDz88uGp5ceAmODA4CBg50zDJc7/Oz/KsLUlvOKY816ZhO6ZO7SCbspPPS8NCRqibrJu6nnHGGc1Pf/rTeHG0y1q5/nuhyD/cqQB7uFugrl8SeAcJAJz2BJBYVhiAo9FeeOGFYZnBKuK2225rttlmmzDPA16ptbafP1Db6gU4n3nmmQBKYIbDBrgAbtREc7U4x1eAerMAcZ44Jf6jbfwXDZApH7CkDSvTftcE7tb2OZ88lOu4fV4MzmmvgzwJ5GRy3HHHhSki88EEZ/FQWLL4r44sUCRyzDyjtsWo9zgU/4sSGQop1zVKAu8ggQSCBKX2rPZJwOn666+PsKUG+gDTIossEjE+vvKVr8TnP00TwEhZZvwZhB/lczMHegBOlEGOL+0afftl5TVLDWuQj3zkIwHGNGFAyYyPlyLQRuNIBkzRPLPMMkuz2267xdcE6xBxuHlCmkHeCwqYcqHn7MO2PD0kt9xyywhchde3H2ALVOWFRkZnnnlmALeXHpvv1MoBNbNBNuJmdt92223DZtz9yjPcafhrMNwSqOuXBIZZAjTE1BRTC6Ut2mfw0Oc6S4y11167+eUvfxnatfgept0CXgAQX0t7TODBww4mwHiRoBVos65jgBPA2XYsXzQpWsBs2XrrrcN1nfb86KOPBhizCXdvvB6Z8bl33onczfHzQBhQA1EONzwc0RdczwGu81Ad5MHlXblXX311vBQAMxmxN+fejo5JuYgaSJ7HHHNMvOCAMi3bOQZr2ZQDeCCeWnbez3CtS8MeLsnXdUsC/5YAoKCZAmsJOACl/EwX74ONM1ADJAAOQDtvVGAcKqG6LvCTACANt50+SFDM+gBSAEuDFiubbbX78uXA9JAjjfPZTrs3+VZfffUAXS8sdtcCUwFZshEkivckIEeTsOtm6+1FRlaiBQJzgaZQLkwdla/eXoQ8LEUhpKnT+r3gOPBcdtllcU1hXpULrNmws1sf09dD3uNQrAuwh0LKdY2SwDtIAIgkD0s7FDOaBpkWH7S8ddddNyw+0hqChjqYHPU7VLfvEKBVd5QIxxQgrV75AurL+G8umPeil5EE/OSnmYthghIx6DjXXHPFgCOqxf0BV0BrmWSSSaJsmvYVV1wRLy/ATNN3TY45HGbICM0BaAGwwFI0c5MwqK+8NHJ1AMjA2jmOuQ7w33TTTUPTVyeWNtpH3Ud9EbXf41BsFyUyFFKua4x4CQC1/KwGGLYt9lu4Wu+www7x6c6KAS3AA5AWKSAS7RFgARUAY1HOUCXXal8AGKBUd8BKA5bUb3SghtLBJRvwO+KII4L7dk/OvfXWWyPiHyoiKRb5cNhsyvOLIl9qQNZ5KBh8vnqpB2AGvMowKItOsp/2z5rF9GtikEi8H11DPBIhWNVZ3VdeeeWoCyqG7C0p69HdVxQ2hD+lYQ+hsOtSI1MCCXQAx7YHnyYKIJjgAQ7AQwNlGkejNnmtAEaAqf1T3P9Mwwkg6ILUmNUD+Lqf9vplPa3RD1zlRdJjDYKuAPLAG28MSHHRglChL1566aV4ieGfmS4CdfGuacA8Nr3QDMKKG8J7k4zIC91i8FOIVzIE7uKo2MeKBTcujKvjQJysN9poo2gXlIhjaBoDmvIYKM1YK9puuFO5pg93C9T1e14CqRkCGYBjbVBMmFEABrzFid5+++1jogD0AOADgJbhBOb2xskXj/rcfffdUVcAqL64YPTGmFIOqrov8pDcm6Q8+xzLrxD7XS9lQEaOJ2hayyvJA5j333//hiWJQFJeIGRNw84yrPM8WjPaxbVtZ1ny+28tOW5xXtI4cWCYfkrDHibB12VHlgQ88EAJLcAqAZ0AhHCrTMeY6CWPClgABsCxDTA6IbkHCbjh2mnZtsWjpp2OLeWXQoKge5MAp/Ot3bOULyzXlM+55EdG+Gdl2Hb9fBFyjd91110bsbWzHOfaThk6l0mkc5TpeL5A5HFdyX5tII9rZHlxcBh/CrCHUfh16d6RQIKZO/KAS0ABANBCOYPQAFlW+MQWq9lUWCLL0eikLANYSO0aZewYxp+sW2qe7kM91RHHnIA4pirKl+DYfl9khZsHmkDbWr6UQZYLMOV1fecD0qwTACZD9tryJQA7nqCe56e7eu5XfraXbdd1DcctykoNPOs0pnsciv0F2EMh5bpGz0sAOHi4PfS2PfQGvUwOy9TMIBZ+lVkeoJ599tn7tLZ2gEpBJVB1AkhkndQl64V7T2BD54ytnnkeoJUyf2quuT/Xec32tTKynCwj87fvz315bl4j84xpnfm9EDJlWVlG7h+udQH2cEm+rttTEqClASEghi4A1OyogbbZTvDTm2++eQx8AYHMn+DRDcLwIlJf98iD0P26D/fnWIJwN9xLt9axALtbW67q3VESePPNN8N9+pRTTglTMKZlJorlIs1UzOwp0qhA7X+naG/jIlBfEezDDfIBbwsrjUpDI4EC7KGRc11lECRAq5MM3iXoARTb7VYFCYrApb9aoGslJ52gqywDZegB0fJ4x/nPZI1XItvjnDLLtZWR9cz/eQ+DIJ5BKdI9m7KL2R05+FrgaNJfuQ5KJXu40ALsHm7ckXBrCcaAz+CeQSWg6L+ppjhLMDsz0CclYI6vbNAAzs01W90rr7wyqA+meczW5ptvvvCQM+u3YEhZD2CWS/t1R7ev/XgnbasrWXvRAGsvRP/ZUpvBptLQSKAAe2jkXFcZJAkADeDMxMxgHm83btw4VoGGrAVHYkFA4+0vYAMq2ruXAndnbs4meZWWWGKJcO5gmpfglYNVtHLWBt2eyDhfMOnh6D/XcOtKQyOBzjDwHJp7rav0oAQAicQrDTDjkPHJYkpIguEDz7322iu07djZjx9a5fe///0AZ4OHHEV40vFQNMDoRQGsAXsOKgL4NAnrxyU78hT3JJATuXv54elp2wXaQ9NcpWEPjZzrKv2UAIBANwBBoECjBoKHHHJIBOqnTQMMACIcp9jIQJRm7RyuzgITsXemEXOuUE4uzlOm/+iOBFv7JEBNmxbngvs0bVlgIIOJBhITkAF1u/bufyZl90IiEzRTDjhqmznnnDNkZrv9/nvhfjvxHgqwO7FVqk59EgCogFQST0IgH/wwbfawww6L+BQC+bCd3X333SMM5oknnhiegzwK2UDzfBOqk7uy2BPAVLmZ/AdGCdbAR7hPQM00zzFAv9NOOwVYmzMRCCdAJTj3CjCnXEZdu0+hTX1d2CZz0fUqDaEEWpVKAh0sgb/97W+tv/71r62LLrqo9bGPfaw1++yzt6677rrWCy+80Jppppla0047beuss85qHXzwwa1pppmmdcQRR7SmmGKK1sknn9yae+65Y/nMZz7TWnnllVvPPfdc6+9//3vrn//8Z+sf//hHbP/rX/+Ktf2vv/5668Ybb2ytv/76rckmm6w16aSTtmaZZZbW97///dazzz7bUpe33norFmVIzh8JyX2S2bXXXtt6//vf33rXu94Vcn7++edDnimPkSCL4bzH0rCH8OVYl/r/JZCarjUN1dris1vcB+7KtGmxlxdbbLEY9OPiLYKbqG2mkjL1Ey3cjCM0wC996UuhGXMHF2SJ5mzGETEvJOXnJ7w1iw9xjwVjQqeoB83RNVAq6kDLtjiXZp31zDort9c1bPdnrkVysI0OYYFDhu3egf9/K9eegZJAAfZASbLK6bcEPPCSz2zgaXAP2AqzySkDQKMy8MhmHcFZ77vvvgHKBhnNKLLUUktFtDhWHGYTMQHAVFNNFaCbAANkJf8BvPLNcGIOv/vvvz/4aTOLmBlFPGUxLsYl9TpQpwzITZQ+7eWe2V8D6qSGMl+tB08CBdiDJ9sqeRwk4MFPrRWI4qVpyqKuGeATQF7cZaZk4hmbcFYeYGs+PkAt8L8YywYav/Wtb4XjCuD1AsiygQzAsU9cZoHrxWG+5557wrpEMCYzn3zhC18IW+6RAsLj0ESRhTyYKJKx5L+ZWIB1ynVcy6p8/ZdAAXb/ZVdnDoAEPOwJ2ty5zzvvvGbvvfeO6Z4cA9Aojemmmy4sFL73ve9FOFIaMQpD0HtaH6A1QwuNHDgDatqfcwENoAY25u8zR+Djjz8ezjSbbbZZUCtm5/aCcJ76yF/pPxIgF18/zz//fJ982l3SU27/OaO2BkMCBdiDIdUqc5wlABwBbGrDHnxam/3W9tOkWW08+OCDodWxFDEDNsoDhypoPcuRtPLIT3TUiX1cqVl80NwBDvAXjGmDDTbomzxWhfPFoQ4FQP9/EzJxTAsR5oym6Ep6pOT1/8trMPYUYA+GVKvMcZZAPujAkkaNNwasBhIzsL3pmkwHZQCQxyIbaLNui9eRPLNypAR79Iqoeabf4pnIRR3QH3DAAaG9A22g47qVxi4B8jWg6yvIS9DLkqMSeZfjzNjlN1A5CrAHSpJVTr8kADBp0TQ14Evz3XHHHZtf/OIX4VUoUL4pn1gksArhGAPYadZSaua5Vh57bQOXYnygQwyO4b2XW2658IjsV0VH+EnkysMRWHNkQiFpL0BO9pZKgy+BAuzBl3Fd4R0kkBo2bZdWbBLUBx54IKw7eBK++OKLEWBojz32CG24HajlB/SSWCI0cTOMi54nCJSZUMQXAdTJTwN7yTqpk9hRP+8oAS++X/3qVyE3M7ygQ5hbaj8gXmloJFCSHho511XGIIHUzIBvaskGEsXm4EoOGMx7mLbQigG28gIK1iK0cbNbJ1AD6JwnkWYImAFLaoNA3rmOVRqzBPKFaPDWVwtaKl9yvEdTpuRou+Q5ZlkO1JGaNX2gJFnlDIoE8EQ+6cAAACAASURBVKMSQAAWCda///3vwzSPeR6nmsknnzwsSsQTmXfeeQM8gHoCzKBUrscLFTeENs2sEhXlhagdxGVh527Ks0pDK4HSsIdW3nW1fkggNWTcKU5bfBCzj/O6E+PDIKQBSDx3Uiu0PRpiAXY/BP7vU4A1gD799NPDUsdXiX0777xzM+WUU/a/4Dqz3xIowO636OrEoZIAF3VmfYDjwgsvDIsP/DabbNSJQUXaNKqDBg6scxmqOvbidcjQ5MGHH354ADfwZqmz5JJLxv9evOdOv6cC7E5voR6vHxBI/jrXwFcy0HXnnXeGgwyemh2wgPm8GZn9TTPNNH3WCcqhTQOZBO3Srsev8+QAbvtZe+65Z8idfMl7u+22i6+Ykm27lIZuuwB76GRdVxqDBBK0HQbWgBpAn3rqqTHYhQoRGpUNNY16sskmC2B2HoCWcp1lxM76GW8JkCP5oz98zfAMldLk8jOf+Uy8GNtlP94XqRP6LYEadOy36OrEgZAAbTg9EjnKXHHFFRGM6fbbbw9gMD/iNttsE/MlmlWGxQKwyMHH1MYHoi4jvQwytUjMKcVp4XwkCb5l3MAYQVrYlOxDNEP6Uxr2kIq7LjaqBGh0bKhNFPCjH/2oeeihh0LLxpWak1G8CgABSKx9tjvHJ3mCy6hl1v/+SYBcLV6IeGvxVsib27/oiAnW5F6USP9kPKFnFWBPqATr/LFKILlRHDVAkIACG2r208Km/uEPf4jP7vXWWy+sEHjSAWj5aHLWkn2ZSsNLSQzMmoyBMQck81TmS1JccMG1ALZUch8YefenlKJE+iO1Ome8JACwEwzQH6LmnXPOOY2pvNj6fuITnwizvG984xsRQlXe1PZocgUQ4yXufmcG0L52DOgKuKXdZp999pjUwbhBAna/L1AnTrAE/qOuTHBRVUBJYPQSAL6CBjHNQ3uIDWJm8+mnn77ZZZddYr5FwZgS1K0LHEYvy8Hc6wvopJNOCrBOysPkEZyStEml4ZdAAfbwt0HX1SAf3uQ73QBtLB/y9hsykMit2cwwV111VQwwcms2qwvvOWAgpUZNm1YOTbw063ZJDs52viSVLhSAMLS5z8TFSyyxRFx4dG07ODWqUt9JAgXY7ySdOjZOEmAGBmCBLisOQGuqrhtvvDFsqG+++eY4Nv/88zdcxxdffPEIzZnAPzowKA17nEQ/QZnI3wuV/JlOinAohKr9PBmFshVEKymtCbpYnTwgEijAHhAxjqxCALPkwbbtgbftk1rcCdN6+bQ2E4ygTeZHxE+L8eF/Wns4D29aaXgkoL28YLWBuS1NBGHby9IUbQZ+/fcCzjYfnprWVVMCNeiYkqj1OEsAOEseYtqXxTyJ5kjk7GJQETAvs8wyzaabbhozkAvFmcl5QCABv8AgJTO0a2BMw/Y1tPLKK0e8a21idnpTtQll67/2BeLVTkPbPqO7WmnYo5NK7YuHNDnkBFZi8ZB7cHPfM888EyDNjtr21FNPHfbTG220UcSxTmrDOXmec1NzK1EPnQTI3ZIvS23ga8esPCIeOsYahOs/KkSS15cQ0G43qRy6WteV2iVQgN0ujdruk4AHtR2cPbCS/bZ5wJlXUZhNpmBmNBd3QtQ81h9jergTuPsuVBtDKgHyp1XnhA450KhNtfe6664bXqXGJeSRXxpTew5p5etiTVEi1QlGKwEPr+RBTq2Mad69994bGpkYEx5mEwxstdVWffMr4kTtB+yVOksC2lG7ahuDjBKb62uvvTbabNZZZ435Lw04asOiQTqr/dSmNOzOa5OOqJEHNh9uGrTpoY4++ujmhhtuiAeey7j5F8Wb8Pksv8RaBGhX6lwJaFc0By/Tm266KdoTOLOJNylBvqQ79w5Gbs0KsEdo29O2Rk0eZEtqyCw+rr766rD4MKGth3rRRRdtNt9885jdxSdzpgR3eUq7Tql01jrb10v16aefDjM+liLaa8UVV4xY19l2AL1S50mgALvz2mTIauRhTXC2LXlQTb8lah6vRBwnawGmeYIxZUyJdrDO86xT047C6qejJACMcdPa+NBDDw3Q1o6CO5mpniWP9iuw7qhme1tlCrDfJo6R9ccD7PM3QZbWZRDRFFxmGvF5vMEGGzQsPngnGnhyDk2tUvdJIMcieJwKD5BtaYo106tlP+i+Oxs5Na5Bx5HT1m+7U6BLq/YQC2l6xhlnRLB6pnkzzjhjs+aaazZrrLFGI2B9WggkUHuwc9/bCq0/HS0B7ceTca211uqbUPdLX/pSOMww58sXckffxAivXGnYPdwBcvAIwCbYut38f9ddd8U8iVdeeWU4vvBs23vvvZt11lknrD/y01j+1M5yu4fF1jO3ps28lLWjbX3g5JNPbu6///4YGEaH7LPPPs2HP/zhvrGLnrn5Hr2RAuwebdj220pN2icw0zzzJAptmsGYfA6b0Ha55ZaLYEw5cAicM41pO4/XuvMkkC9XL24Lk0xBuPDYAFwArgUWWCCokXZqrPPupGqUEihKJCXRg2sPpYXNrYfXPIlHHXVUADYQX2SRRcJ1nOWHz2Hu5Png0sraQboHxdPzt5Ttr62FsxXPxWAyTVsMcl9YBpSzrb3Qq807u1uUht3Z7fOOtfNAZkptKv9bM99imnfppZeGCRfrD/lEy2PxIRiTyVWBtIdV/nx428up7e6VQPYRsUG8sCV28gceeGBQIXln+gUg1/6VOlcCBdid2zZjrVlqUNYeOJoUTdmD9/LLL8dg0mGHHda88MIL8XCutNJKMaHtHHPMEW7HOXAIrKV6WMcq8q7L4GVsIPmYY45p3nrrregfX/nKVyLYk3bPtu+6GxuhFS7A7uKGT5taAJ2A/eSTT4ZZHtM8M1/75N1iiy3CNG+22WYLUMdRp+bVxbdfVR8HCfhqEvPliSeeiBeyCSNMqJsv63EoorJ0kAQKsDuoMca3Kh46GhTNmoPLWWedFVq1UKfTTDNNuBqbffxTn/pUH6Dnp29pVuMr7e7Mb7af0047LV7Q2pyDDGsgL/sKIdB9bVqDjh3cZmPSgpMCYfFx++23h2mewST/adFmueZqbGAJmKM68hwPLY3cGnhX6j0JaGuLONc8VFkFaW8z/ohZ/rGPfSzGK7zwC7S7q/1Lw+7w9qJBe/g8cJL/gNn0W2JQX3bZZXFcMKYNN9ywWXbZZWN6p6RJ0B+jpuKqR5VI7/xPmsyLms21Ly99hwXQDjvsEN6r7rYoke5s8wLsLmi3BGsWH2ynRVkTcN4gEtM88yTyWMNX05oBfIFyFzTsIFRRX/GyFmZAvBAvd8mEx2YAqtTdEijA7uD2A7w0pVdffTU0aTNam35LWmGFFZrNNtusmWeeeUJbojF5UCVauAe3KI8Qx4j60ebs7mnTJirQJ6abbroYzxg1YNeIEkyP3GwB9hA3JBAeNdln8XDRjIGt/4D6hBNOiDgfTLPEe1hvvfUivKmBIyDtAU1gTk1c+VlmHhv1mvW/dySgrTMB6/PPP78RDtfLXh/59re/HQPP+SLPvLXuPgnUoOMQt1n7w+XSOEdAbQG4AJuDi9CmZ555ZsT4mGqqqWLqpk022SSm30pgB8ZFfQxxA3bY5YAwYDZWwYTvlVdeaRZeeOHm2WefjS8tTlJMPCeddNI+ZaDDbqGqMx4SKA17PIQ1GFlpQEDc5+vDDz/coD2EOPUQMs07+OCDY/otI/uAWl4j+6U5D0ZrdF+Z+kHSYfoMG2s2117+XvRixPgyG1VR6L47rRqTQAH2MPcDA4em3zKiz+KDlvTZz3424j6sssoq4TpOe/Iw0qY9oPlp206BDPNt1OWHSQKA2OJlznLIy94LXZ8R3Gm++eaLrzj/8ytumKpalx0ACRQlMgBCHLWIfIhSqwGyltwv/xtvvBHzI5566qnNddddFxrR5z//+Wa77bZrllhiiWaiiSbqA2gPmiXpD+Uor33fqHWo/yNDAl7eFjbXZqznKOPlbkLdm2++OUIS6CuVekMCpWEPQjsCVA9RfqoC1tSKX3rppTDNE970vvvuC26RuRV+WjAmpnmjas7+t+/LBzABfBBuoYrsEgnoW/qbF/8dd9wRX2isQVBp7ZMjd8ntVDXHIoEC7LEIaHwPe3g8RAAWvZFAKwDTz372s7D4MMOLoPGm31p33XUbTi9lcjW+kq78JODlrT8df/zxQX14iZuAYrHFFguFoaTUWxIowB6E9kwNGFgbAGLtAawNKponkaMLjVqMj+SlAX1uD0KVqsgelYDBahEZn3/++dC0p59++mbXXXcNRUGfqtRbEijA7kd7MsUDyhag7D/6Q7IP/cElmEfiz3/+83iYZphhhhjBN5+ehyrP78fl65QRLgG21vodQDa9W4YnMNi47bbbhnWRbVx2pd6SQA069qM9kze0zgUAA2084kknnRRR8zwws88+e7PxxhuHa7DJAjxIlkolgf5IgDKQ8UL+8Ic/RHAnIXXRb8IUcJqZeOKJ+xSIVCT6c606p/MkUBp2P9qEZmPJgURF3HDDDQHUOU+iSQJ23nnnZskll+yL8VFA3Q9h1ylvk4B+Z7wDFWJSgkceeSQUAGMi3/3ud2MQOwe75a3UWxIowB5De2ZnpznndntWn6Q+TX2SHnHEEc0999wTo/IAWowPs3q0n0sTr1QS6K8Esg8a52C7/8ADD8SEuvoYxWGjjTZqvvzlL0fxtG37LZV6SwJFiYymPYErOgMoexhoLPnA2P/aa68Fb4j6MBM17QZQm+TUQ1MWH6MRau3qlwSy31lb9Ek2/OKd33bbbbHP19zFF18cA9ocZAqo+yXqrjipNOzRNJMO78EA3Elj2H7uueciALzYDHhDLr8sPsShnmuuuepBGY0sa9eESyDBWr+kQPCK5SDjP1tr1JvJKgqoJ1zWnV5CadijaSEPSFIYPj8FY+KYYEDHPIkzzTRTs9xyy4Ud9cwzzxzg7lPVeT5HPUSVSgIDIQEALaV2/eijjzZLL710BHeiTAhfwAkLWLd7xw7EtauMzpPAiNaw82GgTXsg2hPgNbXSOeec01x66aURNU+Mj6233rpZY401wnSqPb9tZRQdMqpU6v+ESCC1ZlQc65CDDjoovvT0WcGdDDSyCkkFY0KuVed2vgRGLGAbMEytGNACbw8HjdrnJqAW44MruRgfe+65Z/CGZp2m2XhgRk2j2zdqnvpfEhgfCeiTqVgY4BbcSb/V17bZZpsGf23bvkq9L4ERS4nkoCLNxEMBwE1ki/owmCN94QtfiGBM1lNMMUVo0Knx1APS+w9HJ9whsNZXTWZhQl3WIZIp4XjPij1TfbETWmpo6jBiNWxAjfbwQKA8jj766Ob+++8PUDb9FmeXBRZYICiOpEuc4+FI0B6aJqqrjGQJ0J4B9pFHHhnzeOqDH/nIR5rdd989bK6rL46s3tGzgA1kdW5JpwfM1pnefPPN5vTTT48RdwM5BmwEYtpyyy2b2Wabre+z0znK8WDYtiSAZ1m1LgkMpASSAsl+dvvtt8esMQnOpolbaKGFAshrzGQgJd/5ZfUsJUIrSaDVDDq/hZUHs6jTTjut4do75ZRTNuuvv36Y533yk5+MPEA5zfk6vwmrhr0kAX1U37UG0Gyu2feLSePrTh+96aabGmMpwFofL/fzXuoB73wvPathA91MHgBR88yTeO6550awd3ar+++/f2jVIuhlaj8v99W6JDDUEgDOf/3rX2OQUbgD4G0fKiQHvoG1fZVGjgR6FrBpKMygBGNi8XHhhReG5sKGerfddmvWXHPN6Pg6fXZ85+TnaAH3yHkIOu1O9UN90kS6hx9+ePRb/010sdpqq4X2TQnxFZh9t9PuoeozOBLoasDWaWkeOriFtqEDA+rrr7++zyPsL3/5Swwg8kg00t4+q0sGylEOkHZ+gfXgdLYqddwkoC/Trtlc86jlbm7W8z322CO29U9L9vlxK7Vy9YIEuhqwgSyA1XGtX3/99ebaa68NfpppnuOCMJmM1CANV3LJfimBuf2zsn07MtVPSWCIJaAPmo/RV6F+zZppp512aj796U9Hny3OeogbpIMu19WATY46NBvVSy65JKbfevDBB0O8guMwzZtnnnn6XMUBu1SaSYihfjpUAq+88kqMrwihivbguGVg3HYpFB3aaENUra4GbMGYWHsIxoTv++hHPxqBmFAfuOoPfvCDoZEA9aRPaNcWoJ2a9hDJui5TEhirBPTLU045JcL1Amhu59/61rdivKX661jF1/MZOsqsLzXgBFQDgLnQLLLD4vUA9U9+8pPmd7/7XcRUYPoEqE3FJY3tszHL6vkWrhvseAlQJiz6rC/ExRdfvOEngLIzUfOxxx7bp1nrt9V3O75JB62CHaVhZ0dM7VeH1ZHzM5Bb7g9+8IOIRS0m9TTTTBOzbqy88sqhXdNIEvRJLMsbNOlVwSWBAZCAPmsx0Pid73wnxmKA93TTTRehU8emfAxAFaqILpFARwF2gi2gzcEWa1HzjjrqqBhQBOAGX4ygM3HyySjJl+cDev8T6LukLaqaI1QCAFl/NQnBNddcE4qGPmz2c44ylUoCKYFhAewE1qxEru236Kx/+tOfIggTjZqJnhjT8803X7P55ps3yy67bJg3yYsyAczOseQ+25VKAp0oAX20PenDvG733XffAGvgnTbX1Y/bJVXbQw7YNGRJp82Oq8PSqnVOVAeAPuGEExoxFHh1AWihJEUoG1vshCynmrYk0KkSAMhJ19m2HHzwwTFRhjpPPfXUEc7X16NnIvN26v1UvYZOAkMO2Dofu1LOADmgaP3CCy/EJ+GZZ54ZM0Gz+GA/baFZ67hFcQxdx6grDZ4EPAP6vGQbDSJkQg48mlDXlHNC/jpe/X7w2qLbSh5yK5HsqLRrHonM8c4444yYfuuZZ56JgRYzuqyzzjphmmcgUcLz6byWSiWBbpYAjVr/9yyg/gyaG6fRx2efffYAcCapqYmP7auym2VRdR8/CQy4hq0j6mjJvemUqSEkBULDFozpuOOOawS2YZpnbsR99tmnWX311Ztpp522L06C2wHSeW4B9vg1cOXuTAl4Rixsrn/961/3PTOoEW7okuOpsHTmXVSthloCgwLYqT0Abds0aUDrP5dxwZjMlsGVfJZZZonJA0xqa1YXmkWmBPr8X+uSQC9IwDNhYXNtUD2fj7XWWqv58pe/3OdDQOOuVBJol8CA94gE5tQggK5tA4kcAMRIwM198YtfjOm3OAlMMskk0YELoNubprZ7VQIUF44xhxxySFiH6Pdsrnk0lkbdq60+MPc14IDdrl3rlCgPFh+/+tWvAqiXWGKJsPhYZJFFYuCxHeCdW6kk0OsSoMBcdtllsdhmDbL99ts3M844Y43R9HrjT+D99WvQMT/p8NM+2/wHvLhpSThTo94nnXRSfPaxoUZ5bL311s28887bV+XkuZ1f2nWfWGqjxySgfwNmz4vn5OWXX24oLI8//niYqXomOM2gA+XNAfYUg30W5yrHc2NbymP5LOVxx9q3fdUavMzz2s+1L8tvPx4XqJ+OkkC/NOzseBoZ/6azWOuI559/fvByv//978N1fJNNNmm22GKL4KrlA8zVKTqqD1RlBlkC2d/1fxH4eOk+9dRT8YXJfHW//fYLWhDApgKUQGztPCZ/6BLbWZ5q25Ynwdlx21Kel4pVltF+u87P/O3ltuep7c6RQL8AG+hmR3rrrbei85133nkxmPj888/HPIni97InnX766aPjuOXqEJ3T8FWToZOAZwVoUmruueee5tRTT42LA9BNN900/Azs8HzQhI844ogAaPs8a5/73OdCI3fc/wRnx3M7QTvLyWPXXXddzGPKn0Ed2lOeo1zgXqnzJdAvSgT1ofPde++9DUeXSy+9NOxJ55xzzmallVaK2L0GEnMwUWdIgC8Nu/M7RdVwYCWg71NsPDe8du++++54HjjH/PSnP21yTtEEdf9Zi6BIfLXSxoH4KqusEufls5RA6z+gp4HT0D2bkv+bbbZZc99998XEvfK323Q7R+LEpgzHLZU6VwL90rBZetASrrjiiuCr559//ma99dZrll566XCrBdAWHTABmiZQHaJzO0LVbOAkAPwskj6f2yeffHJo2J4LA4077LBDhAZOzhrAOua/qH0LLrhgPF9A3jOH6z7wwAObl156KUDe3KQ33nhjhBl2rucPIJupxjVp75479OTaa68d9bFvySWXbK6++uoYY/KcOsZ5RxmVOlsC/QJszi06lmm3cNRifHz4wx+OfToAkJZ0vEz2VyoJjBQJAGpg6TmxbbINTjH2Sb5EgaRjUq49O5Zbb701vlqBrcVztuOOO4b2vOqqq4bCdNhhhwVAy8sz2DVYZH33u9+N8A5eCHPPPXeAt0FOX8SHHnpoBFKjeX/zm98MLZ45IWc1L4T2ZzYqVj8dJYF+USK06a9//esxsW2OPGdH1NkKnDuqjasyQyyB1LAThHHVJiJAf0goD1YhKER5abaZV0xsno4AdKKJJgoNnM+C500EPxNI084FSfPsmVT6N7/5TfPjH/84NGZmtJzSDG4+/fTTzfHHH988/PDDzQ033BDU5Z577hngfuSRR8ZkH+gQceYFVxMtsAB7iDvLeF7uPyrweJyoE2jodmC2nZ1uPIqqrCWBnpRAatYAmc01+jCVmW233bb5zGc+E9r26J4ZQC1sg6BnnjOL8KuA2tcs7puXsLkfPXfyA1plGTfK9S9/+ctw0PEff66ctBRhaktrp2jxkeAfMbq69GTjdPFN9YunoAF4u9MM8hMuAbsavYt7Q1V9QCQApDPRhPfYY48ATvuA7ZZbbhm0BABt167zHOfTpNGMQNqzNdVUU4VGzHbbM8dzWOAoeYGuBaUhiBRaBAfOs9i5QNoApmcTsHsR2DaYqX5XXnll88YbbxRgZwN08Po9e+21117jWz+N3b44f9T/41tm5S8J9IoEgCiQlA444IDmkksuCeCk5Jx11lkBvGNScJz7yCOPxMCg2DryScqjBQPZyy+/PEI70NQBtXJp3kxozVCDbuFljDN37CMf+UiYBaJbgDxKk4YvrKsBzJ133jkGLFP5igvWT0dKoF8cdkfeSVWqJNAhEgC6KBGBzoQKZpon4Yk5zaAwxpScy9wuKQ7/KUOZ0psYuAJxx2ynJk1jZ9bnfOU4JmUe5Skj96sn0G//Ws5r1brzJFCA3XltUjXqQgkAQikB9tVXX42BxmuvvTaAM+Nc03ZpvWNKzgegEjDOcjO/fYDafiBtsW1JYAfC/reDvvMzT4K74/YBeHVyfpaR16t1Z0mgX4OOnXULVZuSwPBLAMi2DzSKpcPL0D5c9d577x3UBLCU13p0CWCm9ju64/Yp750SIB5bai/DAGSl7pDA6HtNd9S9alkS6BgJpGaKbjAwmO7lwHnFFVfss8JIGqNjKl4V6SoJjP1V3FW3U5UtCQyPBJKmQDGIc226O1o06w6OLEmD0J6TmhiemtZVu1kCBdjd3HpV946RAHCmXXNQ4RqeSRC0z372s2/jhlMbzzy1LgmMqwQKsMdVUpWvJPAOEgDYbJpZyTKf81+MHdN+Aehx4ZXfofg6VBIICRRgV0coCQyABGjXJ554YsTrQHtwVNl9992bj33sY2McYByAy1YRI0wCNeg4whq8bndwJPDoo482gjHRpi1rrrlmOKsYdCwKZHBkPhJLLQ17JLZ63fMESwAQSzRrpnu77LJLUCGoj5lnnjkm1E0aRN6xmepNcIWqgBEhgQLsEdHMdZMDLQEgzNoDEJ9yyikRlxpAs28WBnWaaabp06xLwx5o6Y/c8ooSGbltX3c+ABJ48sknI2YHTVsS7wMd0u6YUoA9AIKuIkICBdjVEUoC/ZAA7RpImxDg2WefjRK4nZsMAFg7LgHr3O7HZeqUksDbJFCUyNvEUX9KAqOXQFIgjgJhZntsrk1KAJAFT9pqq60iil5p1KOXYe2dcAlU8KcJl2GVMAIkQJvGVxtglIQpNSnuXXfdFYDNOcZEBVNOOWUcL9AeAZ1iGG6xKJFhEHpdsvskAKxp0mntcdJJJ8Vs5Kl5C5s6+eSTB03SfXdXNe4WCRQl0i0tVfUcVgkAa/FCaNi//e1vY65E/6X1118/JhCQh6WIPGnSN6yVrov3nASKEum5Jq0bGgwJAGGAbHLbDTfcsPn5z38ePDbzPVz2dNNN97bLFiXyNnHUnwGSQGnYAyTIKqa3JQCA33rrrZiR/Be/+EWAt4FHkfg+8YlPxM0XSPd2H+iEuysOuxNaoerQFRIw/6E5Gs3QApy/8pWvNKuvvnqAd1fcQFWy6yVQgN31TVg3MFgSMKCYC0rEpASPPfZYgLUZzXfddddmkkkmCW57sOpQ5ZYE2iVQlEi7NGq7JNAmAWFSDR7Spm+66abmjDPOCCsR+zbddNPm85//fPDYRYW0Ca02B1UCpWEPqnir8G6VQJrwAefXX389QqX+5S9/idv5whe+0Gy++ebhLEPzztlkuvVeq97dI4EC7O5pq6rpEEsAHcJhhmb961//OugRFMg222zTfPzjHw/NG6AD90olgaGQQJn1DYWU6xodL4FRQTfB+rnnnmvmnXfe5o033gh6RGCn4447rjHTuDzpUIMWKWqk45u56ytYGnbXN2HdwGBIgMkeEDewyPYa9WH2GP+BNXBOflveAuvBaIUqc1QJFGCPKpH6XxJomrD8ENjpqquuCjM+mjSwNjlBejiWoEoCQy2BokSGWuJ1vY6UwKiUyAsvvNAstthizdNPPx20x3zzzRdOM+3adUfeSFWqpyVQZn093LyjglC7Zpif/D7lfe63f9bLNxItH1I+5HH44YcHWJML7frggw9uJp544pCT45VKAsMhgQLs4ZD6MFwTeFv+9re/xSf9M888E0ANpKaaaqqwegBO0kjlY903Gd1yyy1hGWJQkXy23377Zp555gngJp+U0zA0Y11yun5zuAAAIABJREFUhEugAHsEdQAu1YIWXXDBBc1rr70WJmtAyrLRRhs1a6+9dkhjpAK2myeXQw45pHnllVdCLrPPPnuY8Y1kmYygR6Tjb7UAu+ObaGAqyJ74qKOOah544IGYxmquueYKxw8g/vvf/7458MADmzfffDM8+IATTXMkgZT7pU2fdtppza233hratFlkBHdiHTKSZDEwPa5KGQwJlJXIYEi1Q8oEQIAaDXLkkUc2L774YnPMMcc0PPXwsj7tJ5pooubTn/50aJWXXnpp8+CDDwZYd8gtDGo1cNEpHxcSJ+TEE0+Mff4vv/zyzXLLLRdyQo9UKgkMtwQKsIe7BQbx+kCZBn3NNddEzGbaooliJWBNa8yFB9/Xv/715ic/+UkA/EjQKIFwDria8stXxu9+97uQDV5/9913jxeafMVbD2JHraLHWQIF2OMsqu7L6DP/j3/8Y3PYYYfF7N4f/ehHQ3tOkGq/I5//ghldffXVMev3SNEoAbF7ve6668Jsj8zIZ+edd24+85nPxAvNcV8rlUoCwy2BAuwhbgGA0N8lq9p+vn3t/9u3gYy4FzvttFMz22yz9WnVNO9RE+BCD4j5/PDDD48oWuTVV19t9tprr/iyIJcvf/nLzXrrrRciyhdXadij9pj6PxwSqEHH4ZD6v68JXFEW73//+/tAF0AkSKAlAAWNT175gKrjf/7zn6MU/3njPfHEE1EWd2n5rX3ef+5zn2uWWWaZON++MSXgjsuef/75m6eeeqoxC/hISGRiMPbRRx8NbdpXyL777hsT6r6TvEaCbOoeO08CY36CO6+uPVEjIAx8JWBsAZYJznmcFizfyy+/HOBM87377rubhx56KED7V7/6VazlAcgGFjm70BYnm2yy5vnnn2/uv//+5oc//GFcK685JiGqh5eAFwCgGlv+MZXTTfvd4z333BMT6nrJkbkJdVFD2qFSSaDTJFCAPcQt0g6EQAIwWESDA8oGv5je/eY3vwlPO67QZuk2ySut16Ah2+ApppiiWXnllZvrr78+osn94Q9/CM2aaR7LDyFBd9lll9DK3WJq7WO6XfXycnjyySebRRZZZEzZemo/+e+xxx6NiQq0Ac56iy22CJkVYPdUU/fMzRRgD3JTAsJckt5IbRZXbOFZh76gadOSURM+zfHO4lmY7cT8gQYEF1100eauu+6K9ZVXXtl86UtfigD7NOtJJ500pqwSElSw/SWWWKIPqAFQgrZtdWpfEwNnEVNfoV7UsRdTysC9pc21AVf3u+OOO4bHp3Ygg0olgU6TQAV/GuQWAYxoBuBoLRD+eeedF9o0u2gcs3jLtNu55547AHzhhRduLrroomaFFVZoLr/88mbxxRdvzNQNgAH8TDPN1Pzyl78MEKeNK+Pee+9tPvShD4VVyH333dfceeedzZRTTtlstdVWoTEDpKRZ1AUoqZvkv+tvvPHGsay44oo9qWW656Q+fEksvfTSQR2RDXvrU045JeKFkIc0usHZOFA/JYFhkkAB9iALHkD45H788cebPffcM4AQIANI3oa86HDN0047bYPWoOHiqrmJn3/++Q3wZEf91a9+NdYLLbRQc/HFFzcrrbRSuJgDeUANfFEnnGLEb8ZhC1jkM1/QomWXXbZx7owzzhgADZQAFU38xhtvDB7X8e22265Pw3a8lxLt2iAvWW222Wbx4rSNXrr22mvjy0YeHL52q0HHXmr93riXAuxBbkcPPhtfAYRWW221GNASeElcZQOIuGuaHtAG1rTAOeecs7nwwgtDo0aHfPGLX2xuvvnmWDt3jjnmiDKBuTCgAPv2228PwDn66KPDo9FnPg39O9/5TuMcMUTkoVm2a9YoGIGNvva1rzULLLBAgDjQsj81zUEW0ZAVry185aCWxE4xyEqL5iAj1rVt95zy6bUX1pAJui40aBIowB5g0ebDrlgAgU9eZ511gl8GigYMgScag0a94IILNueee26zwQYbNMcee2x4G377298OSmTdddcNV2ncKr516623bhzbb7/9mlVWWSVshXHbXKrFbaZdzzLLLM0000wTGvonP/nJvrsDRgYkafu0TP/Vz6AmwPc/6w6oAFe3A7b78fJJ4HW/HInIDjXlvzjXV1xxRcghNeq871z3CbE2SgLDLIEadByEBkh+GDBy9cYpX3bZZaHdPvLIIwESuOepp566Oemkk4JnNk/gN77xjebss8+OT3XbjvG4+973vteYS5BFg3y09YMOOqj57//+7xiYxFPbplXTjKXRgS5gtoyUlC+gt956K+QCoH/wgx/0TahrYHH//fePY+SVwD5S5FP32X0SKMAehDajqQFr3LHIbwazADftF1eN7ph88smDO2bZsdRSS4XZnqrQxr/5zW82qA18slCfvPAEJQIuW265ZQQlEmHvzDPPDNrD9VKTBFK0Zf+tR3IiAwkwA2sDsyeffHLscyxpoJEup5HcR7rt3guwB6HFgANtjRWIQUEDXKgHHDWgBuQGG/2XzjnnnKBAVl111QBxIM2Gmscd+sM2rXrbbbdtTj311NC2aYp4b9YNUoK0z3gafn7ex8ER+kMmXpwSLZtcX3/99aB+mE4KhiUB76I/QhT10+ESKMAegAYC0JI1kGChAVDvuOOOAG28s8FBg4cGG1lx+G8AjBWHQTBOMKxBmPgBahYlosd961vfipCoBxxwQFhy8MRzDCAbdHQ9AJ0UiG2pNOz/i7GSsjChLrt1bYQ2MsiI60cj5Qs2BFc/JYEOlkBv2W0Nk6ATsNER7KNZg3zwgx8MO2k0xic+8YkYMOQIwyoEyHKUAbo//vGPgwYxqJime2JWA3kgjb+2jSZhdgdoeESiWFh3SMCZa7q1l4B6pGY5TCLpqMsa3BWxMD0a2bUbeATWNGvtUPx1RzVZVWYMEigrkTEIZnx2A0j2zMzn0Brsn5999tkYCGSWx+GFqzl7X67ltGA20+gRdtFAnimfgUgauMFGyWc8KxOaoPJMXwV0PvWpT0U5rgtoLPnScB4A2m233QLgR/KnPjl7gaGTTj/99Hih8SA1RRorHS78I1k+49PHK29nSKA07AFoh+RAaXEsNngpzjDDDGFqxzkGEC+55JLh9sy0DojQ7sQNMQDJkQZos/TgYINb5VjDhhrXjcM2wcAJJ5wQA5SsRYARagR4M//DlXOmAe5M184666wBuLPuL4INvK8RLzUvOIO2ZKXNKpUEuk0CBdgD0GK0W04wwpKy7z388MMb5nuAAfUx66yzhvciyw4aHQ6VpgeEeTTedtttEXEPaKM9BG4CMuy1DTLiuG2zcqC9i9SHI5dnrbXWirKERaVZmzUGbaI+tPGRllBBXojunWOMQduMQmgMgfs9zdoLs1JJoNskUIOOA9BiAILFhlCdtGAOLoCTyzdw5V0oYBOrEZSIgUOBltAh4oqw9AC+6BQaN83ZYCNNGwdu2+LTnokgTZqTDasRTjc4WXSMlwBvRvw5+gRfziJlpCQatKQ9jBMYF/CSs83+3FiA+CpemrmMFNnUffaGBAqwB6Ad2fkCC16MQJQVCJoCgAIP+2h8nGF4H7IG4ZVI+zbQyKnGMTbCNO5NN900wIY5oMlz995779DaAbmyDEqiScwk4xNf8H2AZHANBYN28ZIYafwsmgM4S75wOBdpF3IgZ2MJthPY89gAdIEqoiQwJBKoQcd+iDkf+DzVZziQpvmKpifRotEbHGNQHQAaoPgUx2mjSWjlrDvkQ6fgWeVnVSIYEW5b1D02w7wlrYVRdS4axXkGO9l406wF3qfJuw5HGxo/jbJX06jt4L97x++vvvrqQSWR6cc//vF4SU4//fQhCnkAN3AfaS+1Xu0LI+W+SsPuR0vjrIGC5KEXx0O8D9otDdo8igCYVQgrEfwyj0ecNVM8A4UPPvhgBHGyj4YMqAEOxw4gDfyBtlgjwJo3pCh+rkFDFxfbmns7IFIugHYtVAjNflRA68etdt0pABitZLARMHuZaRsTQJAHnj+18K67uarwiJdAadj96ALAGhgAAOZ6XMjx0DRjZnk+x8WsBhYsQfDVgByQcpQB5jRl2jaAZmKmHMDLjE8ZwNcgGbBm8gfEzTijPFOAAXngLT/t3QuBtk3Dp8GbSBZtYoCtV9OoLyT/Dewuv/zyIQfAjAbB8xvoRV2VRt2rvWFk3FcBdj/aGVhbaNabbLJJxPMwuEd7wx8bTGQtAkgBMnAGGOgJIA6ExRVhi01DVpYYI4BW6FQWHoAd+KJBROOTH0ijQ9hks+HOQUxek6xJUqs2QGnWb4OPKIFeTaMCtvv3kkIHpSZt4gcvNkBdgN2rPWHk3FfvPs2D2IYoESDMThpXCqQBKpd0AAt4mfQBWtod0ASeLDmAM1BO8GVyRqPmxu4ctAcuGqhb47mtvQCslcHOOgfVDEiyNFE+zRLv7b9Z1CV1BWyu24vJvSVws8rhOQq43TebeF8vjpdm3YutP/LuqTjsfrQ5AGAbDUyZ4hk4RFWgStJtnOMLJxbxqmnfNO3kvml6ABSQs+5wLnqEJYl9NGe0hzVu2xpgA2nat/JYgeC5UQDKoLkDfwOgU001VXg6elnY77qu57q9loAzbZq8mUCinbQPSgp3Ta6WSiWBXpBAAXY/WhGoAkzgyC7aRLhcwQ0yAlX7TUjAu9E28z3212gPCT/NqzHnYQTA4ozQyH2+A31ALVgREJePhog+kU85QDqntfIywIHT3BO8zVDDFjupAeteTNrCC1OoWdY4XkxeUsCbLCqVBHpJAsVh96M1gTAzPs4urD0kg44cMwR+ot3RcnHWBgVTc6b5oTVw08k3O4aXzheAqHI04auuuirsug1WAmiATVMG7q6fmqVt5eLIvTAAFouILbbYImJqqw+w7lUNm/zIbplllglKijbtq8dED75SigrpRwevUzpWAr2pdg2yuFkfMMfj5gwQgCG+NAe1UCFoDsfYRQNpVh6Ak9Ynf3LSaIw11lgjrEg4vuDCaeY+8Z3HBBAgA358rOsyFaSNm4XGCwM1wyoEWOG45RWcn5elsiWaaC8kLy2JTFL2wtCijdy/L5l99tknOP1euN+6h5JAuwRKw26XRj+3fZKzCBHTmgke6xGgDHxpxAYSmeQBeoBjDkGAa5AS7w2Y0R2AFtgbMARI6BFlGZRMSsPasVtuuSU+/QG6/DRtZoCpSaNRlHXooYfGdZ3TC6DtPixkTp4/+9nPwiLGvVnEWuH96TjZl4bdz05dp3WkBErDHoBmARQcV1hqMCMTTe9HP/pRRNqjSQPuSy65JLwRgQ3t24CheCPspGmHwCdthYE7AAbO6A37ffrL63ygj6+WXJNlCmCiXdLyrVmZ9GJKhyXaNK7fZA/5MjP5gy8LeciMDK0rlQR6RQK98Z08zK2BTxbwSbAhMazNxI2XvvTSS0MDFD0PKBucpInTAmm/KAsmgQBfWFWDhAbMOODQtmnLOGw0CCBm3w2ogTOzwtxGpeBrlUNzZzIojkkvJvfo/r24jjjiiJCbF5j7F2vFC8zLLzn+XpRB3dPIlUBRIgPQ9sABuKIv2GajPMzXaBAQ1QGEWX1IQNk2xxdaIqDhoeh81iSAFtDTkgE/QKe947Rp2MCbtk2TF3Pbf9QKoHIt2qV8QJvzDX4XwNFCgV23J7IG1sYEBHRiIeP+BMUyQw+wTkBPcO/2e676lwRSAkWJpCQmcA1IaMAsQHgZAmNgSrMGyAYXgTMQB76OAVRcK1AG4MAcdSJYkQXo2geETGRg26AlcAb6wIrmzRpFGfJ5ObBQMTCJKrFPooX2AmC7B18xu+++e5/NNcoJb+1e834nsDnr9JJAR0qgAHuAmgVA0+w4suBW0RrAFGADUA4dABbwAm7xRQCwBGxRIAYSN9988+C25bPfgKUpw3g30pxpyl4ONGnaOD4c2Psvr+swA1QHLwR1stDgeyF58ZCH2CnAGUdtzCCDO/XCPdY9lATGJIHu/0Ye050N4X4gIgFF9s8oCvwyYKYR06KBKuCkXdsHaNgPC4sK1DncGIjceeedg9+mSQJtnpKcQIA9qweAzPWdZQgKRXn4bNcWPMp/54qpLSa3BOB7JZGZeOBoEfds5ng28BL5VioJ9LIEisMegNYFHMACiNCERYhDgayzzjphqYDaQIHQiA0Q0oY53tC8xb8wKAmwcbJssJUDdC1eBhYOMPIz3fMywFcrk2Yv0b7lB2AGNdlsq1PWK7cH4HaHtIh82ZAxKgRXLVaK/16CvEFZ1aTMihIZ0uapiw2xBIoSGQCBA8NMOGozxwjKBExohBIgkS+1cSZoYlybUQbwpnka0M3yADtgoqEDZLPSGIgETqgRlAnOWmLC5jzn2AZ0tHj7srzI2GU/5JH3Jsa1AVn/3T8em907eRRQd1nDVnX7JYEC7H6J7f8/CWgARkBCozbPojjZ/tOmHQOgwBcIAWCgmsBq9hia4wILLBDctzxACDixiKBJAyfJfgOZyjvqqKNikBPNIuIfDR+V4vxeSF5w7td9mVAXNSSJbLjhhhvGMbKVr5tfTL3QVnUPgy+B3niqB19O73gFQAEgrQG3QEy05tSmacEA13/5gDjgTjByziKLLBIWJKwdROTDgxvA5MlnhnTBpXDYqXW7FgAD3MoHasz9DDTmVFjvWOkOPUgWFsmavHxlkAG5kqOxAR6c7tuxdjl26G1VtUoCAyKB0rAHRIxvLwSoABJWIkAHuNoHbBNwAawlQclxMTDQKGZLFxPEeSussEJzyCGHhJmfMp2DCgHWNGwWEkANaP3whz8M/lxt5OvGlGBNTpL78oVx+umn9wEzs0lOSPKSWyYvwkolgV6WQPXwQWjdBBuAm9qffQBGhD8Aa0BSStDOaog6xzIkNUvnJfArCyXw/e9/P44brHQcaLEeobUvtthiXU0NJGCTnYROwvOjRCSREFnSVCoJjEQJFGAPQqvT9ABPasTAx2L/0ksvHRo0vpnlh/2ZDyAnUNvvPyBmDYHLvuCCC8KaBD8ulKvyAL58JlRg+8370bndmtwPaxD3QIbnn39+3Jv7cb+oIffpGFlVKgmMJAkUYA9AawPMBBggApR//vOf95UMkBOImebRGMVrNvdgO0jzWOQIYyAyNU0AlueLP8Jkz+CjQUt55KWFGrDkFm+/pD7dCNy+GACzNVrIoKovB/fC3tpCJu7bulJJYCRJoAB7AFo7gRPQAGAaIC9GQApAE6xdSh5xQnDP45tcxwLAAVqWe/nllwfHLUyrfd2c1J+G7T4PP/zwmGEeWHPVN7mwGC3+4+8rlQRGmgQKsAegxYELEEl7YVYMvBCBdXLMtMEE3P5eElArIzV6ZXspmKbM0gvJveHkTXFm2q+0uea5aVq1SiWBkSyB7lbHOqTlgDHNEGhvttlmYRfN3Vy41UyAyDIhGrDyJWWgCWiZZ599dpgEih8yIWVnPYd77QuEFcxOO+0U8iJbXpuchooCGe7WqesPtwRKwx6AFqD5WgRvwrsaFExTtO9973tBgXAZp3mblUagIuALgJKLVo3U1G3TnlmHtHO1tq+//voI32ruR3bXXgLAzfVtdyOotb/IvIjYXJv6jIw4BDF35AxEPpVKAiNZAhVLZABaHy1BuzXHIisNzis+4X/84x8H0HBuOfrooyP+hxlofOab9ssUYAB22WWXjXNQAQALMAFy247jqFEsLEvEIxFelXnb9ttvH+VyhafNm9eRhtpNyb16EQFnLykvvIUXXjgCWpEHm2sDj5xkALt9lUoCI1UC3fV0d2grAVVgIrwpLpmX47nnnhsT4JrUQKhTZndmmGElwhNxhx12CNB1TNAnQG+w7YUXXggwZy3C9th+g5Rc12meYpPMNttsMbCJDvFiOOecc8K6pFspEfLzheBFZmDRlwMgR/OwfEmQ7tb769BuW9XqQgkUYA9AowEXgYlMiItXFpEvbaeBkSTsKUsHoMTlXES/2WefPfKbUSZjV//2t78NzRt4owV49MnP8kRZlhzUtH722WdDE1900UUD9LoV1MjQSw7l495p1MDbFGnAXHJv8iWXHzvrpyQwgiRQg479bGzAQau2pgECZAB8zz33BJfNW/Gqq66KiQqA7gknnBBUhllgfOLTqsUMoR3jt035hfKw3wS+QJ/NsdjP5oEE1GeddVYMMNKyM6yoAFMGOr0o8uXQz1sattPI0Evp2GOPjdgogFkQLBPq2sblVyoJlAT+b6CrVWn8JPCvf/2r9c9//jMW23/7299aP/zhD1vTTjtt68UXX2z95S9/ae22226x/6677mqdc845sX3JJZe0br755tabb77Z+s53vtN68MEHW6+++mpr9913bz3zzDOxOO/Pf/5z6957723tsccerb/+9a+tyy+/vHX11Ve33nrrrdZxxx3Xevzxx1tvvPFGa4455mgdeeSRkUeZ6tJtSZ3Ja7PNNmu9//3vb73vfe9rfehDH2rdc889cb/deE/d1gZV3+6RQA069uO1TSPMZNvg4KmnnhoastnTaboG/zjPiI9NQzRBgYkHbKNPbIvIx4QNHUJrpk3it4Vn5SCCVqFpM2uTzzZOm7u6gc7ll18+KARl0fbRCN1GF6A7LrvsspgWzT2hjPDWHIsMRhp87dYvh+wjtS4JDJQEihLphySBYgIjUDFxroBMgAeIojUANNAF5iw6ABHTNDw2+oJ7OfBl9WEQ0X5gzXIEqKNX0CfKz/Nwu9zTlScI1CabbBJUStan/UXSj9sallNMbyYaofvxwuIcY1YZyUuoUkmgJPAfCdSg439kMc5bQJQJmkFBk+baXmWVVYJrvvfeexuzeBtAswbeRxxxREPzto/WbJ9ofbvsskto2uZe5FZOy37ssccin8FH4VKFFWUeSFPHi++1117NxhtvHCZ85o9MG2waPW0V6HVy8lJh5qi+NGfmiOJcS+rP5tq9SmkdEn/qpyTQxRKAGVIqepQR+/w3jkX5GpdUlMi4SGmUPLRlwl577bUjXrWBxvyMpy1+85vfDC1RpDmgbVICwLvqqquGyZ+BRPtMwPv444/H/I8GFNdff/2YDdx+YKZR2VbTOm0zEbziiisClF3fywLocy4BdgAuO8QoVe6YvwCb2Z66euH5IjH/JZm6f6aLNcjYMc1VFRkgCejf+Yxaozh9kZ9xxhnxDDAeGKfUPXR759T073//e+uOO+5ozTzzzK211lqr9dBDD7V23HHHWK+33nqtl156qXXwwQe3rrzyytaiiy7auvvuu1u33npr67XXXmv94Q9/aN12222tJ598svX73/8+BteWXnrpGKT84x//GIOT//u//xsDbvfff38MLE400UStmWaaqXXuuee2Xn/99VgMdFoM2FmrUzcM0KmjwVP3sfLKK7fe+973tt7znve0ZphhhtYjjzzS+sc//tE5DV01KQkMkAQ8o57rV155pXXWWWe11lxzzdYRRxwRRgf2j2sqSmScXmtvz5SmZmyEcdeiyjGts73nnntGgH00BxtpeQ477LCgRa655ppwgsFZoza22mqroEjw18z0UCYm2eXJaACOqR97bZqnt7G3NM3bglaYdNJJQ1P1xu7kNCq3rv54f/fnywGnz+YaN9/plE4ny7nqNrwSGLWfq03uY4DAzJcDHb8L4ZU5xHl2x+ureFyRvfL9RwK0QCZ5s846a2ujjTZq3X777WGaRyP2/+mnn24ddthhreuvv7510EEHtRZccMHWiiuu2Hr22WdDE7btrXr22We3ttpqqzDz22effVqrrbZaaNGzzz57a+utt24xCfQmlvfOO+9szTLLLK0zzzwztGqa9fi8mf9T+6HfIi9fANY0DXJgksiMj4a9wgorhDmk48wlK5UEuk0Cvhyzn+cXr+dTXz/qqKNaa6yxRuvwww+Pfm5/f7+Gi8Pux0sZf4x/Zc1w/PHHx7Rf+Gzb+OuTTjqp4XmIq+WN6L/jrEZYfHBdv+iii8JhxhsWL20gknbJ3Vxe16B1G8wUX4MW6m299957NzvuuGNw27hepnydnmjR6k6TcL9M9kzi4H4Nwhp49CUhn8HI0rI7vUWrfqNKQL/2BZz9nCOdCbRvvPHGwALOcbyV9XHPQX/7eWebFIwqlQ75T+BM7NhRG/QTz0NwJ0BqCiuzwogrgvpg9aGhHn744ag9kNW4OUCoLPusNSY6xHEAbWGBohMAMRQICxFgx5a7W6wosv7u65e//GXfTDsEsuGGG0awp8xjXakk0I0S8PwyT2XdBQs8uwwMKHFTTz11H1i7t37382779OiE+vqkue+++1pf+tKX4pNnp512Cu/Db37zm60nnniiZeDRgOOPfvSjFu/Gb33rW63ZZput9dxzz8Vnk8E2n00GH1AfBuH23nvv1rHHHhvbPp+uuOKK8HhEiaA/nnrqqdYWW2zR+p//+Z849qlPfSoG6VAI+TnW38+swZape/W5+Kc//am1+OKLhzejPjv33HPHwCt5okwm5FNxsO+hyi8JJGWX63zuPIMMBngde3Z5Iyf9mXmzf/tv6e+zCukrjacECPz4448PvhpIP/zww61vf/vbscZha7xDDz00LECMBAPtZZZZJs4BxCxFNtxww7A04ZJu+7e//W24oysPB37LLbe0bAN5ru1XXXVV8F+4bte76aabWgsvvHBcC6AnRzyetzIk2cnLS+noo49uTTzxxK13v/vdrUkmmaR1/vnndw0PPySCqot0tASSm07wpWC88MILMV5FsYIJgDr7+2DcTHHY/fj28mm/wQYbhBUIO8oDDjggHFgOPfTQsMc2ozk7a3QIWuOpp54KLouzjIBO/hs1NloshKpY1+y15eVEwnGEu7ppsnhColTYKrMMkWacccY4h8E93ox1SvJiuLFOSyxeWMwsssgiEeealQj7a+786sv9vFJJoNMlwGtZf0VneBb5VrB2WmONNcLHwhiVhBpBVw7GWExx2P3oJRpMKFW52kIZAAAgAElEQVQTD/A0ZPQONPFWwBqfbcCQ+7l41/PPP3+AMPM9pjyOAy+ALH72YostFrOeM90T2c/gpRlrnIcP445u8NKAJNd1ke0MaBx00EHReTjdeIkMRgfph3hGe8ruu+8e/J7OjIv3ksPdA+9KJYFukIC+SnE677zzGma7+vIFF1wQXoqc14xreQ6BNf56UNJgqO29XqZPoXXXXTfM0UTTQ4OgNtZZZ53gaTnCcKz5wQ9+0Lr00ktbe+65Z2vnnXduff7znw8awKcV0z7ONCgP2zjqBx54oLXUUkuFU8m1117bWnXVVcPk74QTTojz0Aq77LJLUCKi9X31q18NSmSllVaK6yVXnJxwf3myCW0/nF5SNOr04x//OCLwvetd7wonme9///sRbZDsLJVKAp0ggfbxINsW9IaF05sxJ88kMz3/M3+u5ctzBuvZK0qkH69Bb1lOL0suuWS4ls8777wR25pGzBmECzqzP8GdzPNIK2bGx7X8wgsvjM8oGjqt+Yknnog5Hs0wgxLxycVdXTzo5557Lkz6mLwxE1ImN3X0B6sTmrf4Iz7FTjzxxDDGV6a3u7c8jUDeoU60jPx8RIUwWVR398Yx6NJLL+0zR1S/brF2GWo51vWGVgLoRckXtL7qP/NazzT6ce65547JoH0pe8bSumsoa1mUSD+kjX/GNfskMo8j2mOZZZZp7rvvvmallVZqbrvttgBTQCQ06iuvvBL21GyOdQYBokzEC8xE9cNZWwN0nLXAT3ht04kBugyb6rgydCQhWJ2HA7cW6c/cjo4B/uEA6hQluejwOjt6x72RhXqalHjiiSeOl4k8lUoCnSIBCk5Si2J9/PznP4+xKM+jGEG8caeccsrIM1zPVwF2P3oL7dGgA0DFO7OxvOGGG6IxTXHFxVoAJ3GrhQ/FbeGduabLLyIdV3bgbFYVkbqWWmqpZtZZZ2222Wab0N51HB2Eq7u3O9DDle+3337BVbP9lte5gM9ckGy/vQQAphfDcKXs+OawPPPMM/uqsfrqqzcLLrhg/Hd/6tnJvHtfxWtjREhAX6TwGB8SWO3++++PEBLmXxViwjMFqC3D1W+LEulHVzQyjOJgrWGGb04sBg6BtcHEa6+9NrybaL85oSyt18CkwUhTYekQrEV0iqWXXjocStAZn/3sZyOmCM8on1wGOIRm5aQD8Hk+omQ4oCy++OJxTVSMQY+dd945Xh68IWnlQ/XJBnh1Ymtgba2OXkZiJzgmvrcHwcS6qVnnS2W4On8/mr5O6XIJoDJSoXAr+p7+aj+lC2VJi95oo43i+U6ATrB2znD22wLsfnRA1iCsOA488MBwS0eLAG1zL+K7mPzhaYE36gKNAZzRAzhtFArQ4qLu00sHQBPoPEzg/GfqRotHJbAsAdhA2X8vAfmBorXOpjzr/fffPzqbsKxDBdjqi/7wIEi0Z8FteH36GlEP977eeuvFvbmHSiWB4ZAAcE6Qtm1BYYo5TwGjEBl70mf151QuhqOuo7tmUSKjk8pY9gEopml4ZhMP4JYNIgJn/8XHBkrA2IAgmkJnAMA0YzPJ/OQnP4mBRLFFbMuPOhGxz2AiigPoK5f5HxBkj82MyLVp47R8dAxt+uKLL47j3OFx2YByKJOOTS7qSR4A2sOg0xt0tEj2VSoJDKcEPBsUjLvuuisoRVq1uEAUMbRk+gV04pdfjfr0o+fQZAEpzdlCYwamPp988gNqAG3hPDPzzDNHJ/DWxuHin1l1oEeANXtqs9LQuL/73e8222+/fQxm4qw54AjqD/TZMstrcFOoRvnQK6xI5DOgJ24B6xL8sf1DkRKYycWCo2f9osN7oaBq3Jt8QL1SSWC4JECheOihh6KPGvg3TsRpbdSv0fxaHK56jum6RYmMSTLvsB+nrOGBL7M64G1wETDfcccd4fxiwFEgJ59bOGZvc8CLOkFxsP5gDijJw4wPwBmsZFlimzWJPLhwLwGDmbR41AiLC2U6ziQQSOO/HZcfJcGTEFACSRrwYGkMqTUbsLn11ltDm7btq8FLhjORl1mm9u3cV+uSwEBIgMKgn6cS4TkFvp4Bk1iLXe8L0AxRnrOxUR6d1leLEulHL9H4gBoombE8LUZovj6pgK5OIXIX93MUiXzOA6g6lX20YDbX3visQAC0/WyugbEBSWVb63i57XyfdfLjs33eKQNwy8vskGar/OzAg93x1E+dvMzIRWIz7mvCtduXfoi8TikJjJMEgDNqEWhnP/Q8oOj0TeNKaEfPo9TeL0e3PU4XHcJMBdj9ELbO4HNKh0hLEGAKJGnajqFG5EtKxKAjrhmIsenkeGPQUCxspnk0U6Z/aBCdyyea2CNcuDno0KjRH6uttlp0SOZyJuEVywQlI4Y2N/aFFloorkHD5/YOSCUvi8FMXgxiqXgB0Vp8RYh7jTIa7GsP5n1V2d0lAcoLDpqGTZlhmURpAOI/+tGPYg5Wd5Q8dXfdXdMUYPejxcxeTlM2MMhzjzZtZJmWbNCPpg2ogKZBR3QFPhuQ0ZwBG6qAHTaLEp9nTPtQGvheMbZ1OGaA7K5N5msSA/lOOOGEGHRkFpjTjLERPeqoo+I4Y3+atc4JyFmzAMwE7n7c7mhPUV4uyvdl4IWBBlF3ljO0Gds0l0olgcGQgL6X/duahu1LD+W46667hm8CGoQiZLBen00apBv7ZXHY/ehFtEjaL1BktcFm+qabbopBPv/ZcLLp/OIXvxiAmRMYGIzTkQA7jVnHQZvgumkGOpA3v084tqCO0dxZldDkdTYvAHx2Jpq4/ey87betHJq+fSY7SOcVYDoQyYOhvnktXxpM9rwsPDDqS7PxIlEX1/W1UakkMNASaAdsfc0zwNHM80epEUzNM9IrqZ6ifrSkDgBAeS2iIi6//PJwYjHIx47TGx1Ycl8H1ugOcQi84b39acBoExq4PEapvQRw1zRxA5c0U+7mNFcgjW4xOGltINF+g5z2AXkAz8bbmuaORxei1UuBxYaOPVBJWR4O4GzNucdgquR6PMPch+OZd6CuXeWUBNoloH+h4yxMZllLvfjii6GoAOvUptvP6ebtAux+tJ5OwlKDo4z5Gll4MLOjdZuf0JtdHuAJWNEmvCBx1r/+9a+DezYAIo8YJDg2gC6/c7/+9a8Hn40C0QEBIprlG9/4RtApwNyLQhk4baCJF3ceBwC8OJM/dAqbbuFXnTNQibbsAXFdVA2KB0fo4UCDCD0pOV6a9UBJvcoZnQQ8Q7Rq9GE+e0xjjaHof72WihLpR4virJn0iYVtkI9jC4cZdtUC86MG0AIGGXUcb375ACrqxJyP6BGaNyAGynhqmrQBRkALkGnh8vKo5OmI2mDcb3CS+7sXhBjZ3ONp2zR71AQw1YF5PbJmEWCd9QjNG42RINrfDu0hQYlYGzwVyF2ZvjzcnxH41L5dL7f7Ieo6pSQQEsixkKThUiwUIv3e87XWWmvFMyQP5UH/1Mf728/zGp20fs9eRq4qjZcEdB4mdQYfabYoAN6FvKW4YxsAxOECUtQEW2lgjleTB6WBGkF52EaNAGecL1tRNAo6wzatm1cjDRbXDRgTeO0DksDaACM3dYOd6BgvC0DJdlu0Mcmgps47EB1ZGTT5ww47LO7Ff5qNaIU46wRp9e2lB2a8OkplHhAJUED0I0qC5PmzeM70QQOKvlTT50D/S6Duub7XCYHDu60Ob775ZutrX/taa9FFF40JC8y9aPLdr3/96zGn2yqrrBJzLprj7bzzzmvttddeMUejiXjPPvvsmJRg+eWXj32PP/54y4QH5mk0sa/9L774Yuv6669vrb766hHg3wQGF154YQT932GHHVoPPfRQbJvAwHyOjz76aGubbbaJfSZLOPjgg2O/uSKvvvrqmC9y7bXXjol/BVnPCQ76K3fB2c1LaRLi//qv/4o5Gk3O8NJLL8XcjYMVvL2/9a3zulsC+qtnzmQYJvEw5+n6668f86b++c9/jn0mDjBBda/3PdpWpfGUgM5hxpljjjmmZfLNxx57LGY/B7prrbVWAKdZ0O++++7oVJdffnnMnP7+97+/9bvf/a613HLLxYwsZ555Zmu77bYLcAW0Zl02A4vOePHFF8fLANDqiMreZJNNYttsNt/97ndjdotdd921dfPNN0eH3myzzSKfmWu8BEwGDLDNSKPMRx55pG92cvfQ32Q2mUMOOaT13ve+N2aQmXzyyVs/+9nPomwPVaWSwEBKAEhbPBunnnpqzNB022239YG4vkxxsZ6Qfj2QdR6ssorD7sdHGzM2MTuMRhvkwxWjOjiK4Jtx2+Jd47pZdYhTLfzqxhtvHOEbDZKw47YPlcHMj5ssGoGFCAsLVEbG1kZvuKbPO7bfqA3XVgbqJCc6wJczA0SL+Iw0IMgtnh04t3j8ON7bsaQtxvX287NUPZgmmkzYIKrP1A033DCcfZL+yPW4ll35SgLtEkCv5aLPo/70+2OOOSaoEc8ZmlCe5LY9O7aTimsvr5e2y0qkH61pUMPCbIijiwFC3okM9XUmvO4DDzwQU4Mx22MlYiAScAJxUwwZLGErzdrEoKUktCrAxluLBMjJBs8NmNlkOw9Y6pjsuDnFAGkgqjzcN/NA04cBcccNUMqrvuqAO+8PrwewXVcd991336iPMr1YcNf5AgDWlUoCEyIBQEwRANSUG3HgKUGssShEFBJ9WF/T7www+p/rCbl2x587WKp7L5frs2uDDTZoLbTQQsEH237++eeDHsE/46F9sh133HGtiy66qPW9730vOOm55porJt1dYYUV4vPO5LRbbLFFlLH77ru3Dj/88KBT0CAm733llVeiTBQEnjrz3nXXXTGpr09EZZvM9/XXX29tueWWke/ee+9tLbvsskGJXHXVVa3VVlstJg3Fsd9zzz3xeTm+1IVPTtdD40w00USt973vfa1JJ520hV/3uYo7bF96uf3r3gZXAp4vvDX6cJ999mmh+tB5+qz9IzkVJdKPVypNU/wPdAevRO7lnGc4zYjfwQba6DWag5WIAFA33nhjGPNztqEJy4eeoCEw6TN9Fk2ZzbXyxEEQ7xrdgDJhIeI8NMmiiy4a2gWTPucZHRc72zRjrsdBB22CrkFdOM70jrZCS1FPGsn4eIC5ZxSL8pgKStzp2aGzWqHdtKf+aPHt59f2yJWArznPi1AH+jRTVf2LRk37HrWvjSRJ1fdrP1pbp7HwIGQVyYRv/fXXD1d1dsnsqFEF6AmxRdhh46tNVgB4AafgUBmkhv21T0Agh/YA1rg420z+0CbAFR2hDNvKQJ0AeWZ8qBGfkMryyei483Vu5XGgAfTspJU9NuoC3QGkPTwW98uMClUjuTYqBJdYqSQwPhLQl/Qv/cpa39ePrY2LCKdAERDf3XPlOUnAHlu/HZ96dGXekfx50d97f/nll1tLLrlk6+STT25tuummrQcffLD17W9/O8zn0BYvvPBCWFGw1kAZXHvttUFdTDLJJGEOt+KKK8ao9rnnntvadtttw/Jjjz32CKsTn3wsUC655JLWq6++2lpjjTVaTJeefPLJoESYN/3qV79qyc96hHUJ+uWNN94ISoTJH0qEJYp6XnHFFVGGcn/wgx+05plnntg/tk/LpDd8njIFvOmmm1oTTzxxLB/4wAfifnPk3vFKJYFxlYC+pc9k37KNbrv//vtb6MBDDz006Dz9Wx+Tr9L/SYDmVGk8JQA8Z5xxxtZWW23VeuaZZ1obb7xxCzhvtNFGYVbH1O/GG29snXjiiWGHjYfzf84552xdcMEFwU0DYnwy+235E2jXWWed4LlvueWWKO+1115rnXHGGQG8tvfbb78wIwTGbMGBOrvUnXbaKey3dXbXlZcZ4A033BD8ugfhzjvvDPM+5oYekHdK+UB5YLwM2Fy/+93vDu563nnnjRePMhzHsVcqCYyrBBKw9TGKgz6kjxv7uf3220MRsT/HTeSv9H8SKMDuR09gOz3HHHMEyHJeMSDCcYUTjAE+DiS77bZbOMYAUHbYO+64Y+uDH/xgAPR1110XIGhQ5f+1d6exdlXlG8CP8aMmJn+DfDAaBTQBgTgEBJlKmQtImSmtIDLPUxkqyKBAgYItZZ6EYmWeKVIoM2JEEvmAMoQQNAQDKoZEP/it//xefcvp5Q7nnp577xneley7991n7bX3fvfaz3r2s971LuwYuGLFjgfEwN3AlI8++igAF8PWqWgwjbJVZoxXp6S1fNgIJm9beYDaNrbvOHk1Lscdd9zKJUuWBMMZ7daBcL5QOkN1NH7qU59a+bnPfS4G8XjJLM4rX6WywGgWyC+2XKsz6g/yg0z4QlVvc3AMMpD1rxj2x5YtDbsNIYtr3IYbbhjR8QxL1xE4c+bM6NgzqQCtl9Ys+p58/LB322236JyjN9O0acyGt3PBo12bMYZrHo1OfBFBomjWftcxyQ/1ww8/jCHnjkv3PNofF0J6M7dBw9m58tGq6d/KkZ9ube1crUTvozPSFE3AYPi9/3Ve6mjU8eg+mofAt2HGOmSALKB+WtRXa/VXqAbDygU/o1frD6FVq+90a3XW9sDr1k31pAC7yRitbqpIOv50vIkRokMPKJv0VtQ+M4Tz6ABwAFNcbACqQ5BPqUoqiJM8AFCFlUeYVQNyxNM2WMYEoTxGTNTLf1u8BB2aOi75dovWxwPFdfCNFuRJB6iQqzxVvAQqu/IN2tHRKUCOBkFH5GjJcQBbp6qGQgcRbxBBqyqVBdqxgDoErJEP9ejhhx+OuUfF3AHQEkJhqTS8BQqwh7fLqHsBJPbLpQ9IGq0oSh+mK9wptsxTg3udKcGMShTdD/CJKibcqVnTgbLY2MJC8igBkCLy3XvvvTFgxsgu7nhAVihXbn5AmEcIN0ITKKxYsSLO5QXwu/Cs2D6XPlHMzDFpW7leFrOv8zrBvkdLXhovlAYIu8Z8NB6CVNULNZrl6rfhLKDuITqIjQBpJq42CMa71JwKsJut8cnt8sP+pE3G3MMPGTPmfgScgSJ3N0DKV1l4UeFMhVw10QFwBHhclYQ9BdwkEy5MKTVoAGyLuGc/Bm8bEzbaUUXWMGDXgB64k1X8j50YCelz06em36w1Gsq1X+PB7c85jMQ0VN11Z+Je5Rx+t01a2WuvvYKN22+0pPsz5J4PumuoVBZIC6g3zcn/6o26JKmrJr8lH/pyFP896xwwJ33In6l5O/fVuuZ0bKsOAD8xPGhwGDTtGWMA5P6nFQupCkRVVGANWO0jbdCzxcJWhn0Gu5BENt544ximPn369AiZami5+B/Akx6uAdAQqNyOVYbzYi72G6ijMfCyaFDIMcCeVEMm4ROuDGDr2oYmjQNwB+xXX311zIaTL5UZ2V27ofcanUplgdEsoA4iDvlVZzIO78fChQtXxUtXj70b+kJIcEA6l9HKHuTfShJp4+kDbBpyxgOhVWPRWChg1XmC4QI7lRZT9jtgBXomLKArizNC9qA3G7VodKTYJGeeeWZ09slD6wbqBsGY2YXkAmyNAsN0jZikCZJmMH6gTbbQ+WmUpA5IcRiUQ0c3y7pBPJj/0ITVe8FyEl/gLdnnxXJP7sH9VioLjGaBrPti46jfu+yyS+Pcc8+NfpDqRBzNcqP/VpLI6PYZ9lcgjP0uXrw4PCYwVmCGhQJnACewE0ZLkqBhA3Ms2P/YBnCmS8uPKQskBSAFfKJzY8o8RIArYFcWli7vFltsEeczjyIGrgxs37Bz1yUpm75t5hs6oQBTwFxewG6yBJ+mmTAi59ewCGbl09U+AO1+3CMmRHfUEGQnUR5f68G2gLrSnJAKX2nqvk52HfPyAGuNv3pVafwWWD0AxPiPH8gjVDohUFVKrBR4feUrX2m88847EV8EeyVVAEratgpKTwaSdGjg7X8zxajEwFB0Pdui8YlRAhxJIbbJKs7Fy8OxgFV+TNc5UtvmhcKTA8O3OAdmTi93Duf3GSr5OtBr38x2vER0RhKN/a5HHvstZ599dswrWfriQFb71W5aI66OYNLW6ol6br86z5uJxKeBV5fVJXXI2jG2K43fAiWJjN9mobPxtAB+vDWw6wy6hMkCWQzZPIwYL2D1O6YMXLnt7b777jHrOnc802qRRnhz2C8eic5Msay5+WkcsGvSBpZMAvFCCOKkA1FHp8lvxfYAzl4g56BX0w2Vodz7778/5og0tRnQ9eIk+FrzVOFzTcv2QtmnMXJu1+m63GulsoC6gzgAaF+c6oq+D3ONqicmYib9eUf8BszVS/UqSUNZcfwWKElk/DZbVUkFpsGksV8dewCXnIClcuOjdZtQAGumeWPeFuBHj9b5yBebex4NWuWnZZNMuD/R/4A0Nz+SyAYbbBAugFwIAbMJek877bTwKhHlj6+1c2sgALRGAMCTSgC8yH4YOGCXXK9zevksgN3xyZy8WL4gHOs37Mg+ay9gpcG1gHoDoH25AW6eTeobQsL1FGlRpwC0vEkABtdinbnzAuw27IhRSPyj6dZYLqDTIch1T6ehzkBMFqvOgTWAnQcJBkKeIFdgtYBd5fbpKGHMvEb4eTue1whWbT+2Te4gafAAIcPwTMF8ad5c9ZSD0fskJZPwECG/AFkvFh0cg+fjDXwxID7cc+bMiZcrpRJ6N59ZozklQC5/MqXYWX8G0gLqKyAG1ibYMA5APf3Rj34U9Swb9ARtdcxSac0sUJJIm/YDasDLYBLsFlgDPUxUpx7GzSME6AFVnYp0Z8PSeWsAXnGuMWnbOiR5dPDwAKgAGtgCeICONdvGXICuvAAfY9cQYNwAGyPGfAA22Qbj+c1vfhPl0hadR2OR16/xUQZW5H6SDWFORlJqXCTMGkuyAOxKg2UBdSMXICypO4jKxRdfHF9t6gv5LOtKNewTUEc+DitSW61aQDAawWn22muvWARuMlO5mWAEsRGBb/HixREuUgjWJ598MmaT2XnnnSN0qqBMtkXPe++991buuOOOcYxyTJgrAJQAUTNnzowgUaLvmbnGOUXlk09AKNHNBMvJ2WhE1RN29YorrohIZ6IAmnFGRD/lmpX9nXfeWbnBBhvEZME5g4cQrzmhroh8wsC6jwwqJV9FTGu1dvRnPs9f0DF1QWAwgcsENFN3BBariI2T89xLEmmjEcQwLDRhWjGpQsch/RnjNuyc6x0WSzPmqoclY720a77Q8jkOK+aap3OSVwe2be5FM21gs4aHG27OY4QbnzglXO/o2zolyR38tDF5cU3IMK7tjjvuaOy3335xd8pzfRg2P3G6Orc9koih53R3korPWAz9+OOPD8ZEWsG4MSW/1SdtG5WlTw5Rp1IKVI+57On0Vv/VGew7Jb0+ueWuvI3qOWrjsaicKrC1UX+Ged90000hewBxrnZPPPFEyBTAUQckOcNAGMO7uebxxKBFA3K+2eQLoGvbvhxuLk+CphcCsPrNogxrx8njOJqiT1JyiryOV7a8uSaTAGCgb7Z3xwBjwGyQg45OZdin0VB2pbIAqU0cHDKeEa+Clakf6kk15pNUPyaHyPfXWXz++TxcunRpTBJg9hkT8s6ePXvlvffeG5MYmJDAzDDkienTp680y8zcuXMjlrRjySAmz3333XdXiqlNRiF17LDDDhH7esWKFSv33HPPiBls1pqURHyGmuFGcHeSCZnkrbfeijjXYmbPmzcv5Bixhvfff/+Y+MAsNa5RXO6FCxeu/NKXvhQzz6y33norP/3pT4ccYhaZk046aaW87o/s4zM41/31BOtuhrOAZy0GdT5z2xb1Qf00QQfpLyWQzFdy2XDWnJh9WGKlcVog9TyTDGy33XYxmQFQpSGn3qsyA2bASQs208wmm2yyctGiRTHri4kI7rnnnpVnnHFGBG6/7LLLVl5//fUxNZJZok06YMIB28BZAyAvUKZ9X3jhhTHDzMUXX7zypZdeiokKgDUwf+WVV0Irp20DejOoT5s2beU666yz0mwxJiOwmFAhZ5HRUNC6vZwmJaiXcJyVog+ye/aeu7VF3VUXTLKBjCxbtiz2qeOIQqXJt0Bp2G18yZBDUhLhvkdnFr6UBs1jgzRBXvCZSPcjndg2YpFPszCsetS53RlcQ5IgV/DM8L8kuBN3Kcdz1eM+SH8mdZBcuPuRNSzc+7gA8izxP83cpytt0aQGJlEwEpM8owzeJTxanNd18kDhucL1T/KZa/FbpcGxgHqacp/nr+4Jv6CfRKheHkz5u7pBNqs0uRaoN7INewPfBDP+0DoFcwABtyaVPSu/Sp0dNvIAbLqxY2jIfLTNUAM0AbrBB+J/AGudlzoUjR7jGig+iM5EcUpMXMD3lYatA0hnI/9vHYg6MOnmgNoL57xiOgB75+NaSN92D65VrAcNRDYAqUfmPTBRbue6DbPVIV1mgXyWuXZ56qo6oaEXM0ajrjPdAC+/SVlvuux2BuJyimG38ZhVcB1x2LBOuuuuuy46GFspyrHAEqiKzAcoL7zwwvAeAfYi8CmTVwcQBu4XXXRRTOslQh+gNgkB32qsm0+1xVB4AxeUj1l70XRg6uTkYWJJrxVD1DUOgNlISA2CDk2A7fhMXkz36QWWXLdt5ejorNTbFvBs8/li0563hRcIEiG8gVmO1In8rbfvuPevvgC7jWeoAgMt7NrIRkxYhW4leTEka3MrAmQyBfBVJhDFoEkkhqL7jeQhP/AlhwDWRx99NAbn+F3vPc8TQJ3HkmVIJBh4DqzxP28R8olpwrB6LobcCn0JuAf35iW2di1YlbXzGGBDivESO1+l3rZAgnQ+Yw08KQ0Z8LVGilMP1A3rbLh7+657++rLra+N56fyAjfuTXRogNZqUum9KMCVZiyeh+HfygSm9lkD84022ii2jWLEmGnPzuVzFTP3IokxYsSkbcDO71segAq0gTMZRJmkEdsSUOZHa0RmNjauwcvrNwAtcJRJEOjbJuMlyyjbvJHYfKXetoBnafHM+ehj1UgBiU1jrnIjmqkAACAASURBVF7k7wXY3fGsC7DbeA4qL9ClQes89L+K3WryInhJgDdgpWsDbexY5yDG7MXBpG07l0TWsE8CzOmzTUpRHtB2nJfNNclrujLH6XCUD2gDYg2DwFGuBbMns9DNSTU6mcQ4MfzdufNldY/K1GlagB2Poef+eJaZPE8yl05q4whmzJgRA7PUS/myjsqXjXoeW+upsUABdht2V3nJDFivkYnjSY5trvzKIHOI4Af86eKYNTbrxVlnnXUCJEkmQBozp1cD5YwUCIgBvzVGbU1SIWHQqr18OjIBtzL19mPlRjnqgDTDDHA28tLLmS+16wTQNHLAL8iUEZiuqVLvWcCXExD2XD1jYC0WiMk0DITRSa1+VOpeCxRgt/lsADaZgewA5NpNABGLBcbXXnttTHILOMkevDoALx0aUGPPRi4CYqMV0w0PyDveC+g34E7/dn1YM4BWHt1bPgzZiyt2twbDC4yde6FtA3eTpBper1MS63du9ylfMv5277mOmzoLeL6SrzkgTWbjScQldU3q8dTd0WCduTod23je2AlPC52O5qkDYu1WdnKE5HgLSUKISmAMdDFfgIn55HkAq6h79vkNwANRbn/WPD4AsTjcynzuuedC9tDIYN9kFoBtcS/0cNEE6fFbb711uHBpGLzcFmXIK+X1VtyIMEdP/fEMNeri1wDrWbNmNfbaa694xoiD55yA3lM3NkAXWwy7jYcNMH1G0nFVcKCnsreT8rgET257OgJ1aAJlv9OfySAWTJf8gUVj3joFs+PxrrvuCjAW1hUjB9qAldYN3F0n1u2aySlihkybNi3CvsrX/LLmdbknx0m5T8NRqbstkHUyG9qsp/fcc08M8sKqfUmpy+pK5u/uu6qrK8Buow6o3EAQC00wa6OYVYdgPQATO/aC8fbAtO0zYMFCm6Yx0o/JHDRoLJwEIn52vpAKVUa+iICal4myyBy8P5QBdA855JBV12AjAXm1nUP2K6dS91qguT7a9jUl+brST+ILi+uehl/dwKylkZ59/Fh/usYCBdhtPArAqjMP6AHGrPRtFLUKWEkNWZ4XDSALn8qjw0uGBZE2DIEH3vIC6mTO2LaXUz7at45C4ArkrencfseqaNg5TVg711zHdK8FNNb5paQeqSe+wkSVNCUdCSTlD78XUHfvsxzuygqwh7PKGPuwVG5vdN8EzHYrPomCj7N4JFzrMm41PVm8ajPMmOgXIAN1jYUXzovpZeSmB6QxJsdg/QY86JTU0UjXFuqVrMIHm0xCWjEDe6X+s0AzWKtbOpqFM9BA8z5SXy2+6tSpSr1lgQLsNp4XZuLFUPEBdb4krRQFaFOyAKKnnHJKdGACXQBs5KHyLPJx78OQvWCA2jl1EvrE5VJoH8nD2jHKBPyYv4ZFB5O8ZBUyjgVw08Er9b4F1MVckjRo2H0B8jrScF911VXR8LtbdUT+AuvefPYF2G0+N5UewOYLkC/LWMXJB4glkf7uu+++AGEvmLKUqWzbCcJcr3iDYM6Ox6INdiBxfOc73wlN2zyPW221VRyX18CFD8BzzQPcGBd93EsMsFu95iyv1t1ngSQAWQ/9r1/j/PPPj85oAcIy7os8nnk99+57jq1eUQF2q5YaJl87FR/zdZwXy/Bz4Iw9W2PZJA4+sYCVJ4f8/KExZ54hwJr8wd1PXqDOFQ+rVoYBNTRvcUOUpwzxP5SHZTvOIBj5KvW+BYCwhFWrVzqrBRPjASRiIwIgqRvqnAa8Uu9aoAC7jWeXQO0FAJjjSY718jjOGns2OIY7H12Z7gyYt9lmmxjcIEiTTkbas5GKtkkkBuwAfODupSV72Abm1joZvaw6HwE2ecQxpio79NBDoyGol3c8T64786pDwFrSIa0jWnRHjbLfLFLW2fin/vSsBcaHNj17m2NfOCarcgM/HXvAzDZQtj8rvH3Jkr0ofksWM/ZZ/st0gK+kLINjdAbRFHVkAlySxbPPPhsvnfNi4I4xhN25gLaOSsDtWgwvd81GNBpEg0Urm8xi+Llj5XMM0Ma88n5auebK0z0WUN+y/iRZIHWJR+P/yy67LLyEuueK60o6aYEC7P9ZE4BZ8tPSiwHkEqDz5cCAsRhDezFcksN4wQ/oOv6RRx4JX2jnkPhHA2ediuQO5wfo/id5OA9QJo8AXn7YQNvvrts1epmTOTteIpG4Tuf0O3mkUm9aQL1UX7Je+uqaN29eY6eddmrMnDkzJLPx1sfetMRgXnUB9v+eu0oOzJIxY9bAE0CLD4zF8oPGXgEhoBTonaeGvAm6Y1WjfOGwX9IHn2nMmoyBWZsZRnlA+LXXXovidCj6DeDKz9Uvwdc1GunounQu0alJK2QQL7NZ3H0qu2blnH766XGf2RE11vXW791nAQ2yDmfRIi+99NLQq/VjqDeV+tsCUx5LBIANTfYNxxKG25fHZjny5Hb+1nzc0N/k8TvgA2gkBeAsxKgXQpzgZDNeCHn9T8LgfSGeNYC0L3/P8460/te//tU45phjgkVjzM7tWEPKATLmrkHgGQKIjVD02Sul/OLanBMDB8xYNz9sL7PORmWSSZTn99dffz0aiIceemiVS598lbrfAs31Sv31rO++++7G008/HaMX1ZP8mvKV1Vzfu//u6grHY4EpZdgqn0Vl80kPYIDL2muvHV4M+WkvD3AaK2XFlt+2Y1Re23ku+2wDNCwVIJsiS6AkPewAW8rzuTbbGClXODIErw0gKtbH0UcfHVN6ffe73w0Ql9f5MuV1uBf3B4C5Whm8wuMDywbGroWPtOPJF0BbXrq1c/P6oG/zoQbsJBIzxbCXBkDnpTLp28p1jK8DoIyNaWB0ZPLZllLiyeusdXdaQP1RV9VZz9LzveSSS+J/Ew3osFZnLJX63wJTyrBVQkAtYQ3z58+PUXmY68knnxyf+oBOPgn4jsQe5AGufs91HPS/WcBJEOQGQ72feeaZAGhDdnlTOIcK71qUowwasYYDg9VJJxY0kLZf3rwmTNzABGUI2pSjyRwHKAGqtfsz6gwzMvrQi8gzRDnAmc4MeEkfgBnA8qe1NpwcYJNsXJPkvMBbOa5Jcg2A2n7g7V75Zpsxxr17wXkP5P3WSx5m6+o/nq966VmJIaOxbx5iruGt59jVj7CjFzelDBswAiwAAjyBzIoVKyKg/nnnnde45pprghGOBNJDLSFfLgASCxWTA2ApH4ClRpwMU2X3UujkMzCFHiyCHWCzDUjlkT9fHOcFnhiP4ekaGC8TQBYNzXl9pmLUWDMQdY/77rtvMOYcwGK/PAa4OA8mRcsG8BLWzB2PjTApv7tWcgmQVjYAt99CXlEmkHdtjieh2CaNAH73oYxscIbasP7vPguo094Ls8KYA3TzzTePi6xn2H3PaqKvaEoBO8HaTfrMx2QN6Nh2222D+WKu55xzTgBmAmsaJFmFygyAgKCgRrRaXhxiVZMENAKSPJL8ElDTsWcxqaw1Lw2A6boS+G071v/OCXjzePvtA5LYMuCWyCyYu2NJKMAyj1u+fHnsdyyQJ1H4Ikg5A3j7GvDpqxFRNnDWQCjHIi82DoCBMVCX17U4Tl6g7vzOgbUfdNBBq/bJl3aIC64/U24Bz8riuWS9stYQm2vRcySF8PDJfBpj25UGxwJTCtjMnBUOwOk0k1RU3g0C+dOUfeIn4CXTpf3SnYH0k08+GUBNQsA6sdZkklke0MOaDeXWMJAueFQAOmVbhgOxBGrlKDNTHpP/N695juTUYe4PIEvKokljvq4RE/c/kKZXa6ywZI2J2WB4g5BHgLZyDIJxH5g+Br/pppsGQLOFrwF5NVKujQ7O+8Q5dKbuscceAe7N11nb3WEBzzbfA2vPV13zTvCr1nfCG0RjLWXHs+3h6mx33FVdxURY4GMEmojSWygTcGF8QAV4qqj+xxBnz57duP7662NQgJF83OiM1ONmh0ljmo4HiCoxoE9wBHrAeZNNNlkF0IAR+MlncS4VPo9p4XLbyuIcFi+jDkENjK+Ir3/966FtKxSz1/GIISfo2k/KAb6O1XjltWqY6NgZRlXDBcBJJ+6LbdjQwkeXPSp1pwXUxayH1hpcX4iGmO+///7R2Hr+Fr9XGlwLTDlgAxeJhpvarQrrMx7I3HLLLQ0yAqZI9gBYKjhQd6y8uc1TgweHjjZsGkADcqA+tKL7H5Nx/NDfOlkdvGR5vcrFosknGicMH1ADaNcir2sF5LZdO7B2jfbbZ5vkIc41+7AHt0LAnAyMri2vkY3KNrlv2rmT91ZldcYC6ofnaiGB8FrSf0MO1Hnt2VnUARJYpcG1QMcBG1BIKqHkf4DaDIoJYMDGbyqizz7AbMGggQ2ABloGkKioWYaKTRoAzFg0DZrEIU+eL6/DNeT+PN4589ryZYkdE/Sn+f4xfNdBxhAnxCQFftc56iuCLARw77333tj2wnqJAa9OUXYil2DeBx98cKzZii3YUTk6V7Mj1C3R0St90gLqiDroedhurrPN9e2TR67ZHo2zc3rueX7n1hAvXLgwZL6bb745GmDXIfndu+BY60qDaYGOu/WpgFnx06Qqpn1+k1RWn/Q0Op4VOgnFzsCwszJ7gbAKx6m02DJQ4hKnlxyQqbgJxsoF5N2eeKwccMABjcMPPzzskSyZTWjy9G2eLMCbG6EvC/fKXli0e+YBI7wqeQW7plW7d2AP3FOX51mw9957x7nY0/GVPrYAW7En2+QXjgaPKybJaqJkpHwXrD13z47cdeaZZ8YX4mGHHRbPynvj2nqhXn9s1dqaSAtMCMNW0SSVTaW0AGMyB2ZIw8WivRyZgLOXxrFkAyxT5yBJAMiZNSOBKPNl+Sq0c/RCcm/uCVBYY9wAwvXrcGQHnayAW2NkG3NOsAUy8gBxyfG8W9ggJRGNm8aR94gpoTC3iQKfXrD5SNfoGbCTeuSrZMmSJRF+wH5fKDp9JyJlXVXXPVt9ESQQc2zusMMOcU2A3LVZVyoLpAU6DtgJngkY3JFUSJ/xZgLXGSaP38kaAAmI8XLg2qeTkL8ylzW/k0V0NgIdgO04gJ0AliwkG4m8sW5dA1PXami5LwxAyrvFi8lVD3gACnbSyPEi4XHCjuyBUWPgdE5yCrmI/fQB2M9O8hiFCdSVD+Drxf9kjVCX2NvywAMPxOw+2K365ovPl9BEJOfzPHwpCW3g/TAghnTlmrwfgFzDUaks0GyBNQZslU8lwxpUMqP2eHI89thjsQbCmCIQAcK77rprdJipnMCaX2kyQ8GVhAPVoQbUkonomBPfw7EquorsN9sJRPkSNN9ct2yzTy5eUuBrtBpAJmtY/A6wbfOY0VD5ytA4AVwuewDbtrXGi782P27gzl62ATYWbu0cGHg2otaVPrYAm2X9RRJ89alb6qn66+vE//kMsq59XEJrW84hqbO5rZHmV62hXbRoUUh+fvd85UFIrNs9Z2tXVrl6zQIdAWzgoLME2AJtIMEDQpwNHWWAxP+AGWioiPmyWGeiTd94443BdAxkAWIqMJbI5S2Pk7/5OP93a8X2ErKJe9HReOyxx8b/7MAbxG+Am80AsPzAGii7JyDO1c9+w9PlYQ+s2m86IYE8jVvDaBuLxxjZk82cC+hUWt0CbKoesTPigFT46rEWWAmoIhVZD1c/uvX/HM/+wN/zEEnx8ssvj1AGGgqg7RqyQc26nOvWz1Q5+90CHQFsFcts3zNmzIhPeIzYi2BRCf2uonpBVN78377mhDUa4HHnnXdGBwyWoaIDMNJAL1bgvFes+Yc//GF8KfCV1pkIGNhDY5Qsjs4PdAGyPICbnYA9cGcTZQJoOjdQ0RjKQ7N2HDuTQ9gMiPu/F23XXDcmYptd2E09ZX8d2vpV2A25oGsjG4B2TUCb7S2+fERL1JieccYZ4Xrq+VQqC7RqgY/pbatHDMmXldFnJCmD/gp4VcRkL5kHW7bdvL+5OC8Q2UMn3BNPPBE/YZ+YpZgdju215JoxZNNy8YYBEDxA2Id0BIjZAzjTteW3vWzZsrhVurT/k1kDFl4hbMJOwISUBGhsY4iAG2AnuDtnpU9aQCPK5myKWOi8ZUeM10LeU2c1lMl+P1nK2HvUa6RjwYIFwdx//vOfhxuq5+W3SmWBVi2wxgwbwACGocn+BObm3+zP1Lxtn5fCC3L22WeHnAJ4+BjrsfcC9UoCABZAiQGLfc3FzsvpJXWPRijSpSWs2P8kEjaTzwAgQOF/A4KANvuQO5QtGRzkd+5/+eJj3TRy+51HWhOwiQL65A+7AU52xXL5OrOVhhOTxqoxabZU33z5kPvY0bGe3UjJMeqzZ27tuExiy5g4QjTHU045JcoeWvczb63LAqNZoGMMWwUcbhl68uHy5D4vBXChG5olBbvE2OfOnRsvQILS0DK76X8vrJfegj3zt6aHSl58EodPb6Cxyy67hKwBCHyd5AhHzA4IJ8vTqehYfto8bZSNQb/xxhthLx248gB+oyjfeeedWKddc91NdpqKa2FzX38PP/xw9LkYdDV9+vRwGWUjiQ19EXkWOsyzzmkAR0t5vOef4O18d911V8gf5557buPII4+M/of8PZ9LHjta+fVbWYAFRq+Fk2wjYK0yezno4HQ+lZx84DcvQ7enfPlIGCLkkSuwLfeUIxh1BpJ6AHnGueaex9/ccfRpcbPT5xpL97WhgxGICxTl011ejFE59tlWjlGRGTmw2+01mdeXXxyYbnaAIwRGlWZDy3YIA48RXzC+Hv02FmDnfcinDmhA1V/s/YYbbojOd89T/e6Fepz3U+vussAaSyKdvB0VPV8QAA3oeERgKtj3cNJLJ8/fblleQIvrtwaumDVfXuzZvfjkvu6664I587slcbgnyXFe5Ozgwu4c596BBx91Xxvyy2NtdhwsW2NmH3kFWGDf1oA9r6nd++q349iFnXXS+qJhx+ykBdQaPD7vtoGrzmF58jjPsTmxbybleo7sz4/7yiuvbOy5557RiZ4NRdZt5VUqC7Rjga6qOSq8l0IFV6kBlv+tAVC3Ji+pRkUDA4h5g+g09RJ74enTgs/7/PZJDmhF18OCMT3gzK0MOAMB7nrcGh3r8xyTZgdMmx4KpI2K5FFivxGTzuVY58LQJfas9LEF1CnPil2wbP0jvuSwbA0gW8uDHatzbCwvuw4FWc+azXPxrDwnz1nDbJi5sACelfps7Tlbe2aVygLtWKCrGHY7N9ANx3ihLQCVhEMGkbzsgHjx4sURB8WLSwoB0tgWDRqrAxBefNqztcE1ZA4vN2YN3DE+CzCXX2eZF18DQWtNUOdB4jgNiGsq0F69hiRo68ilK4vhwb0SYHsWgBcDF+PGl4v8yZCbS7KffSVrkpSJBhyDXSMYno/yCqCbLVfba2KBrmLYa3IjU3msl5cMYqAQoPWSYmg0a7PmCCSUL62XX8ejT3F+vlzLgCoXPdsSwMX2AAFw55fteB4g2KDz6dAkgwD4ZITOy7PBOQB2pdUtgF2zo4Ud2TgHHenk9jx8BbGjZ8cjJ0F59ZL+C9LK0wAbFaljnEvqaaedFs/eORzrWWDjlcoCnbBAMew2rJif1Q5NkOS6J6gV8AWoRi6aLWTrrbeOMyQjswa0gBVjxsQAB+CVbAMTgItdA2nH5OAa7M85MWrnwLCVYcnBNY7F4Itdh0lX/clnAEjZxmJbZ66vGpIFyUrnr0mXNZaedT6bBGHH2KeB9Yw9G77Vvqaay3Zixyu3UlmgExYowG7TikDTy+hlxawNy7fPy0kXpWOK5QEkmj+pvehYHXDlguelpzkDWPmwZZ1e2fllGyPHug2KcQ5A43ef834DLMrBCDUG3NYSnAq0P/mA2Ya0xDYaPglQix3iuZBGZs6cGc8jn53nxvYAWdKh7OvJMbRqHZTDJeeqVBbolAUKsNuwpJfWAiRp1pg18PZyA2wdTzvuuGOUnOwsT+MFlgewAmMgAOAdn8PNAbEOMd4hOhkBMTaNeWN5yuC+h1Wb25Ge7Xps+11+LLvAOq3+3zV7WNjaaFOdvJ6D5yesqX2AW+OpI3doYlNMHKvW4St4k4bT82D/svdQi9X/nbZANf9tWBQoYtYJ1lkEUBVT2cuPEQOGoYDtfy8+UDVvHwDAnPnrAgwyCA8Ria81EFYWf23H+ezGDkkhBtfouHQeHg3yGMGH7YmHUWl1CwBV9rdmW3ZldwAtrK8OQ6MfPVfA3Zzo0AYuzZkzJxpSEfaEY5CKRTdbqrYn0gLFsFuwbsoQ+bIDVjO6G26euiZZQsRC05UBAHmtgUNzwsIcQ8rg3pf6JrZnhCPQ4PWBrZtBhucI8E3g1rkJTLBvoAO0rXmo8C22feKJJ4Yu23zeQdz23Ng6k2eh34DNATX5SZ5p06YFozZ/KHc/A2bk1RBak0n85hhSl34FYO8ZexbyVSoLTIYFCrBbsDIGlS+6T2FB7n1GJ1gD2YsvvjhmuE5AbgaK5lMAAICRerOXH3A4jnbqN5/jgAQoCEiEWSsPQMjjerBw+yzy2Eca4ZEi4qHjszFoPv8gbbMNO7CthR0lnh0aW19E22yzTcw2b8o1/4v14Th5Lebd5K6nP+Lqq68OgE5dWz4p1/FP/SkLTKAFShJpwbgYlJeSB4cRjMBaAr48DERh22effQIUxmJbQACQAgcgATwkrBqTs9/gFyCufBIIFzPb9vNeAD70c7HGgQd2jelh49i1vHl9sTGgf9hBQ8Ze+Qz5S5vdxW88eEgh+gt+//vfx2AXdtQw+oriT00iueCCC0IK8Rt7j/WMB9TcdduTYIEC7BaMDGCB4lFHHRVTcwEBC63Y4AuMFqBjcwmWIxWrLCCtwxAwYOwJ2tgzrwX+wM6nLECuM9L56N20cwAE3OnXzmk/8OetQpqRF7DIN8gpAZuN2PgXv/hFjEJlY18iG220UYS8NZQcexZEyzMxu1HKSgY92a8sz1iDy75jPedBtnvd+8RZYGAlkRzMkC+ilxBzsvbSSraBHpDkZ224ufzyGfhy/vnnBwCQLoBCatejPS5lWrBlHiAYNbkFiwYkzg2M6dbOhUnLYz/9GhA73vl1Pmo0nFcnJM8UoGKRZ9ASG3lenoW1BcDSngEy+/3gBz+IgSzsJ8CWTl4R9fi367S9/vrrI99ZZ50VfQzsneVaZ7/EINp30OpTN97vwAI2MLSYBNXLrBNRJ5+QmwAYKPvdC21aLzKI/4GBDsP58+fHLNf54qZeDCxHS156xwBoE+VyC8OmgQvA5tKHffPVFkoVIHP74wLo/I5Txuuvvx6eIfJj1crxW17PaNfQr7+xD4CW2MGzM+UcbxxxW+jQ9gHme+65J75MyB6Gpt93330xGwy/al4+7A6ssyzrfLaeVaWywFRYYGAB2wtNu7z//vvDu4MMwSXu0ksvjc5DU55ht8cdd1wwa0DtBQamP/vZzyJ0qjIAe77YrTxAoAJwdVSSMrBkiT5OEsGmATA9OreBN3YIuDFzbNr/QAiIAG2R4ZQ9yMnzYFug7Vmajsu+2bNnx/7UqnnjcMljLx4hpC521ReRDeKg23KQ61E33/vAAjaWBCSxaR15W265ZbBnQGngy69//esARSPaJC8+YOYNIhqf/8kq4wFr5QAU5wbYmB0wxuYM4BC4ifeIxkO5OhzT1U/npmOzM1IIVpKKPK6RHlsg0wj9mXslt0cuj+ziy2X58uXxG1dKI0xNhGsCiR//+MeNE044IZ6/xg/YWxeL7mbYGtxrG1jA9sh5CHg5aZzmjATAmNZJJ53UmDVrVkPcasCcixFupBNg6oWmZ0rjebnl1UjwOEj5gzueUYwYtE5G8kqGYMXgsXCNC7AG7EAd+wf2QB44AW7X2e8JoLpPjZMGjH3YyxcH7w/P8sADD4xORs/yqaeeCkmEzWj8nrFORZ2Qnp+gT9ZDn2m/27HurzctMLCAnS87Lw8AvXTp0ujoA4w8BIC1JB9woHMfcMABAc7+bxccHQt0gAzvD6ANPF555ZU4H8nFIBoMUB4eCsAYQNPYdY5h1rxLSCKGqIv0lwy83evqleqrwdNJq6H1bMhKZozRgcjzw1yYGjZ21CmsccSySR30a8/V14kvpfRlzwY3171ii7rOwbPAwAK2R+2lp2XyHPjJT34S+jWfW+EyveiSl1hHJFCkY9u/JqCoPOVgdfRTQMIjxH7gSyqxlkg1hkPbB7SxSZ2P2LlORm594jq7Nl4PgwI47lOjZxovDSlbHn/88QHkGkBfHRpA9jNCFMDr4PX1wvXRV1L6VGtA8znHRv0pC3SxBQYWsJtB16AXHVI8BPjkZkcicD711FPDSwQj41FgJhEJu2sGyObt0Z63fMoFOLxNyBoGaYgForMR+AJnTJGWnWCNjetsdIy8GDfvEuUYGQmUgHY/JCBqGc6mJA2gbPQhG5jQ2JcHVk3+0MCRloxg1DfAhiaAMKJ0yZIl0fhmB/JI5+gHG9Y99KcFBhawEwwSQDExMY39b/HSn3POOdHBSN88++yzIygQX+ztt99+VT7An8e0WkUAhuOANcCVfNobhQd4yR1YNuYIzP2fEg7gto9mC7CUBcCVJ4+vhl5OANk9JGhbS+yU8scdd9wRMT8MyScfcbnU4JKWttpqq9Cj6f4YuH06iXmK0P89S1JTpbJAL1qg/3upRngqwA0YAAJeFphzgoQXWkwJnVfAGCj6hL7wwgvjE5zXgX0JJvK0mhLcnQMg8wnG6AEwMMa+MW2DZ5SPNQMagEw+0bDYLy/2LdbFcKFAW72ebssHUNkjGyDbQFxDKSyATkVroK5R1dHIz9rz4P3BNZJnjY5FLJu2zQtEXmVWKgv0sgUGlmF7aECbtnnEEUcEawUWIt7xvTYJgGm+gDYZAkiSKkR2o5uaCkoC+IC31eScCRzA2TklIO18mKFtzBGDtg20AZf/HevzXgPiunSguQYAluW2ei3dmo9N3BObkzNEyBOCViREjRb5A9s2gYB4KhosjShNJODM0AAAHetJREFUX4esfgnD0HnaeDbAfDyNarfapa6rLDAwgN3M2pLlcqcT+xgYSLwMrrnmmmCuRrvRPIG5ufrECzGQRcCggw46KObwSxAALLk9VpWSF7hijaQMjDA7NF0HLxXs2fWmRKJsMghQSsaNgQMuwEbDlae5MXAd/refLADgW73Gse6h079ng6Nc1whgNU4A2YhO/uqeDfu/8MILsciHQWvQ2OzFF1+Me+QZwr9a3gR9DUC/NGadtn2V11sW+NRKCDIAyW16gb28dGLxQQ499NCQQ7z8/K4vv/zyeNG93ADTMUDUIJrbb789vAwABG3bFFKOsyjTupWkTGDtmNtuuy1m587wqACarg3AATn2bJtbmmNcF8bo+gEU1zVA7hjeIuQVv2Hpjncu//NB5m/snN2W2DnvLRtVoxQ9C4yaWyPwdW9c8sgdmLPGzr3Trnl/cLkU72XoxA2tPpdus0tdT1lgOAt03xs83FV2YB+2mczW5/S8efOCqWGe5513Xrh7NZ8GOHrZsTtDl4E7wFcOAPEbgGkHBF0HFunzHhApTwNinzWA5pZm1CUZBiBjmhoL/wMp3g9ASkPCpY1UQ+sG4u6JRg6wpX333XdVY9V8j92y7VrZ1hePoEv0ZjZnW78JzsT7w0CYzTbbLBot8odYKwY8AXc+1Xm/3XJfdR1lgU5bYGAAGwADW8Cgo0pnFObJ73q//fYLAMb06MjAOOUEIOB/4KEMC2AFJLalbAxaeTjKszgXN72cSQZI63jE6AEyLR1zxLoBPMbMW4QrH3c17NvgGg2K/8ki8uU1uibn8T8wc66c0qqV65ysPGzrK8KUW74aBNpiX8/Jvd56663BsgVu0phx6aNTu1d9CUYvuleNp32VygL9bIG+BWxg5cX3EueaBkwXBQIAzwu/+eabrwJcTNeLD0Qcl0Ds/wRqawzWb7adpxko/J+L4ywJnioS4HzmmWdWDc7xvyHyOiBdX4b59OlPKsGyMU4NifuQ8t58KdCnAR32nQ2PPK4N6Mmrk1J5GfDINQ1N8knWfnds3r99ykvb5H3lPo3ZcGXmOfL+8xy53/2SPyy+DnjmOK+Gi400VnRqozhp2sBag6YPgecHu7uGPL/zVCoL9LMF+lbDBm4JPDlQhY7rk5tngc5FzNNLni/8aKDTaiUASoDNkp/6tl3P448/HmE8jZzkfYI169DUoYY9WgAzHRZ7ljQOytSxBpSzIaHjklR4ijiPQSO+Gpo9VvI6gB9vi7lz50aZCZzN95uNAXsAQV8ARlViv67lpZdeCjsZJei8vFhcS4KmY0ZKynbOXJTNHdGs4xoT7nhcFDVOpA5uep6R+CrugWwkvwBdBjJpyFx7nn+k89b+skC/WaBvGbaXGVsDxgDDHH5065122ik0z4y94XcgJX+nEmBSHrABZKQNDQSWePDBB0dHoOHvdGhgCxjp1I5xLB0aW3ZtrpNsAsQBtt9cr3zAGXDpZHQOoA7kMvlNPm5vDz74YByXIG1/bsuvTNcLTGnD8mO08ji38K28VzR4rtWw+pNPPjmYcYJ8nnfomg10fro/oHzDDTcEMNOfDbH3u/jUmLWy0vuD9AGofWEIvGVQTI7mzHsbeq76vyzQzxboW4btxbdIvAu45xl6jqHRfDN58QGGtWVNEyAEehajFTUUvEw0HlgjkBX2E0sFxti/jkRgBozT53o0QPKb8h2TLN6gHjG8ySuZnFMeQG60HwaOwWdqvl9s/9FHH41AStjujBkzQi5yTZncG5vKa6i+ZASorwCNy0jJtZI/eMU88sgjMVJUI+DaNQImkUj76FjEqAE7LxAjFHWu+pJwvY6xzmv37CqVBQbFAiO/ZX1gAczai8+Lgj4qyJMXHoh1MjkP4LDGUkkIGCFwJndglAAK6CQrBn4WxyUQuiZABPys7W9e5zXbDyT95pwSFq2zUgQ/KY/LvM6PiWsggK7zWrteHhiG5WtAzjjjjHCbY6c8v7IyOUYZ4kjz5DCXZMYSlz/vBwD7n62NJNVvAIAPOeSQOCcAt9+5xQPRf+C+/W80I5c+OjW3PudXbqWywKBboG8BO8FDxxyvEN4EgAaAAB0g0AxEa1IRlCcBT4CjccBA6cwYKvBrTkPPPRIg5fXlOsvI/xMQgRm/ZDN/SwmaeZ/OzyMmJ0iQx7UCSKFJMV8DTlyvY5MtD9ew2ee8yiTvLFu2LAJVNefN69KAsIO8pA+eLKQRLovA2heHBs3vPEJ0nup0veWWWwLEs3ErsM4nX+tBt0DfAjZQAxxAiN4KrBPIOv3Qncf5NA5iknBRc94Et06fL8trBm4SC83ZtQBq92pxDcCZ2+Cbb74Z0eoAMuDEpjFs7JeXhm2/kTCapZM8X/Na2QCXzKIsxyXbx6TNpSj4kg5FHYuAGCCTiZTPnzrP+fLLL0esarYTWIsko3z3kY1H87lruywwqBboa8AGIIAHEAGyTMCgkymBkxcKf2E+1MAmAbCT52ouyz0lSJIzbANPzNRvwDrv3aw0OhJdK2DXYUh2mDNnToCi/Ro1ZQDJZnv5rfl/12Cfc9KgadokDeczj6KBLNwldRLqKCXfYPDykDiwbddFOrLwlMGqNTrKZTtlSc5rX6WyQFmg0ehrwM4Os3z5J+qBAzj+0Nz2BB0CmJOREpSBLDAkLYgxku5wzQ0GNzySCIA0y45h3Iazu26AmGzc2v2wWTL1oWDt/wRVxwNsUtBFF10U5xCfhTugDlQjNLkVYti+dNiGRwtW7TqNYqRhVyoLlAXGtkDfAvbYt965HICRDKBT0Wf+ZCXAmUCrccKQjYZMDwzXBczlw7wNOuEpw4/ZoCEeMzoilcF1btNNN40h7rvvvnsA9nBM270pT9lAnQwktgqA5qbnWG6KZA+yCHnDV4fzA/fnnnsujjXDj/0amUplgbJAaxYowG7NTqPmAnhcBw0Tn0wAct5MQJSniJGT9HNeGkCTbn3//feHBwlGjf3SszFu/tSZMGbs2xeCWXe4CeYXSrLpzIuRK9sXhfNhyoJnkT4wauDNe8RoUvIHoBbGVoMhrom4LBq2bGyy3FqXBcoCo1ugAHt0+7T0K7DENCXbk5mcD9O15inCjRFrfvrpp8P/22977713dDCSTeQDwNhzJsCJiQPySy+9NOKrmNUFsMqfGrJt+Xh5mC5NGaIWYuy2gb3BQRoOA5Tkx7YNi9eYzZ8/P9wO7R/K3vNaal0WKAuMbIGP39qR89QvY1gAoJEILM1AOMZha/yz8yaYWhuAo/PObCtYNj/m7ABNL5mRTuq6gbEvBB2RCxYsiDXAVzaQ1VlJ5iBrkDPs97v9JnygWZv4FuOmpbsOnb6uQzxx1+CYtJHtSmWBskDrFijAbt1WI+bEWAVWMqSbFAGYpiJh2NOnT4/5DoE38E0m6xqbJZThrs/vQJTu7D58NdC2rbnv8bnmGbL//vtH48R3GpMnhRi9CZzJHyQVoxXJH0ZY0tQBPnB3HZXKAmWB9ixQgN2e3VY7ChAJJEUv5uY2VYANOA3Bdz0AMhms7VbAOm9K5ynPDzPa0KSN2gT8hr4rB6M2KMb9GgovP3ZuCDyPELP1kFbo1ynDuKa8njxPrcsCZYHxWaAAe3z2GjY3sNKBJ0aJDjcAhkkmcFpPRsJwm8/rnCMxayAupbcHRg2U5QestGgjNvlRiy7oC0L5dGqeKBi86dLcq0Zq+fLl4bpn/sXtttsuynbfKRM5n2WybBEXUH/KAn1mgb4N/jSZzwnIcVsjD/CcoP8mWGOk3QhSwBNIJ6ha8/wgf9x5550R/0TEQA2RxX5g7H4MiOFB4nizxPAAEa/FUHUSCsDvxnuezDpR5yoLTIQFimF3wKoYNhmEfnzttdfG4BESCeDqZhkA+Lo+ujN2rZPwiiuuCHnDsHVfC4DZ6EVuenysHQOoeaMIfWrQy/PPPx8eKgI6aQi6+Z478LiriLLAlFmgGHYHTA+wJWBlBN/ixYvDm4KEYN9Uadqj3VpeMzmDf7SvAn7YwpnqWOSOR8MWp5rHiQbIvWDaYoJg0uKLk0WMXgTi1srFrothj2b9+q0s0J4FCrDbs9tqR5FEgJmEXYoRze/Y7CyYK/Dyu3y2J4uB5jU5r2Tt3BbyhxluxKIm5bheYVJdH+AW4lTHo05FHYcmFyB/8AwxrN00XTo5leU8zffUvB0nrj9lgbJARyxQgN0RM35cCPD64IMPIla02djFz0iQTtAG4pORdPhJZAxgDaRtY9UmK1iyZEl0KAJrrndAmfxhmL1IfIIxuWYDXwA4L5GTTjop8gLrSmWBssDkWqAAu8P2BnA6IA1Vv+mmm2JqMJ4U9gNuabIYaDJqMgWgplULb3r77bfHvIlGQGLP8tGoufAJ0gTAATJfaqMazQIj7ohYI+6N9NGNMk+HH2UVVxboOgsUYE/AI9H5BpR5VfBNFudZ5x3gxK4nC7A1Elg2sDY/4vXXXx+yhlCrQFkDYmZyrFo++80f6TiTIdClDU83AKaZUbv+yYyZMgGPqIosC/SkBQqwJ+CxpdcFX2YzldOBTY0FIC0AdCKSBgGYAtw8B/nDrDJiYWPTPFmAb4ZaNUu5oFA6EflXmxiYJGLo+dFHHx2jHoFzljdZjc1E2KfKLAv0ugUKsDv8BIFlShBYq449WjaXuGnTpgVYJvh1+NTBkpVJ4sCO+UcLYyqoE1kGe8b077vvvhilaPCLOSB5fgBqnYq8QczXaKAM2QNYK09DU2Dd6SdW5ZUFxmeBAuzx2WvM3AAbWEoJcoZyk0V02NGB7Z+IlA0FmcPQcP7RPDqwbJ2KroObnim7xP4A4hqUF154IUDb/IsGxWDg2TGqTNc7mVLORNimyiwL9IMFCrA7/BSTYVsDOmtM2yCUE088MRhv8wwr42GtyhoupQyCKQuLikFrGLBl/tSkEFH8sGWALKoeuQajJokcfvjhjeOOO25VA5PncP2uXfkF2GmVWpcFps4CBdgTbPsEbKAnmp9ASmZxJ0+QRoCipZWkLL7R2eHneGzeYsCOuRTJFyLk0dFNLkCX5sIHwHU0AmqL/PyuyR+i/DXr1K1cS+UpC5QFJt8CBdgTbPNkxclUyRTkCh4b/JzHA5TAWHnWuQBl031xwaM706tNYMCtkJseecM+DBmIm8mcFGLouah6JA9adTYeE2yOKr4sUBZYAwsUYK+B8Vo5FMAmyGLZgHbFihUxdF3cDqy31U5I5QBYiSeHgS/kj3322SeAmU4tvsdLL70UuvXGG28cYEzDNvAFExegyfBznY8p2bguDYd1pbJAWaB7LVCAPcHPJgEbGNqWaM1maLEsXLgwOgHzMuRLNt58jGP9TxIx4wuwxoxnzJgR4Mz32wzkRjOaZUY8EEz6D3/4QwyW2XnnnWPmF54hGo1k1NbOB7yVX6ksUBboXgsUYE/ys8GQgS+QfOSRR4IhX3TRRcG0EzCBKFCV5JeXpIElk1IEa+InzdvDgBiDc4D1t7/97RipSAYhlRilSCsnf/AKwaorlQXKAr1rgQLsSX52wJc0AYixWpKGqbcuueSSAFuX47eMgGcoOPZs1CRNOl3yHAvAhUQ1A7l5FE2gANjp1AD/2GOPjbkUeYlIyqxUFigL9K4FCrAn+dkBa2CboI1NGxr+wAMPNDBtkgWmDXCBNRZ+zTXXNL73ve/FlFtCtgrSBJRN07XFFlsEENuPbQNwoyp5igBxskk2DsC8UlmgLNC7FijAnoJnB0CBssW2hS4tWBQmbVouIU6NkASyOXRcB+XNN98c/tM5SpHnB19rAC4f+YOGnZ2IqVeTYTQOlcoCZYHetUBRril4ds1MF2gDVwNasOE99tgjhosLvmRAi05E7BkjF5eEK6Ah7qQRoxQBtTJ0Xu6yyy7BtrOD0q1h85I8lcoCZYHetkAB9hQ/P6yX9IFlY8rA2yQBp59+ekTSA9hPPfVUyB+A2vyKgP3JJ58MCYSb3lFHHRUdihoCwJ4NQoH0FD/cOn1ZoMMWKEmkwwYdb3EkDbrzlVde2fjiF78Yw8kz7odORgx6s802i6h5yjaXokh7pu264IILoqMSo8akUwbxvyWBe7zXVPnLAmWB7rRAAfYEPxfAKdGSmxkvJsw976qrrorgSwa/AGz5DKwRPQ/rNqQcCzf4RfQ926eddlpju+22C/kDUCvXcbZTs3bO5vNN8G1W8WWBssAkWKAAe4KNDLCxaGAKbIFwBmkS44N/tOm4sGEA/stf/jJkDwGiuOORSf785z/Hb0ceeWTjgAMOCDc+bJqLIHmkUlmgLDAYFijAnuDnDFSBNOZr27Dxa6+9NlzzuN5hzoaZ/+lPf4ph5Tw8DHYB4G+++Wbj1VdfbWyzzTbhUy1WCNBP5ixPbk/wbVTxZYGyQBdYoAB7gh8Chk3+IHFkND1ueyQNWrRFB+JXv/rV0KV5fgBhwZsAt7kUsW0MPTXpBG1rS6WyQFlgMCxQXiIdeM6YM5DFoq1JIBKQFfuD77Rpunh56FAUPe/FF1+MhTxiCjExqpUjPrWBMYCarm3qLqCv3Fx34JKriLJAWaAHLVAMuwMPDYMGzgA1F/E9yB9GKdKpc9Jbaz7T3PX4UotFjTnrUDRy0VRiwBqw06cBdaWyQFmgLMACxbA7UA8SrAE3icIUXeZSJIPw6MCY/fbhhx82FixYELOTC9QE3DHsZ555JoakL126tCEkasof6fnRgUusIsoCZYE+sEAx7BYeImAdLeXvgFmM69/97ncxWnHbbbeNeRQB99NPP934/Oc/Hzq10KdmfeF/bbKBc845J8KkAmqAn655JJIK2DSa5eu3ssBgWaAAu4XnnYCcWQGqBFB5gJA3HnvssQh9qqNw6623DnA2JRiXPMPMv/nNb0YnomNyLsVZs2Y1jj/++MibZde6LFAWKAuMZIEC7JEs07R/KGAnUFsbjbh48eJgxtzuaM/CnfKn5gHCx3rdddeN4edYtRnKySHz5s0Ltp2jE5tOV5tlgbJAWWBYCxRgD2uW1XcOBWyMGnP+1a9+1Xj88ccbBx544KoOQqBs5nLA/a1vfSu8RMQKEbtaECdALVSqjkbyB8Au17zV7V3/lQXKAsNboAB7eLus8vYAps1eIAa63H333TG9F30Z+PLkoEVjzwbBiP1hei55DXzhMTJnzpwGCUTwJmCdZSqfdl2pLFAWKAuMZYEC7GEsROqwYNbAFPACVvMjGqUokTXM8KKj0XRcPD2MUjQABiB/8MEH4Wc9ffr0xtFHHx2eIcoC7uWqN4zRa1dZoCwwpgUKsIcxkU5FnYlAmpzx/vvvh07917/+NYDXTC5+4w3Cdxpr/s53vhP5Pvroo3DnA+YmILAfE1cmv2rrYtTDGL12lQXKAmNaoAB7GBMBVTo12ULnoVlgBF3ijmef0YtGLlrzCJGwcf7XBsCceeaZMUpxuLkUk7UPc9raVRYoC5QFRrXAwA6cGdqRCKRzwYBJHLw/zEBu2i2yiMV+3h+kDrq1JEa1IeXig9x4442r3PSwcMm5SgYJU9SfskBZYA0sMNCADUhT+kgbAmNDx2nTouSJUQ2Y33777YaRiOuvv34MH8e0P/OZzzSWL18eoxSXLFkSsatp30Mlj2awbt7Oc9a6LFAWKAu0YoGBlUSSTSf7pT3feuutjSeeeCJmfRH/A7vm5WEAjCHkgjbRo//9739HfGqa9imnnNLYd999o6Mxy6oY1a1UvcpTFigLjNcCAwvYmDWApUObM3HRokWroukJf4pVL1u2rAGUDYT58pe/HABukgEjFXfbbbeIUW24ebP04QHwt65UFigLlAU6bYGBAWzgnO56jEiaMGnADTfc0HjllVcaJrPNQSwGubz88ssxjyKw5qb397//PYAayz7rrLMa3/jGN0L6UG6Wlwy7ZI9OV9MqryxQFmCBgQFsEkjG/RA175ZbbglQNnQc+AJz/tRYNSmEnzWNmluf0YziUut83H777QPYgXulskBZoCwwmRYYGMAG1uSP1157rXHSSSc11ltvvQhlqlNRR6P91rRrkgiPEFH2DIAxkcARRxwRcyxi28nEJ/NB1bnKAmWBssDAeImQKXQYYs0W0ga548EHH4y5FEXTMyMM7w/xQIRD9f8ll1wSQZoAPu8PskfKIFV9ygJlgbLAZFqgbxk2CaQZWAGxRPogh5ixXIeiGWBE2dNRyBNEmNS11147dGqAnR4fo7nqTeYDq3OVBcoCg2uBvmXY2fGXftGAlyTy3nvvhZueaHtGKa611lqhXZuhnO/16aefHm56RimSPwA/L5Asb3CrSt15WaAsMNUW6GuGzbgpYYiYZ3CLkKjkD0GadDICcGC98847B6s2/FxHI9kEK09mneupfmB1/rJAWWBwLdC3gA2o6c7A98knn2zMnz8/mLJwqKQPg1/++Mc/xkS4pugyczk2LQFn29bKwLCx7UplgbJAWWAqLdDXgM3TY+7cuavmWBSjmj81z4///Oc/jUMOOaSx3377hX7N86Nkj6msinXuskBZYCwL9C1tzA5HoG2UohCoRigKhzpz5szGMcccE3FCMt9YhqrfywJlgbLAVFugbxk2SYMcYig5gCZvbLDBBo0TTjghXPpSkyZ3AO1i2FNdFev8ZYGywFgW6GmGDZRTxrDOTkL7ATHZQyejQTJ77713AHcCM8AG1OlFMpah6veyQFmgLDDVFuhphg2YAW6yZJMOAG77n3vuufC35ks9e/bsGKWYPtVTbfQ6f1mgLFAWaMcCPQ3YqT8DaIv/uen99Kc/bXz2s59tHHXUUeG+Z4QjIAfslcoCZYGyQK9aoKclEewaUHO5Ew7VtF2CN4lRbeZy+8kkgLzAuleraF13WaAskBboOcAG0qlbuwnbpu265pprGltuuWXjzjvvDDc9QA6kDTlPBp4djXnztS4LlAXKAr1kgZ6SRACvZDCLJBYIoDZbDFa97rrrrmLcfi+ADjPVn7JAWaBPLNBzDJvEIZreww8/3FixYkVj1qxZjRkzZkTnI7ZNBrFOfbtPnlPdRlmgLFAW6K0JDID1b3/725glRjwQ3h8mFsCkE6ixcLKJ/4thVw0vC5QF+skCXSWJYMVAORkywE2m/Je//KVx8803N/72t781jjvuuIaZYkabSKA6Gvupmta9lAXKAizQVZIIkE2wdnHYstGK9913X8SpNvPLjjvuGB2JCcjyD5dG2j9c3tpXFigLlAV6wQJdybB5d+hYfPXVVxuXXXZZzK9oklxTd0kkD4NgMPAC5l6oZnWNZYGyQCcs0FUM2w0B63/+85+NK664omGSARPfrr/++gHMdOlk1th3adSdqAJVRlmgLNArFph0hp0DWRJss4MQEJM/HnroocaNN97YOProoxvf//73V03RNdSgxayHWqT+LwuUBfrdApPOsLFk7BjgWgNqIP7GG280FixY0PjCF77QuP322xtmfinJo9+rX91fWaAsMB4LTDpg06aBtTVANugFQL/00kvh/WFIeQ6MAeQVsGk8j7PylgXKAv1sgQmXRDDo5pSsmhTy+OOPN5YuXRrzKR5wwAEBzs0aNT07pZPmMmq7LFAWKAsMogUmHLCxZAmrBsZCoL777ruN6667Lpg0n+qvfe1rq/ytSSaVygJlgbJAWeCTFpgUdEy92pBywZnEquamJ1a14EzJquWrVBYoC5QFygLDW2DSGPYLL7zQuO2222KEoiHla621VrBuoxUBtqU6GYd/SLW3LFAWKAuwwBoz7ARb7DiZtDWNmgb9j3/8o7Fo0aLGhx9+2Dj11FMDsO2XHJus2r7yra5KWRYoC5QFRrbAGjPsBGxga5GAtf0mFBBVz5DyXXfdNeQPGnWC9MiXVb+UBcoCZYGywFALdAywFQykgbVpuubOndvYcMMNG4cddljj//7v/1bNSk72SIY99GLq/7JAWaAsUBYY2QJrLIkomicI5vz+++83Hn300XDXO++882JCAX7UmDdW3SyBjHxJ9UtZoCxQFigLDGeBthg2Fi2lBAKwn3/++ehU5Plx4IEHxizlzdJHgnXzvuEuqPaVBcoCZYGywPAWaAuwxfwA0mYjf/vtt2NCAaMT06e6QHl4Y9feskBZoCywJhZoSxLBlgE2n+pnn322sf/++ze22mqrYNWAm6tepbJAWaAsUBborAXaYtgGvhhSLuypORV1KmLVyawLsDv7kKq0skBZoCzAAm0B9ltvvRXWW2eddVYD6jRpAnf+X+uyQFmgLFAWWHML/D+XaZtn1X+n8QAAAABJRU5ErkJggg==;" vertex="1" parent="f83U8uQOPlh2mUSy-AxR-1">
          <mxGeometry x="240" y="40" width="364" height="479" as="geometry"/>
        </mxCell>
        <mxCell id="QbqKzZHSz8Ruj2JmcFZE-0" value="&lt;div&gt;&lt;font face=&quot;Comic Sans MS&quot; style=&quot;font-size: 12px&quot;&gt;5) Un skieur de masse m, remonte à téléski une pente de 25 % supposée rectiligne. La perche à laquelle il est accroché fait un angle α = 45 ° avec la pente. Le mouvement du skieur est une translation rectiligne uniforme. On néglige la résistance de l&#39;air.&lt;/font&gt;&lt;/div&gt;&lt;div&gt;&lt;font face=&quot;Comic Sans MS&quot; style=&quot;font-size: 12px&quot;&gt;5a)- Représenter les forces appliquées au skieur sur le schéma ci-dessous.&lt;/font&gt;&lt;/div&gt;&lt;div&gt;&lt;font face=&quot;Comic Sans MS&quot; style=&quot;font-size: 12px&quot;&gt;- Dans un premier temps, on néglige les frottements entre la neige et les skis. Donner les caractéristiques de toutes les forces appliquées au skieur (direction, sens et valeur).&lt;/font&gt;&lt;/div&gt;&lt;div&gt;&lt;font face=&quot;Comic Sans MS&quot; style=&quot;font-size: 12px&quot;&gt;- On ne néglige plus la force de frottement due aux frottements solides.&amp;nbsp;&lt;/font&gt;&lt;/div&gt;&lt;div&gt;&lt;font face=&quot;Comic Sans MS&quot; style=&quot;font-size: 12px&quot;&gt;- Elle est caractérisée par un coefficient de frottement dynamique μ tel que RT = μ. RN ; RT et RN désignent les valeurs des composantes tangentielle et normale de la réaction de la neige sur les skis. Déterminer les caractéristiques de toutes les forces appliquées au skieur. Est-il légitime de négliger les forces de frottement ?&lt;/font&gt;&lt;/div&gt;&lt;div&gt;&lt;font face=&quot;Comic Sans MS&quot; style=&quot;font-size: 12px&quot;&gt;5b)- Le skieur descend maintenant, une pente de 35 % tout &quot;schuss&quot;. On assimile la résistance de l&#39;air à une force unique opposée au mouvement et proportionnelle au carré de la vitesse du skieur : f = k.v2. On néglige les forces de frottements solides dues au contact des skis sur la neige devant la résistance de l&#39;air.&lt;/font&gt;&lt;/div&gt;&lt;div&gt;&lt;font face=&quot;Comic Sans MS&quot; style=&quot;font-size: 12px&quot;&gt;- Montrer qu&#39;au départ le mouvement est accéléré.&lt;/font&gt;&lt;/div&gt;&lt;div&gt;&lt;font face=&quot;Comic Sans MS&quot; style=&quot;font-size: 12px&quot;&gt;- Montrer qu&#39;au bout d&#39;un certain temps, le mouvement devient rectiligne uniforme.&lt;/font&gt;&lt;/div&gt;&lt;div&gt;&lt;font face=&quot;Comic Sans MS&quot; style=&quot;font-size: 12px&quot;&gt;5c)- Le skieur a atteint son régime permanent. Calculer la valeur v de la vitesse. Que doit-il faire s&#39;il veut aller encore plus vite ?&amp;nbsp;&lt;/font&gt;&lt;/div&gt;&lt;div&gt;&lt;font face=&quot;Comic Sans MS&quot; style=&quot;font-size: 12px&quot;&gt;- Données : m = 110 kg ; μ = 0,06 ; k = 0,8 N.m-2.s2 et g = 10 N / kg.&lt;/font&gt;&lt;/div&gt;" style="text;html=1;strokeColor=none;fillColor=none;align=left;verticalAlign=middle;whiteSpace=wrap;rounded=0;" vertex="1" parent="f83U8uQOPlh2mUSy-AxR-1">
          <mxGeometry x="80" y="773.2" width="570" height="310" as="geometry"/>
        </mxCell>
        <mxCell id="QbqKzZHSz8Ruj2JmcFZE-8" value="&lt;span style=&quot;font-family: monospace , monospace ; font-size: 14px&quot;&gt;\overrightarrow{AB}&lt;/span&gt;" style="text;html=1;strokeColor=none;fillColor=none;align=center;verticalAlign=middle;whiteSpace=wrap;rounded=0;" vertex="1" parent="f83U8uQOPlh2mUSy-AxR-1">
          <mxGeometry x="140" y="350" width="40" height="20" as="geometry"/>
        </mxCell>
        <mxCell id="7A2S4tnSPhRSEIEMeQe6-0" value="" style="group;rotation=323;" vertex="1" connectable="0" parent="f83U8uQOPlh2mUSy-AxR-1">
          <mxGeometry x="400" y="350" width="60" height="62" as="geometry"/>
        </mxCell>
        <mxCell id="7A2S4tnSPhRSEIEMeQe6-1" value="" style="endArrow=classic;html=1;strokeColor=#663300;strokeWidth=2;fontFamily=Comic Sans MS;fontSize=14;fontColor=#663300;" edge="1" parent="7A2S4tnSPhRSEIEMeQe6-0">
          <mxGeometry width="50" height="50" relative="1" as="geometry">
            <mxPoint x="22" y="70" as="sourcePoint"/>
            <mxPoint x="-12" y="20" as="targetPoint"/>
          </mxGeometry>
        </mxCell>
        <mxCell id="7A2S4tnSPhRSEIEMeQe6-2" value="&lt;span style=&quot;&quot;&gt;$$\overrightarrow{y}$$&lt;/span&gt;" style="text;html=1;resizable=0;points=[];align=center;verticalAlign=middle;labelBackgroundColor=none;fontSize=14;fontFamily=Comic Sans MS;fontColor=#663300;rotation=-394;" vertex="1" connectable="0" parent="7A2S4tnSPhRSEIEMeQe6-1">
          <mxGeometry x="0.6833" relative="1" as="geometry">
            <mxPoint x="-14" y="-2" as="offset"/>
          </mxGeometry>
        </mxCell>
        <mxCell id="7A2S4tnSPhRSEIEMeQe6-3" value="" style="endArrow=classic;html=1;strokeColor=#663300;strokeWidth=2;fontFamily=Comic Sans MS;fontSize=14;fontColor=#663300;" edge="1" parent="7A2S4tnSPhRSEIEMeQe6-0">
          <mxGeometry width="50" height="50" relative="1" as="geometry">
            <mxPoint x="22" y="70" as="sourcePoint"/>
            <mxPoint x="73" y="36" as="targetPoint"/>
          </mxGeometry>
        </mxCell>
        <mxCell id="7A2S4tnSPhRSEIEMeQe6-4" value="&lt;span style=&quot;&quot;&gt;$$\overrightarrow{x}$$&lt;/span&gt;" style="text;html=1;resizable=0;points=[];align=center;verticalAlign=middle;labelBackgroundColor=none;fontSize=14;fontFamily=Comic Sans MS;fontColor=#663300;labelPosition=center;verticalLabelPosition=middle;rotation=-394;" vertex="1" connectable="0" parent="7A2S4tnSPhRSEIEMeQe6-3">
          <mxGeometry x="0.5417" relative="1" as="geometry">
            <mxPoint x="-2" y="-13" as="offset"/>
          </mxGeometry>
        </mxCell>
      </root>
    </mxGraphModel>
  </diagram>
  <diagram id="qsv3Kg3imZfj8nuIal7q" name="Page-3">
    <mxGraphModel dx="1185" dy="662" grid="1" gridSize="10" guides="1" tooltips="1" connect="1" arrows="1" fold="1" page="1" pageScale="1" pageWidth="827" pageHeight="1169" math="1" shadow="0">
      <root>
        <mxCell id="369hKc7BoofAtsA0KS8L-0"/>
        <mxCell id="369hKc7BoofAtsA0KS8L-1" parent="369hKc7BoofAtsA0KS8L-0"/>
        <mxCell id="xsiFSYqbo5ChyPS7VTE0-2" value="" style="group;rotation=349;" vertex="1" connectable="0" parent="369hKc7BoofAtsA0KS8L-1">
          <mxGeometry x="120" y="80" width="80" height="80" as="geometry"/>
        </mxCell>
        <mxCell id="d3ROsYWWjusOVuSdgqHJ-0" value="" style="endArrow=classic;html=1;strokeColor=#663300;strokeWidth=2;fontFamily=Comic Sans MS;fontSize=14;fontColor=#663300;" edge="1" parent="xsiFSYqbo5ChyPS7VTE0-2">
          <mxGeometry width="50" height="50" relative="1" as="geometry">
            <mxPoint x="5" y="85" as="sourcePoint"/>
            <mxPoint x="-5" y="5" as="targetPoint"/>
          </mxGeometry>
        </mxCell>
        <mxCell id="xsiFSYqbo5ChyPS7VTE0-1" value="&lt;span style=&quot;&quot;&gt;$$\overrightarrow{y}$$&lt;/span&gt;" style="text;html=1;resizable=0;points=[];align=center;verticalAlign=middle;labelBackgroundColor=none;fontSize=14;fontFamily=Comic Sans MS;fontColor=#663300;rotation=-7;" vertex="1" connectable="0" parent="d3ROsYWWjusOVuSdgqHJ-0">
          <mxGeometry x="0.6833" relative="1" as="geometry">
            <mxPoint x="-14" y="-2" as="offset"/>
          </mxGeometry>
        </mxCell>
        <mxCell id="d3ROsYWWjusOVuSdgqHJ-1" value="" style="endArrow=classic;html=1;strokeColor=#663300;strokeWidth=2;fontFamily=Comic Sans MS;fontSize=14;fontColor=#663300;" edge="1" parent="xsiFSYqbo5ChyPS7VTE0-2">
          <mxGeometry width="50" height="50" relative="1" as="geometry">
            <mxPoint x="5" y="85" as="sourcePoint"/>
            <mxPoint x="85" y="75" as="targetPoint"/>
          </mxGeometry>
        </mxCell>
        <mxCell id="d3ROsYWWjusOVuSdgqHJ-2" value="&lt;span style=&quot;&quot;&gt;$$\overrightarrow{x}$$&lt;/span&gt;" style="text;html=1;resizable=0;points=[];align=center;verticalAlign=middle;labelBackgroundColor=none;fontSize=14;fontFamily=Comic Sans MS;fontColor=#663300;labelPosition=center;verticalLabelPosition=middle;rotation=-7;" vertex="1" connectable="0" parent="d3ROsYWWjusOVuSdgqHJ-1">
          <mxGeometry x="0.5417" relative="1" as="geometry">
            <mxPoint x="-2" y="-13" as="offset"/>
          </mxGeometry>
        </mxCell>
        <mxCell id="bD8-KfwysqOXWXZoKKjp-0" value="$$\sum\overrightarrow{M_G(\overrightarrow{F_{ext \to S}})}$$" style="text;html=1;strokeColor=none;fillColor=none;align=center;verticalAlign=middle;whiteSpace=wrap;rounded=0;" vertex="1" parent="369hKc7BoofAtsA0KS8L-1">
          <mxGeometry x="270" y="100" width="270" height="70" as="geometry"/>
        </mxCell>
        <mxCell id="bD8-KfwysqOXWXZoKKjp-4" value="" style="group" vertex="1" connectable="0" parent="369hKc7BoofAtsA0KS8L-1">
          <mxGeometry x="360" y="220" width="140" height="130" as="geometry"/>
        </mxCell>
        <mxCell id="bD8-KfwysqOXWXZoKKjp-1" value="" style="endArrow=classic;html=1;strokeColor=#663300;strokeWidth=2;fontFamily=Comic Sans MS;fontSize=14;fontColor=#663300;" edge="1" parent="bD8-KfwysqOXWXZoKKjp-4">
          <mxGeometry width="50" height="50" relative="1" as="geometry">
            <mxPoint y="130" as="sourcePoint"/>
            <mxPoint x="140" as="targetPoint"/>
          </mxGeometry>
        </mxCell>
        <mxCell id="bD8-KfwysqOXWXZoKKjp-3" value="$$\overrightarrow{F_{ext \to S}}$$" style="text;html=1;resizable=0;points=[];align=center;verticalAlign=middle;labelBackgroundColor=#ffffff;fontSize=14;fontFamily=Comic Sans MS;fontColor=#663300;" vertex="1" connectable="0" parent="bD8-KfwysqOXWXZoKKjp-1">
          <mxGeometry x="-0.2885" y="2" relative="1" as="geometry">
            <mxPoint x="21.5" y="-72.5" as="offset"/>
          </mxGeometry>
        </mxCell>
      </root>
    </mxGraphModel>
  </diagram>
  <diagram id="ZbIk2s3TxxwM4_d3EUh2" name="Page-4">
    <mxGraphModel dx="1422" dy="794" grid="1" gridSize="10" guides="1" tooltips="1" connect="1" arrows="1" fold="1" page="1" pageScale="1" pageWidth="827" pageHeight="1169" math="0" shadow="0">
      <root>
        <mxCell id="f7dnYFP8L5Kv0mJkfTvW-0"/>
        <mxCell id="f7dnYFP8L5Kv0mJkfTvW-1" parent="f7dnYFP8L5Kv0mJkfTvW-0"/>
      </root>
    </mxGraphModel>
  </diagram>
</mxfile>
